<?xml version="1.0" encoding="utf-8"?>
<!-- Generator: Adobe Illustrator 17.0.0, SVG Export Plug-In . SVG Version: 6.00 Build 0)  -->
<!DOCTYPE svg PUBLIC "-//W3C//DTD SVG 1.1//EN" "http://www.w3.org/Graphics/SVG/1.1/DTD/svg11.dtd">
<svg version="1.1" id="Layer_1" xmlns:ev="http://www.w3.org/2001/xml-events"
	 xmlns="http://www.w3.org/2000/svg" xmlns:xlink="http://www.w3.org/1999/xlink" x="0px" y="0px" width="4239px" height="2654px"
	 viewBox="0 0 4239 2654" enable-background="new 0 0 4239 2654" xml:space="preserve">
<title>/Volumes/Macintosh HD/Developer/KPImaps/Maps/05/Temp/SweetHome3d_4.sh3d</title>
<desc>
	Creator: FreeHEP Graphics2D Driver Producer: com.eteks.sweethome3d.swing.PlanComponent$SVGSupport$1 Revision: 12753  Source: alexeybodnya Date: Sunday, October 26, 2014 5:23:32 PM EET
	</desc>
<g>
	<g transform="matrix(1, 0, 0, 1, -608.955322265625, -1129.89013671875)">
		<g>
			<path fill="#5EA647" d="M3707.911,3028.973h487.68v298.45h-487.68V3028.973z"/>
		</g>
	</g>
	<g transform="matrix(1, 0, 0, 1, -608.955322265625, -1129.89013671875)">
		<g>
			<path fill="none" stroke="#434343" stroke-width="5" stroke-linecap="square" stroke-miterlimit="10" d="M3707.911,3028.973
				h487.68v298.45h-487.68V3028.973z"/>
		</g>
	</g>
	<g transform="matrix(1, 0, 0, 1, -608.955322265625, -1129.89013671875)">
		<g>
			<path fill="#FFFF76" d="M3707.911,2474.262h487.68v-223.52h-487.68V2474.262z"/>
		</g>
	</g>
	<g transform="matrix(1, 0, 0, 1, -608.955322265625, -1129.89013671875)">
		<g>
			<path fill="none" stroke="#434343" stroke-width="5" stroke-linecap="square" stroke-miterlimit="10" d="M3707.911,2474.262
				h487.68v-223.52h-487.68V2474.262z"/>
		</g>
	</g>
	<g transform="matrix(1, 0, 0, 1, -608.955322265625, -1129.89013671875)">
		<g>
			<path fill="#FFFF76" d="M3707.691,2235.077h487.68v-223.52h-487.68L3707.691,2235.077L3707.691,2235.077z"/>
		</g>
	</g>
	<g transform="matrix(1, 0, 0, 1, -608.955322265625, -1129.89013671875)">
		<g>
			<path fill="none" stroke="#434343" stroke-width="5" stroke-linecap="square" stroke-miterlimit="10" d="M3707.691,2235.077
				h487.68v-223.52h-487.68L3707.691,2235.077L3707.691,2235.077z"/>
		</g>
	</g>
	<g transform="matrix(1, 0, 0, 1, -608.955322265625, -1129.89013671875)">
		<g>
			<path fill="#FFFF76" d="M3707.911,1994.494h487.68v-223.52h-487.68V1994.494z"/>
		</g>
	</g>
	<g transform="matrix(1, 0, 0, 1, -608.955322265625, -1129.89013671875)">
		<g>
			<path fill="none" stroke="#434343" stroke-width="5" stroke-linecap="square" stroke-miterlimit="10" d="M3707.911,1994.494
				h487.68v-223.52h-487.68V1994.494z"/>
		</g>
	</g>
	<g transform="matrix(1, 0, 0, 1, -608.955322265625, -1129.89013671875)">
		<g>
			<path fill="#FFFF76" d="M3707.911,1753.691h487.68v-223.52h-487.68V1753.691z"/>
		</g>
	</g>
	<g transform="matrix(1, 0, 0, 1, -608.955322265625, -1129.89013671875)">
		<g>
			<path fill="none" stroke="#434343" stroke-width="5" stroke-linecap="square" stroke-miterlimit="10" d="M3707.911,1753.691
				h487.68v-223.52h-487.68V1753.691z"/>
		</g>
	</g>
	<g transform="matrix(1, 0, 0, 1, -608.955322265625, -1129.89013671875)">
		<g>
			<path fill="#FFFF76" d="M3705.853,1516.344h487.68v-363.135h-487.68L3705.853,1516.344L3705.853,1516.344z"/>
		</g>
	</g>
	<g transform="matrix(1, 0, 0, 1, -608.955322265625, -1129.89013671875)">
		<g>
			<path fill="none" stroke="#434343" stroke-width="5" stroke-linecap="square" stroke-miterlimit="10" d="M3705.853,1516.344
				h487.68v-363.135h-487.68L3705.853,1516.344L3705.853,1516.344z"/>
		</g>
	</g>
	<g transform="matrix(1, 0, 0, 1, -608.955322265625, -1129.89013671875)">
		<g>
			<path fill="#FFFF76" d="M4328.488,2229.948h487.68v-223.52h-487.68V2229.948z"/>
		</g>
	</g>
	<g transform="matrix(1, 0, 0, 1, -608.955322265625, -1129.89013671875)">
		<g>
			<path fill="none" stroke="#434343" stroke-width="5" stroke-linecap="square" stroke-miterlimit="10" d="M4328.488,2229.948
				h487.68v-223.52h-487.68V2229.948z"/>
		</g>
	</g>
	<g transform="matrix(1, 0, 0, 1, -608.955322265625, -1129.89013671875)">
		<g>
			<path fill="#FFFF76" d="M4328.709,2469.133h487.68v-223.52h-487.68V2469.133z"/>
		</g>
	</g>
	<g transform="matrix(1, 0, 0, 1, -608.955322265625, -1129.89013671875)">
		<g>
			<path fill="none" stroke="#434343" stroke-width="5" stroke-linecap="square" stroke-miterlimit="10" d="M4328.709,2469.133
				h487.68v-223.52h-487.68V2469.133z"/>
		</g>
	</g>
	<g transform="matrix(1, 0, 0, 1, -608.955322265625, -1129.89013671875)">
		<g>
			<path fill="#FFFF76" d="M4328.709,1989.365h487.68v-218.392h-487.68V1989.365z"/>
		</g>
	</g>
	<g transform="matrix(1, 0, 0, 1, -608.955322265625, -1129.89013671875)">
		<g>
			<path fill="none" stroke="#434343" stroke-width="5" stroke-linecap="square" stroke-miterlimit="10" d="M4328.709,1989.365
				h487.68v-218.392h-487.68V1989.365z"/>
		</g>
	</g>
	<g transform="matrix(1, 0, 0, 1, -608.955322265625, -1129.89013671875)">
		<g>
			<path fill="#FFFF76" d="M4328.489,1514.892h487.68v-223.52h-487.68V1514.892z"/>
		</g>
	</g>
	<g transform="matrix(1, 0, 0, 1, -608.955322265625, -1129.89013671875)">
		<g>
			<path fill="none" stroke="#434343" stroke-width="5" stroke-linecap="square" stroke-miterlimit="10" d="M4328.489,1514.892
				h487.68v-223.52h-487.68V1514.892z"/>
		</g>
	</g>
	<g transform="matrix(1, 0, 0, 1, -608.955322265625, -1129.89013671875)">
		<g>
			<path fill="#5EA647" d="M4816.168,1153.209h-383.54v121.92h383.54V1153.209z"/>
		</g>
	</g>
	<g transform="matrix(1, 0, 0, 1, -608.955322265625, -1129.89013671875)">
		<g>
			<path fill="none" stroke="#434343" stroke-width="5" stroke-linecap="square" stroke-miterlimit="10" d="M4816.168,1153.209
				h-383.54v121.92h383.54V1153.209z"/>
		</g>
	</g>
	<g transform="matrix(1, 0, 0, 1, -608.955322265625, -1129.89013671875)">
		<g>
			<path fill="#FFFF76" d="M4330.546,2621.737h487.748l-0.067-137.16h-487.68L4330.546,2621.737L4330.546,2621.737z"/>
		</g>
	</g>
	<g transform="matrix(1, 0, 0, 1, -608.955322265625, -1129.89013671875)">
		<g>
			<path fill="none" stroke="#434343" stroke-width="5" stroke-linecap="square" stroke-miterlimit="10" d="M4330.546,2621.737
				h487.748l-0.067-137.16h-487.68L4330.546,2621.737L4330.546,2621.737z"/>
		</g>
	</g>
	<g transform="matrix(1, 0, 0, 1, -608.955322265625, -1129.89013671875)">
		<g>
			<path fill="#FFFF76" d="M4331.169,3466.29h488.287v-165.1h-487.459L4331.169,3466.29z"/>
		</g>
	</g>
	<g transform="matrix(1, 0, 0, 1, -608.955322265625, -1129.89013671875)">
		<g>
			<path fill="none" stroke="#434343" stroke-width="5" stroke-linecap="square" stroke-miterlimit="10" d="M4331.169,3466.29
				h488.287v-165.1h-487.459L4331.169,3466.29z"/>
		</g>
	</g>
	<g transform="matrix(1, 0, 0, 1, -608.955322265625, -1129.89013671875)">
		<g>
			<path fill="#FFFF76" d="M4330.614,2807.11h487.46l0.22-172.72h-487.68V2807.11z"/>
		</g>
	</g>
	<g transform="matrix(1, 0, 0, 1, -608.955322265625, -1129.89013671875)">
		<g>
			<path fill="none" stroke="#434343" stroke-width="5" stroke-linecap="square" stroke-miterlimit="10" d="M4330.614,2807.11
				h487.46l0.22-172.72h-487.68V2807.11z"/>
		</g>
	</g>
	<g transform="matrix(1, 0, 0, 1, -608.955322265625, -1129.89013671875)">
		<g>
			<path fill="#FFFFCC" d="M4330.681,2993.218h487.46l0.22-172.72h-487.68V2993.218z"/>
		</g>
	</g>
	<g transform="matrix(1, 0, 0, 1, -608.955322265625, -1129.89013671875)">
		<g>
			<path fill="none" stroke="#434343" stroke-width="5" stroke-linecap="square" stroke-miterlimit="10" d="M4330.681,2993.218
				h487.46l0.22-172.72h-487.68V2993.218z"/>
		</g>
	</g>
	<g transform="matrix(1, 0, 0, 1, -608.955322265625, -1129.89013671875)">
		<g>
			<path fill="#FFFF76" d="M3706.877,3763.826h487.459v-226.06h-487.458L3706.877,3763.826z"/>
		</g>
	</g>
	<g transform="matrix(1, 0, 0, 1, -608.955322265625, -1129.89013671875)">
		<g>
			<path fill="none" stroke="#434343" stroke-width="5" stroke-linecap="square" stroke-miterlimit="10" d="M3706.877,3763.826
				h487.459v-226.06h-487.458L3706.877,3763.826z"/>
		</g>
	</g>
	<g transform="matrix(1, 0, 0, 1, -608.955322265625, -1129.89013671875)">
		<g>
			<path fill="#FFFF76" d="M3706.877,3522.575h487.458l0.001-180.34h-487.46L3706.877,3522.575L3706.877,3522.575z"/>
		</g>
	</g>
	<g transform="matrix(1, 0, 0, 1, -608.955322265625, -1129.89013671875)">
		<g>
			<path fill="none" stroke="#434343" stroke-width="5" stroke-linecap="square" stroke-miterlimit="10" d="M3706.877,3522.575
				h487.458l0.001-180.34h-487.46L3706.877,3522.575L3706.877,3522.575z"/>
		</g>
	</g>
	<g transform="matrix(1, 0, 0, 1, -608.955322265625, -1129.89013671875)">
		<g>
			<path fill="#FFFF76" d="M4331.997,3617.928h487.459v-137.16h-487.459V3617.928z"/>
		</g>
	</g>
	<g transform="matrix(1, 0, 0, 1, -608.955322265625, -1129.89013671875)">
		<g>
			<path fill="none" stroke="#434343" stroke-width="5" stroke-linecap="square" stroke-miterlimit="10" d="M4331.997,3617.928
				h487.459v-137.16h-487.459V3617.928z"/>
		</g>
	</g>
	<g transform="matrix(1, 0, 0, 1, -608.955322265625, -1129.89013671875)">
		<g>
			<path fill="#FFFF76" d="M4331.805,3765.541h487.459v-137.16h-487.459V3765.541z"/>
		</g>
	</g>
	<g transform="matrix(1, 0, 0, 1, -608.955322265625, -1129.89013671875)">
		<g>
			<path fill="none" stroke="#434343" stroke-width="5" stroke-linecap="square" stroke-miterlimit="10" d="M4331.805,3765.541
				h487.459v-137.16h-487.459V3765.541z"/>
		</g>
	</g>
	<g transform="matrix(1, 0, 0, 1, -608.955322265625, -1129.89013671875)">
		<g>
			<path fill="#FFFF76" d="M4328.9,1753.375h487.68v-218.392H4328.9V1753.375z"/>
		</g>
	</g>
	<g transform="matrix(1, 0, 0, 1, -608.955322265625, -1129.89013671875)">
		<g>
			<path fill="none" stroke="#434343" stroke-width="5" stroke-linecap="square" stroke-miterlimit="10" d="M4328.9,1753.375h487.68
				v-218.392H4328.9V1753.375z"/>
		</g>
	</g>
	<g transform="matrix(1, 0, 0, 1, -608.955322265625, -1129.89013671875)">
		<g>
			<path fill="#FFFF76" d="M4331.117,3140.288h487.459v-137.16h-487.459V3140.288z"/>
		</g>
	</g>
	<g transform="matrix(1, 0, 0, 1, -608.955322265625, -1129.89013671875)">
		<g>
			<path fill="none" stroke="#434343" stroke-width="5" stroke-linecap="square" stroke-miterlimit="10" d="M4331.117,3140.288
				h487.459v-137.16h-487.459V3140.288z"/>
		</g>
	</g>
	<g transform="matrix(1, 0, 0, 1, -608.955322265625, -1129.89013671875)">
		<g>
			<path fill="#FFFF76" d="M4331.997,3289.068h487.459v-137.16h-487.459V3289.068z"/>
		</g>
	</g>
	<g transform="matrix(1, 0, 0, 1, -608.955322265625, -1129.89013671875)">
		<g>
			<path fill="none" stroke="#434343" stroke-width="5" stroke-linecap="square" stroke-miterlimit="10" d="M4331.997,3289.068
				h487.459v-137.16h-487.459V3289.068z"/>
		</g>
	</g>
	<g transform="matrix(1, 0, 0, 1, -608.955322265625, -1129.89013671875)">
		<g>
			<path fill="#FFFF76" d="M1018.904,2491.243h378.165v-378.472h-384.81l-218.511,378.472H1018.904z"/>
		</g>
	</g>
	<g transform="matrix(1, 0, 0, 1, -608.955322265625, -1129.89013671875)">
		<g>
			<path fill="none" stroke="#434343" stroke-width="5" stroke-linecap="square" stroke-miterlimit="10" d="M1018.904,2491.243
				h378.165v-378.472h-384.81l-218.511,378.472H1018.904z"/>
		</g>
	</g>
	<g transform="matrix(1, 0, 0, 1, -608.955322265625, -1129.89013671875)">
		<g>
			<path fill="#FFFF76" d="M2221.299,2112.771v377.19h-812.8v-377.19H2221.299z"/>
		</g>
	</g>
	<g transform="matrix(1, 0, 0, 1, -608.955322265625, -1129.89013671875)">
		<g>
			<path fill="none" stroke="#434343" stroke-width="5" stroke-linecap="square" stroke-miterlimit="10" d="M2221.299,2112.771
				v377.19h-812.8v-377.19H2221.299z"/>
		</g>
	</g>
	<g transform="matrix(1, 0, 0, 1, -608.955322265625, -1129.89013671875)">
		<g>
			<path fill="#FFFF76" d="M2232.729,2489.961h304.8v-377.19h-304.8V2489.961z"/>
		</g>
	</g>
	<g transform="matrix(1, 0, 0, 1, -608.955322265625, -1129.89013671875)">
		<g>
			<path fill="none" stroke="#434343" stroke-width="5" stroke-linecap="square" stroke-miterlimit="10" d="M2232.729,2489.961
				h304.8v-377.19h-304.8V2489.961z"/>
		</g>
	</g>
	<g transform="matrix(1, 0, 0, 1, -608.955322265625, -1129.89013671875)">
		<g>
			<path fill="#FFFF76" d="M2936.575,2489.961h-383.54v-377.19h383.54V2489.961z"/>
		</g>
	</g>
	<g transform="matrix(1, 0, 0, 1, -608.955322265625, -1129.89013671875)">
		<g>
			<path fill="none" stroke="#434343" stroke-width="5" stroke-linecap="square" stroke-miterlimit="10" d="M2936.575,2489.961
				h-383.54v-377.19h383.54V2489.961z"/>
		</g>
	</g>
	<g transform="matrix(1, 0, 0, 1, -608.955322265625, -1129.89013671875)">
		<g>
			<path fill="#FFFF76" d="M2951.549,2489.961h377.19v-377.19h-377.19V2489.961z"/>
		</g>
	</g>
	<g transform="matrix(1, 0, 0, 1, -608.955322265625, -1129.89013671875)">
		<g>
			<path fill="none" stroke="#434343" stroke-width="5" stroke-linecap="square" stroke-miterlimit="10" d="M2951.549,2489.961
				h377.19v-377.19h-377.19V2489.961z"/>
		</g>
	</g>
	<g transform="matrix(1, 0, 0, 1, -608.955322265625, -1129.89013671875)">
		<g>
			<path fill="#FFFF76" d="M1014.799,2617.941h201.93v370.731h-201.93V2617.941z"/>
		</g>
	</g>
	<g transform="matrix(1, 0, 0, 1, -608.955322265625, -1129.89013671875)">
		<g>
			<path fill="none" stroke="#434343" stroke-width="5" stroke-linecap="square" stroke-miterlimit="10" d="M1014.799,2617.941
				h201.93v370.731h-201.93V2617.941z"/>
		</g>
	</g>
	<g transform="matrix(1, 0, 0, 1, -608.955322265625, -1129.89013671875)">
		<g>
			<path fill="#5EA647" d="M1247.209,2689.157h134.62v269.24h-134.62V2689.157z"/>
		</g>
	</g>
	<g transform="matrix(1, 0, 0, 1, -608.955322265625, -1129.89013671875)">
		<g>
			<path fill="none" stroke="#434343" stroke-width="5" stroke-linecap="square" stroke-miterlimit="10" d="M1247.209,2689.157
				h134.62v269.24h-134.62V2689.157z"/>
		</g>
	</g>
	<g transform="matrix(1, 0, 0, 1, -608.955322265625, -1129.89013671875)">
		<g>
			<path fill="#5EA647" d="M1729.139,2617.941h497.24v370.731h-497.24L1729.139,2617.941L1729.139,2617.941z"/>
		</g>
	</g>
	<g transform="matrix(1, 0, 0, 1, -608.955322265625, -1129.89013671875)">
		<g>
			<path fill="none" stroke="#434343" stroke-width="5" stroke-linecap="square" stroke-miterlimit="10" d="M1729.139,2617.941
				h497.24v370.731h-497.24L1729.139,2617.941L1729.139,2617.941z"/>
		</g>
	</g>
	<g transform="matrix(1, 0, 0, 1, -608.955322265625, -1129.89013671875)">
		<g>
			<path fill="#5EA647" d="M2691.443,2689.831h117.617v268.566h-117.617V2689.831z"/>
		</g>
	</g>
	<g transform="matrix(1, 0, 0, 1, -608.955322265625, -1129.89013671875)">
		<g>
			<path fill="none" stroke="#434343" stroke-width="5" stroke-linecap="square" stroke-miterlimit="10" d="M2691.443,2689.831
				h117.617v268.566h-117.617V2689.831z"/>
		</g>
	</g>
	<g transform="matrix(1, 0, 0, 1, -608.955322265625, -1129.89013671875)">
		<g>
			<path fill="#FFFFCC" d="M3328.739,2634.59h-236.22v360.831h236.22V2634.59z"/>
		</g>
	</g>
	<g transform="matrix(1, 0, 0, 1, -608.955322265625, -1129.89013671875)">
		<g>
			<path fill="none" stroke="#434343" stroke-width="5" stroke-linecap="square" stroke-miterlimit="10" d="M3328.739,2634.59
				h-236.22v360.831h236.22V2634.59z"/>
		</g>
	</g>
	<g transform="matrix(1, 0, 0, 1, -608.955322265625, -1129.89013671875)">
		<g>
			<path fill="#FFFF76" d="M3077.279,2634.59h-250.466v360.831h250.466V2634.59z"/>
		</g>
	</g>
	<g transform="matrix(1, 0, 0, 1, -608.955322265625, -1129.89013671875)">
		<g>
			<path fill="none" stroke="#434343" stroke-width="5" stroke-linecap="square" stroke-miterlimit="10" d="M3077.279,2634.59
				h-250.466v360.831h250.466V2634.59z"/>
		</g>
	</g>
	<g transform="matrix(1, 0, 0, 1, -608.955322265625, -1129.89013671875)">
		<g>
			<path fill="#5EA647" d="M2320.785,2619.624h163.23v97.155h-163.23V2619.624z"/>
		</g>
	</g>
	<g transform="matrix(1, 0, 0, 1, -608.955322265625, -1129.89013671875)">
		<g>
			<path fill="none" stroke="#434343" stroke-width="5" stroke-linecap="square" stroke-miterlimit="10" d="M2320.785,2619.624
				h163.23v97.155h-163.23V2619.624z"/>
		</g>
	</g>
	<g transform="matrix(1, 0, 0, 1, -608.955322265625, -1129.89013671875)">
		<g>
			<path fill="#5EA647" d="M2382.415,2725.571h101.6v103.505h-101.6V2725.571z"/>
		</g>
	</g>
	<g transform="matrix(1, 0, 0, 1, -608.955322265625, -1129.89013671875)">
		<g>
			<path fill="none" stroke="#434343" stroke-width="5" stroke-linecap="square" stroke-miterlimit="10" d="M2382.415,2725.571
				h101.6v103.505h-101.6V2725.571z"/>
		</g>
	</g>
	<g transform="matrix(1, 0, 0, 1, -608.955322265625, -1129.89013671875)">
		<g>
			<path fill="#5EA647" d="M2380.545,2888.719h103.47v101.614h-103.47V2888.719z"/>
		</g>
	</g>
	<g transform="matrix(1, 0, 0, 1, -608.955322265625, -1129.89013671875)">
		<g>
			<path fill="none" stroke="#434343" stroke-width="5" stroke-linecap="square" stroke-miterlimit="10" d="M2380.545,2888.719
				h103.47v101.614h-103.47V2888.719z"/>
		</g>
	</g>
	<g transform="matrix(1, 0, 0, 1, -608.955322265625, -1129.89013671875)">
		<g>
			<path fill="#808080" d="M2587.002,2887.058v-59.643v55.667V2887.058z"/>
		</g>
	</g>
	<g transform="matrix(1, 0, 0, 1, -608.955322265625, -1129.89013671875)">
		<g>
			<path fill="none" stroke="#434343" stroke-width="5" stroke-linecap="square" stroke-miterlimit="10" d="M2587.002,2887.058
				v-59.643v55.667V2887.058z"/>
		</g>
	</g>
	<g transform="matrix(1, 0, 0, 1, -608.955322265625, -1129.89013671875)">
		<g>
			<path fill="#5EA647" d="M2495.503,2618.472h182.88v370.2h-183.734L2495.503,2618.472z"/>
		</g>
	</g>
	<g transform="matrix(1, 0, 0, 1, -608.955322265625, -1129.89013671875)">
		<g>
			<path fill="none" stroke="#434343" stroke-width="5" stroke-linecap="square" stroke-miterlimit="10" d="M2495.503,2618.472
				h182.88v370.2h-183.734L2495.503,2618.472z"/>
		</g>
	</g>
	<g transform="matrix(1, 0, 0, 1, -608.955322265625, -1129.89013671875)">
		<g>
			<path fill="#FFFFCC" d="M3214.182,2694.908h112.395v299.085h-112.395V2694.908z"/>
		</g>
	</g>
	<g transform="matrix(1, 0, 0, 1, -608.955322265625, -1129.89013671875)">
		<g>
			<path fill="none" stroke="#434343" stroke-width="5" stroke-linecap="square" stroke-miterlimit="10" d="M3214.182,2694.908
				h112.395v299.085h-112.395V2694.908z"/>
		</g>
	</g>
	<g transform="matrix(1, 0, 0, 1, -608.955322265625, -1129.89013671875)">
		<g>
			<path fill="#FFFFCC" d="M3205.927,2694.479v299.514h-109.22v-299.514H3205.927z"/>
		</g>
	</g>
	<g transform="matrix(1, 0, 0, 1, -608.955322265625, -1129.89013671875)">
		<g>
			<path fill="none" stroke="#434343" stroke-width="5" stroke-linecap="square" stroke-miterlimit="10" d="M3205.927,2694.479
				v299.514h-109.22v-299.514H3205.927z"/>
		</g>
	</g>
	<g transform="matrix(1, 0, 0, 1, -608.955322265625, -1129.89013671875)">
		<g>
			<path fill="none" stroke="#434343" stroke-width="5" stroke-linecap="square" stroke-miterlimit="10" d="M3690.152,2606.875
				l-7.668,7.625l-7.446,1167.938l7.668-7.625L3690.152,2606.875z M3682.508,1130.64v793.75v575.731h-335.28v-402.59h-7.62v0.044
				H999.877v2.239L767.66,2502.026l1.395,0.805l0,0v1.1l-0.053,3.81l230.558,3.18v492.177h3.81v7.429h811.799v0.188h1531.62v-3.81
				h0.44v-392.43h335.256l7.669-7.62H3339.61v396.24H1815.17v-0.188h-807.989v-499.501l-3.81-0.052l0,0v-3.232H777.558
				l228.011-394.926h2334.04v398.736h3.81v3.81h346.71V1924.39v-786.13h1148.855v2636.49h-626.768v0.073h-529.51l-7.668,7.615
				l565.164,0.005l0,0l0,0l0,0l0,0h0.01v-0.073h602.582v-3.78h3.81V1134.45h-3.81v-3.81L3682.508,1130.64L3682.508,1130.64z"/>
		</g>
	</g>
	<g transform="matrix(1, 0, 0, 1, -608.955322265625, -1129.89013671875)">
		<g>
			<path fill="none" stroke="#434343" stroke-width="5" stroke-linecap="square" stroke-miterlimit="10" d="M3085.616,2487.669
				c0-62.515,50.679-113.194,113.195-113.194v113.194H3085.616z"/>
		</g>
	</g>
	<g transform="matrix(1, 0, 0, 1, -608.955322265625, -1129.89013671875)">
		<g>
			<path fill="#FFFFFF" d="M3205.755,2492.235h-127v-4.565h127V2492.235z"/>
		</g>
	</g>
	<g transform="matrix(1, 0, 0, 1, -608.955322265625, -1129.89013671875)">
		<g>
			<path fill="none" stroke="#434343" stroke-width="5" stroke-linecap="square" stroke-miterlimit="10" d="M3205.755,2492.235h-127
				v-4.565h127V2492.235z"/>
		</g>
	</g>
	<g transform="matrix(1, 0, 0, 1, -608.955322265625, -1129.89013671875)">
		<g>
			<path fill="none" stroke="#434343" stroke-width="5" stroke-linecap="square" stroke-miterlimit="10" d="M2711.397,2487.161
				c0-62.515,50.679-113.194,113.195-113.194v113.194H2711.397z"/>
		</g>
	</g>
	<g transform="matrix(1, 0, 0, 1, -608.955322265625, -1129.89013671875)">
		<g>
			<path fill="#FFFFFF" d="M2831.536,2491.726h-127v-4.565h127V2491.726z"/>
		</g>
	</g>
	<g transform="matrix(1, 0, 0, 1, -608.955322265625, -1129.89013671875)">
		<g>
			<path fill="none" stroke="#434343" stroke-width="5" stroke-linecap="square" stroke-miterlimit="10" d="M2831.536,2491.726h-127
				v-4.565h127V2491.726z"/>
		</g>
	</g>
	<g transform="matrix(1, 0, 0, 1, -608.955322265625, -1129.89013671875)">
		<g>
			<path fill="none" stroke="#434343" stroke-width="5" stroke-linecap="square" stroke-miterlimit="10" d="M2324.523,2488.075
				c0-62.515,50.679-113.194,113.195-113.194v113.194H2324.523z"/>
		</g>
	</g>
	<g transform="matrix(1, 0, 0, 1, -608.955322265625, -1129.89013671875)">
		<g>
			<path fill="#FFFFFF" d="M2444.662,2492.641h-127v-4.565h127V2492.641z"/>
		</g>
	</g>
	<g transform="matrix(1, 0, 0, 1, -608.955322265625, -1129.89013671875)">
		<g>
			<path fill="none" stroke="#434343" stroke-width="5" stroke-linecap="square" stroke-miterlimit="10" d="M2444.662,2492.641h-127
				v-4.565h127V2492.641z"/>
		</g>
	</g>
	<g transform="matrix(1, 0, 0, 1, -608.955322265625, -1129.89013671875)">
		<g>
			<path fill="none" stroke="#434343" stroke-width="5" stroke-linecap="square" stroke-miterlimit="10" d="M1978.158,2487.669
				c0-62.515,50.679-113.194,113.194-113.194v113.194H1978.158z"/>
		</g>
	</g>
	<g transform="matrix(1, 0, 0, 1, -608.955322265625, -1129.89013671875)">
		<g>
			<path fill="#FFFFFF" d="M2098.296,2492.235h-127v-4.565h127V2492.235z"/>
		</g>
	</g>
	<g transform="matrix(1, 0, 0, 1, -608.955322265625, -1129.89013671875)">
		<g>
			<path fill="none" stroke="#434343" stroke-width="5" stroke-linecap="square" stroke-miterlimit="10" d="M2098.296,2492.235h-127
				v-4.565h127V2492.235z"/>
		</g>
	</g>
	<g transform="matrix(1, 0, 0, 1, -608.955322265625, -1129.89013671875)">
		<g>
			<path fill="none" stroke="#434343" stroke-width="5" stroke-linecap="square" stroke-miterlimit="10" d="M1504.183,2487.669
				c0-62.515,50.679-113.194,113.194-113.194v113.194H1504.183z"/>
		</g>
	</g>
	<g transform="matrix(1, 0, 0, 1, -608.955322265625, -1129.89013671875)">
		<g>
			<path fill="#FFFFFF" d="M1624.322,2492.235h-127v-4.565h127V2492.235z"/>
		</g>
	</g>
	<g transform="matrix(1, 0, 0, 1, -608.955322265625, -1129.89013671875)">
		<g>
			<path fill="none" stroke="#434343" stroke-width="5" stroke-linecap="square" stroke-miterlimit="10" d="M1624.322,2492.235h-127
				v-4.565h127V2492.235z"/>
		</g>
	</g>
	<g transform="matrix(1, 0, 0, 1, -608.955322265625, -1129.89013671875)">
		<g>
			<path fill="none" stroke="#434343" stroke-width="5" stroke-linecap="square" stroke-miterlimit="10" d="M1125.915,2489.948
				c0-62.515,50.679-113.194,113.194-113.194v113.194H1125.915z"/>
		</g>
	</g>
	<g transform="matrix(1, 0, 0, 1, -608.955322265625, -1129.89013671875)">
		<g>
			<path fill="#FFFFFF" d="M1246.054,2494.513h-127v-4.565h127V2494.513z"/>
		</g>
	</g>
	<g transform="matrix(1, 0, 0, 1, -608.955322265625, -1129.89013671875)">
		<g>
			<path fill="none" stroke="#434343" stroke-width="5" stroke-linecap="square" stroke-miterlimit="10" d="M1246.054,2494.513h-127
				v-4.565h127V2494.513z"/>
		</g>
	</g>
	<g transform="matrix(1, 0, 0, 1, -608.955322265625, -1129.89013671875)">
		<g>
			<path fill="none" stroke="#434343" stroke-width="5" stroke-linecap="square" stroke-miterlimit="10" d="M1158.516,2620.137
				c0,62.515-50.679,113.194-113.194,113.194v-113.194H1158.516z"/>
		</g>
	</g>
	<g transform="matrix(1, 0, 0, 1, -608.955322265625, -1129.89013671875)">
		<g>
			<path fill="#FFFFFF" d="M1038.377,2615.572h127v4.565h-127V2615.572z"/>
		</g>
	</g>
	<g transform="matrix(1, 0, 0, 1, -608.955322265625, -1129.89013671875)">
		<g>
			<path fill="none" stroke="#434343" stroke-width="5" stroke-linecap="square" stroke-miterlimit="10" d="M1038.377,2615.572h127
				v4.565h-127V2615.572z"/>
		</g>
	</g>
	<g transform="matrix(1, 0, 0, 1, -608.955322265625, -1129.89013671875)">
		<g>
			<path fill="none" stroke="#434343" stroke-width="5" stroke-linecap="square" stroke-miterlimit="10" d="M2091.747,2620.776
				c0,62.515-50.679,113.194-113.194,113.194v-113.194H2091.747z"/>
		</g>
	</g>
	<g transform="matrix(1, 0, 0, 1, -608.955322265625, -1129.89013671875)">
		<g>
			<path fill="#FFFFFF" d="M1971.608,2616.21h127v4.565h-127L1971.608,2616.21L1971.608,2616.21z"/>
		</g>
	</g>
	<g transform="matrix(1, 0, 0, 1, -608.955322265625, -1129.89013671875)">
		<g>
			<path fill="none" stroke="#434343" stroke-width="5" stroke-linecap="square" stroke-miterlimit="10" d="M1971.608,2616.21h127
				v4.565h-127L1971.608,2616.21L1971.608,2616.21z"/>
		</g>
	</g>
	<g transform="matrix(1, 0, 0, 1, -608.955322265625, -1129.89013671875)">
		<g>
			<path fill="none" stroke="#434343" stroke-width="5" stroke-linecap="square" stroke-miterlimit="10" d="M3866.059,3030.665
				c0,62.515-50.679,113.194-113.195,113.194v-113.194H3866.059z"/>
		</g>
	</g>
	<g transform="matrix(1, 0, 0, 1, -608.955322265625, -1129.89013671875)">
		<g>
			<path fill="#FFFFFF" d="M3745.92,3026.099h127v4.565h-127V3026.099z"/>
		</g>
	</g>
	<g transform="matrix(1, 0, 0, 1, -608.955322265625, -1129.89013671875)">
		<g>
			<path fill="none" stroke="#434343" stroke-width="5" stroke-linecap="square" stroke-miterlimit="10" d="M3745.92,3026.099h127
				v4.565h-127V3026.099z"/>
		</g>
	</g>
	<g transform="matrix(1, 0, 0, 1, -608.955322265625, -1129.89013671875)">
		<g>
			<path fill="none" stroke="#434343" stroke-width="5" stroke-linecap="square" stroke-miterlimit="10" d="M4334.732,3328.752
				c62.516,0,113.194,50.679,113.194,113.195h-113.194V3328.752z"/>
		</g>
	</g>
	<g transform="matrix(1, 0, 0, 1, -608.955322265625, -1129.89013671875)">
		<g>
			<path fill="#FFFFFF" d="M4330.167,3448.891v-127h4.565v127H4330.167z"/>
		</g>
	</g>
	<g transform="matrix(1, 0, 0, 1, -608.955322265625, -1129.89013671875)">
		<g>
			<path fill="none" stroke="#434343" stroke-width="5" stroke-linecap="square" stroke-miterlimit="10" d="M4330.167,3448.891v-127
				h4.565v127H4330.167z"/>
		</g>
	</g>
	<g transform="matrix(1, 0, 0, 1, -608.955322265625, -1129.89013671875)">
		<g>
			<path fill="none" stroke="#434343" stroke-width="5" stroke-linecap="square" stroke-miterlimit="10" d="M4333.138,2854.438
				c62.516,0,113.194,50.679,113.194,113.195h-113.194V2854.438z"/>
		</g>
	</g>
	<g transform="matrix(1, 0, 0, 1, -608.955322265625, -1129.89013671875)">
		<g>
			<path fill="#FFFFFF" d="M4328.573,2974.577v-127h4.565v127H4328.573z"/>
		</g>
	</g>
	<g transform="matrix(1, 0, 0, 1, -608.955322265625, -1129.89013671875)">
		<g>
			<path fill="none" stroke="#434343" stroke-width="5" stroke-linecap="square" stroke-miterlimit="10" d="M4328.573,2974.577v-127
				h4.565v127H4328.573z"/>
		</g>
	</g>
	<g transform="matrix(1, 0, 0, 1, -608.955322265625, -1129.89013671875)">
		<g>
			<path fill="none" stroke="#434343" stroke-width="5" stroke-linecap="square" stroke-miterlimit="10" d="M4333.205,2661.668
				c62.516,0,113.194,50.679,113.194,113.195h-113.194V2661.668z"/>
		</g>
	</g>
	<g transform="matrix(1, 0, 0, 1, -608.955322265625, -1129.89013671875)">
		<g>
			<path fill="#FFFFFF" d="M4328.64,2781.807v-127h4.565v127H4328.64z"/>
		</g>
	</g>
	<g transform="matrix(1, 0, 0, 1, -608.955322265625, -1129.89013671875)">
		<g>
			<path fill="none" stroke="#434343" stroke-width="5" stroke-linecap="square" stroke-miterlimit="10" d="M4328.64,2781.807v-127
				h4.565v127H4328.64z"/>
		</g>
	</g>
	<g transform="matrix(1, 0, 0, 1, -608.955322265625, -1129.89013671875)">
		<g>
			<path fill="none" stroke="#434343" stroke-width="5" stroke-linecap="square" stroke-miterlimit="10" d="M4333.272,2496.477
				c62.516,0,113.194,50.679,113.194,113.195h-113.194V2496.477z"/>
		</g>
	</g>
	<g transform="matrix(1, 0, 0, 1, -608.955322265625, -1129.89013671875)">
		<g>
			<path fill="#FFFFFF" d="M4328.707,2616.616v-127h4.565v127H4328.707z"/>
		</g>
	</g>
	<g transform="matrix(1, 0, 0, 1, -608.955322265625, -1129.89013671875)">
		<g>
			<path fill="none" stroke="#434343" stroke-width="5" stroke-linecap="square" stroke-miterlimit="10" d="M4328.707,2616.616v-127
				h4.565v127H4328.707z"/>
		</g>
	</g>
	<g transform="matrix(1, 0, 0, 1, -608.955322265625, -1129.89013671875)">
		<g>
			<path fill="none" stroke="#434343" stroke-width="5" stroke-linecap="square" stroke-miterlimit="10" d="M4331.477,1588.744
				c62.516,0,113.194,50.679,113.194,113.194h-113.194V1588.744z"/>
		</g>
	</g>
	<g transform="matrix(1, 0, 0, 1, -608.955322265625, -1129.89013671875)">
		<g>
			<path fill="#FFFFFF" d="M4326.912,1708.883v-127h4.565v127H4326.912z"/>
		</g>
	</g>
	<g transform="matrix(1, 0, 0, 1, -608.955322265625, -1129.89013671875)">
		<g>
			<path fill="none" stroke="#434343" stroke-width="5" stroke-linecap="square" stroke-miterlimit="10" d="M4326.912,1708.883v-127
				h4.565v127H4326.912z"/>
		</g>
	</g>
	<g transform="matrix(1, 0, 0, 1, -608.955322265625, -1129.89013671875)">
		<g>
			<path fill="none" stroke="#434343" stroke-width="5" stroke-linecap="square" stroke-miterlimit="10" d="M4331.478,2053.258
				c62.516,0,113.194,50.679,113.194,113.195h-113.194V2053.258z"/>
		</g>
	</g>
	<g transform="matrix(1, 0, 0, 1, -608.955322265625, -1129.89013671875)">
		<g>
			<path fill="#FFFFFF" d="M4326.912,2173.397v-127h4.565v127H4326.912z"/>
		</g>
	</g>
	<g transform="matrix(1, 0, 0, 1, -608.955322265625, -1129.89013671875)">
		<g>
			<path fill="none" stroke="#434343" stroke-width="5" stroke-linecap="square" stroke-miterlimit="10" d="M4326.912,2173.397v-127
				h4.565v127H4326.912z"/>
		</g>
	</g>
	<g transform="matrix(1, 0, 0, 1, -608.955322265625, -1129.89013671875)">
		<g>
			<path fill="none" stroke="#434343" stroke-width="5" stroke-linecap="square" stroke-miterlimit="10" d="M4331.41,2305.676
				c62.516,0,113.194,50.679,113.194,113.195H4331.41V2305.676z"/>
		</g>
	</g>
	<g transform="matrix(1, 0, 0, 1, -608.955322265625, -1129.89013671875)">
		<g>
			<path fill="#FFFFFF" d="M4326.845,2425.814v-127h4.565v127H4326.845z"/>
		</g>
	</g>
	<g transform="matrix(1, 0, 0, 1, -608.955322265625, -1129.89013671875)">
		<g>
			<path fill="none" stroke="#434343" stroke-width="5" stroke-linecap="square" stroke-miterlimit="10" d="M4326.845,2425.814v-127
				h4.565v127H4326.845z"/>
		</g>
	</g>
	<g transform="matrix(1, 0, 0, 1, -608.955322265625, -1129.89013671875)">
		<g>
			<path fill="none" stroke="#434343" stroke-width="5" stroke-linecap="square" stroke-miterlimit="10" d="M4331.544,1330.755
				c62.516,0,113.194,50.679,113.194,113.194h-113.194V1330.755z"/>
		</g>
	</g>
	<g transform="matrix(1, 0, 0, 1, -608.955322265625, -1129.89013671875)">
		<g>
			<path fill="#FFFFFF" d="M4326.979,1450.894v-127h4.565v127H4326.979z"/>
		</g>
	</g>
	<g transform="matrix(1, 0, 0, 1, -608.955322265625, -1129.89013671875)">
		<g>
			<path fill="none" stroke="#434343" stroke-width="5" stroke-linecap="square" stroke-miterlimit="10" d="M4326.979,1450.894v-127
				h4.565v127H4326.979z"/>
		</g>
	</g>
	<g transform="matrix(1, 0, 0, 1, -608.955322265625, -1129.89013671875)">
		<g>
			<path fill="none" stroke="#434343" stroke-width="5" stroke-linecap="square" stroke-miterlimit="10" d="M4190.623,1442.439
				c-62.516,0-113.194-50.679-113.194-113.194h113.194V1442.439z"/>
		</g>
	</g>
	<g transform="matrix(1, 0, 0, 1, -608.955322265625, -1129.89013671875)">
		<g>
			<path fill="#FFFFFF" d="M4195.188,1322.3v127h-4.565v-127H4195.188z"/>
		</g>
	</g>
	<g transform="matrix(1, 0, 0, 1, -608.955322265625, -1129.89013671875)">
		<g>
			<path fill="none" stroke="#434343" stroke-width="5" stroke-linecap="square" stroke-miterlimit="10" d="M4195.188,1322.3v127
				h-4.565v-127H4195.188z"/>
		</g>
	</g>
	<g transform="matrix(1, 0, 0, 1, -608.955322265625, -1129.89013671875)">
		<g>
			<path fill="none" stroke="#434343" stroke-width="5" stroke-linecap="square" stroke-miterlimit="10" d="M4192.351,1703.296
				c-62.516,0-113.194-50.679-113.194-113.194h113.194V1703.296z"/>
		</g>
	</g>
	<g transform="matrix(1, 0, 0, 1, -608.955322265625, -1129.89013671875)">
		<g>
			<path fill="#FFFFFF" d="M4196.916,1583.157v127h-4.565v-127H4196.916z"/>
		</g>
	</g>
	<g transform="matrix(1, 0, 0, 1, -608.955322265625, -1129.89013671875)">
		<g>
			<path fill="none" stroke="#434343" stroke-width="5" stroke-linecap="square" stroke-miterlimit="10" d="M4196.916,1583.157v127
				h-4.565v-127H4196.916z"/>
		</g>
	</g>
	<g transform="matrix(1, 0, 0, 1, -608.955322265625, -1129.89013671875)">
		<g>
			<path fill="none" stroke="#434343" stroke-width="5" stroke-linecap="square" stroke-miterlimit="10" d="M4194.079,1935.914
				c-62.516,0-113.194-50.679-113.194-113.194h113.194V1935.914z"/>
		</g>
	</g>
	<g transform="matrix(1, 0, 0, 1, -608.955322265625, -1129.89013671875)">
		<g>
			<path fill="#FFFFFF" d="M4198.644,1815.775v127h-4.565v-127H4198.644z"/>
		</g>
	</g>
	<g transform="matrix(1, 0, 0, 1, -608.955322265625, -1129.89013671875)">
		<g>
			<path fill="none" stroke="#434343" stroke-width="5" stroke-linecap="square" stroke-miterlimit="10" d="M4198.644,1815.775v127
				h-4.565v-127H4198.644z"/>
		</g>
	</g>
	<g transform="matrix(1, 0, 0, 1, -608.955322265625, -1129.89013671875)">
		<g>
			<path fill="none" stroke="#434343" stroke-width="5" stroke-linecap="square" stroke-miterlimit="10" d="M4192.418,2175.11
				c-62.516,0-113.194-50.679-113.194-113.195h113.194V2175.11z"/>
		</g>
	</g>
	<g transform="matrix(1, 0, 0, 1, -608.955322265625, -1129.89013671875)">
		<g>
			<path fill="#FFFFFF" d="M4196.983,2054.971v127h-4.565v-127H4196.983z"/>
		</g>
	</g>
	<g transform="matrix(1, 0, 0, 1, -608.955322265625, -1129.89013671875)">
		<g>
			<path fill="none" stroke="#434343" stroke-width="5" stroke-linecap="square" stroke-miterlimit="10" d="M4196.983,2054.971v127
				h-4.565v-127H4196.983z"/>
		</g>
	</g>
	<g transform="matrix(1, 0, 0, 1, -608.955322265625, -1129.89013671875)">
		<g>
			<path fill="none" stroke="#434343" stroke-width="5" stroke-linecap="square" stroke-miterlimit="10" d="M4194.146,2407.728
				c-62.516,0-113.194-50.679-113.194-113.195h113.194V2407.728z"/>
		</g>
	</g>
	<g transform="matrix(1, 0, 0, 1, -608.955322265625, -1129.89013671875)">
		<g>
			<path fill="#FFFFFF" d="M4198.711,2287.589v127h-4.565v-127H4198.711z"/>
		</g>
	</g>
	<g transform="matrix(1, 0, 0, 1, -608.955322265625, -1129.89013671875)">
		<g>
			<path fill="none" stroke="#434343" stroke-width="5" stroke-linecap="square" stroke-miterlimit="10" d="M4198.711,2287.589v127
				h-4.565v-127H4198.711z"/>
		</g>
	</g>
	<g transform="matrix(1, 0, 0, 1, -608.955322265625, -1129.89013671875)">
		<g>
			<path fill="none" stroke="#434343" stroke-width="5" stroke-linecap="square" stroke-miterlimit="10" d="M2644.954,2620.843
				c0,62.515-50.679,113.194-113.195,113.194v-113.194H2644.954z"/>
		</g>
	</g>
	<g transform="matrix(1, 0, 0, 1, -608.955322265625, -1129.89013671875)">
		<g>
			<path fill="#FFFFFF" d="M2524.815,2616.277h127v4.565h-127V2616.277z"/>
		</g>
	</g>
	<g transform="matrix(1, 0, 0, 1, -608.955322265625, -1129.89013671875)">
		<g>
			<path fill="none" stroke="#434343" stroke-width="5" stroke-linecap="square" stroke-miterlimit="10" d="M2524.815,2616.277h127
				v4.565h-127V2616.277z"/>
		</g>
	</g>
	<g transform="matrix(1, 0, 0, 1, -608.955322265625, -1129.89013671875)">
		<g>
			<path fill="none" stroke="#434343" stroke-width="5" stroke-linecap="square" stroke-miterlimit="10" d="M3004.139,2636.522
				c0,62.515-50.679,113.194-113.195,113.194v-113.194H3004.139z"/>
		</g>
	</g>
	<g transform="matrix(1, 0, 0, 1, -608.955322265625, -1129.89013671875)">
		<g>
			<path fill="#FFFFFF" d="M2884,2631.957h127v4.565h-127V2631.957z"/>
		</g>
	</g>
	<g transform="matrix(1, 0, 0, 1, -608.955322265625, -1129.89013671875)">
		<g>
			<path fill="none" stroke="#434343" stroke-width="5" stroke-linecap="square" stroke-miterlimit="10" d="M2884,2631.957h127
				v4.565h-127V2631.957z"/>
		</g>
	</g>
	<g transform="matrix(1, 0, 0, 1, -608.955322265625, -1129.89013671875)">
		<g>
			<path fill="none" stroke="#434343" stroke-width="5" stroke-linecap="square" stroke-miterlimit="10" d="M3153.379,2635.131
				c0-62.515,50.679-113.194,113.195-113.194v113.194H3153.379z"/>
		</g>
	</g>
	<g transform="matrix(1, 0, 0, 1, -608.955322265625, -1129.89013671875)">
		<g>
			<path fill="#FFFFFF" d="M3273.518,2639.697h-127v-4.565h127V2639.697z"/>
		</g>
	</g>
	<g transform="matrix(1, 0, 0, 1, -608.955322265625, -1129.89013671875)">
		<g>
			<path fill="none" stroke="#434343" stroke-width="5" stroke-linecap="square" stroke-miterlimit="10" d="M3273.518,2639.697h-127
				v-4.565h127V2639.697z"/>
		</g>
	</g>
	<g transform="matrix(1, 0, 0, 1, -608.955322265625, -1129.89013671875)">
		<g>
			<path fill="none" stroke="#434343" stroke-width="5" stroke-linecap="square" stroke-miterlimit="10" d="M3305.583,2695.937
				c0,22.506-18.244,40.75-40.75,40.75v-40.75H3305.583z"/>
		</g>
	</g>
	<g transform="matrix(1, 0, 0, 1, -608.955322265625, -1129.89013671875)">
		<g>
			<path fill="#FFFFFF" d="M3262.333,2693.328h45.72v2.609h-45.72V2693.328z"/>
		</g>
	</g>
	<g transform="matrix(1, 0, 0, 1, -608.955322265625, -1129.89013671875)">
		<g>
			<path fill="none" stroke="#434343" stroke-width="5" stroke-linecap="square" stroke-miterlimit="10" d="M3262.333,2693.328
				h45.72v2.609h-45.72V2693.328z"/>
		</g>
	</g>
	<g transform="matrix(1, 0, 0, 1, -608.955322265625, -1129.89013671875)">
		<g>
			<path fill="none" stroke="#434343" stroke-width="5" stroke-linecap="square" stroke-miterlimit="10" d="M3177.923,2695.802
				c0,22.506-18.244,40.75-40.75,40.75v-40.75H3177.923z"/>
		</g>
	</g>
	<g transform="matrix(1, 0, 0, 1, -608.955322265625, -1129.89013671875)">
		<g>
			<path fill="#FFFFFF" d="M3134.673,2693.193h45.72v2.609h-45.72V2693.193z"/>
		</g>
	</g>
	<g transform="matrix(1, 0, 0, 1, -608.955322265625, -1129.89013671875)">
		<g>
			<path fill="none" stroke="#434343" stroke-width="5" stroke-linecap="square" stroke-miterlimit="10" d="M3134.673,2693.193
				h45.72v2.609h-45.72V2693.193z"/>
		</g>
	</g>
	<g transform="matrix(1, 0, 0, 1, -608.955322265625, -1129.89013671875)">
		<g>
			<path fill="none" stroke="#434343" stroke-width="5" stroke-linecap="square" stroke-miterlimit="10" d="M4334.27,3493.003
				c62.516,0,113.194,50.679,113.194,113.195H4334.27V3493.003z"/>
		</g>
	</g>
	<g transform="matrix(1, 0, 0, 1, -608.955322265625, -1129.89013671875)">
		<g>
			<path fill="#FFFFFF" d="M4329.704,3613.142v-127h4.565v127H4329.704z"/>
		</g>
	</g>
	<g transform="matrix(1, 0, 0, 1, -608.955322265625, -1129.89013671875)">
		<g>
			<path fill="none" stroke="#434343" stroke-width="5" stroke-linecap="square" stroke-miterlimit="10" d="M4329.704,3613.142v-127
				h4.565v127H4329.704z"/>
		</g>
	</g>
	<g transform="matrix(1, 0, 0, 1, -608.955322265625, -1129.89013671875)">
		<g>
			<path fill="none" stroke="#434343" stroke-width="5" stroke-linecap="square" stroke-miterlimit="10" d="M4334.77,3642.622
				c62.516,0,113.194,50.679,113.194,113.195H4334.77V3642.622z"/>
		</g>
	</g>
	<g transform="matrix(1, 0, 0, 1, -608.955322265625, -1129.89013671875)">
		<g>
			<path fill="#FFFFFF" d="M4330.204,3762.761v-127h4.565v127H4330.204z"/>
		</g>
	</g>
	<g transform="matrix(1, 0, 0, 1, -608.955322265625, -1129.89013671875)">
		<g>
			<path fill="none" stroke="#434343" stroke-width="5" stroke-linecap="square" stroke-miterlimit="10" d="M4330.204,3762.761v-127
				h4.565v127H4330.204z"/>
		</g>
	</g>
	<g transform="matrix(1, 0, 0, 1, -608.955322265625, -1129.89013671875)">
		<g>
			<path fill="none" stroke="#434343" stroke-width="5" stroke-linecap="square" stroke-miterlimit="10" d="M4192.645,3462.031
				c-62.516,0-113.194-50.679-113.194-113.195h113.194V3462.031z"/>
		</g>
	</g>
	<g transform="matrix(1, 0, 0, 1, -608.955322265625, -1129.89013671875)">
		<g>
			<path fill="#FFFFFF" d="M4197.21,3341.892v127h-4.565v-127H4197.21z"/>
		</g>
	</g>
	<g transform="matrix(1, 0, 0, 1, -608.955322265625, -1129.89013671875)">
		<g>
			<path fill="none" stroke="#434343" stroke-width="5" stroke-linecap="square" stroke-miterlimit="10" d="M4197.21,3341.892v127
				h-4.565v-127H4197.21z"/>
		</g>
	</g>
	<g transform="matrix(1, 0, 0, 1, -608.955322265625, -1129.89013671875)">
		<g>
			<path fill="none" stroke="#434343" stroke-width="5" stroke-linecap="square" stroke-miterlimit="10" d="M4193.274,3754.107
				c-62.516,0-113.194-50.679-113.194-113.195h113.194V3754.107z"/>
		</g>
	</g>
	<g transform="matrix(1, 0, 0, 1, -608.955322265625, -1129.89013671875)">
		<g>
			<path fill="#FFFFFF" d="M4197.84,3633.968v127h-4.565v-127H4197.84z"/>
		</g>
	</g>
	<g transform="matrix(1, 0, 0, 1, -608.955322265625, -1129.89013671875)">
		<g>
			<path fill="none" stroke="#434343" stroke-width="5" stroke-linecap="square" stroke-miterlimit="10" d="M4197.84,3633.968v127
				h-4.565v-127H4197.84z"/>
		</g>
	</g>
	<g transform="matrix(1, 0, 0, 1, -608.955322265625, -1129.89013671875)">
		<g>
			<path fill="none" stroke="#434343" stroke-width="5" stroke-linecap="square" stroke-miterlimit="10" d="M4330.847,1818.185
				c62.516,0,113.194,50.679,113.194,113.194h-113.194V1818.185z"/>
		</g>
	</g>
	<g transform="matrix(1, 0, 0, 1, -608.955322265625, -1129.89013671875)">
		<g>
			<path fill="#FFFFFF" d="M4326.281,1938.324v-127h4.565v127H4326.281z"/>
		</g>
	</g>
	<g transform="matrix(1, 0, 0, 1, -608.955322265625, -1129.89013671875)">
		<g>
			<path fill="none" stroke="#434343" stroke-width="5" stroke-linecap="square" stroke-miterlimit="10" d="M4326.281,1938.324v-127
				h4.565v127H4326.281z"/>
		</g>
	</g>
	<g transform="matrix(1, 0, 0, 1, -608.955322265625, -1129.89013671875)">
		<g>
			<path fill="none" stroke="#434343" stroke-width="5" stroke-linecap="square" stroke-miterlimit="10" d="M4333.39,3018.842
				c62.516,0,113.194,50.679,113.194,113.195H4333.39V3018.842z"/>
		</g>
	</g>
	<g transform="matrix(1, 0, 0, 1, -608.955322265625, -1129.89013671875)">
		<g>
			<path fill="#FFFFFF" d="M4328.824,3138.981v-127h4.565v127H4328.824z"/>
		</g>
	</g>
	<g transform="matrix(1, 0, 0, 1, -608.955322265625, -1129.89013671875)">
		<g>
			<path fill="none" stroke="#434343" stroke-width="5" stroke-linecap="square" stroke-miterlimit="10" d="M4328.824,3138.981v-127
				h4.565v127H4328.824z"/>
		</g>
	</g>
	<g transform="matrix(1, 0, 0, 1, -608.955322265625, -1129.89013671875)">
		<g>
			<path fill="none" stroke="#434343" stroke-width="5" stroke-linecap="square" stroke-miterlimit="10" d="M4334.27,3160.662
				c62.516,0,113.194,50.679,113.194,113.195H4334.27V3160.662z"/>
		</g>
	</g>
	<g transform="matrix(1, 0, 0, 1, -608.955322265625, -1129.89013671875)">
		<g>
			<path fill="#FFFFFF" d="M4329.704,3280.801v-127h4.565v127H4329.704z"/>
		</g>
	</g>
	<g transform="matrix(1, 0, 0, 1, -608.955322265625, -1129.89013671875)">
		<g>
			<path fill="none" stroke="#434343" stroke-width="5" stroke-linecap="square" stroke-miterlimit="10" d="M4329.704,3280.801v-127
				h4.565v127H4329.704z"/>
		</g>
	</g>
</g>
</svg>
