<?xml version="1.0" encoding="utf-8"?>
<!-- Generator: Adobe Illustrator 17.0.0, SVG Export Plug-In . SVG Version: 6.00 Build 0)  -->
<!DOCTYPE svg PUBLIC "-//W3C//DTD SVG 1.1//EN" "http://www.w3.org/Graphics/SVG/1.1/DTD/svg11.dtd">
<svg version="1.1" id="Layer_1" xmlns:ev="http://www.w3.org/2001/xml-events"
	 xmlns="http://www.w3.org/2000/svg" xmlns:xlink="http://www.w3.org/1999/xlink" x="0px" y="0px" width="2753px" height="3298px"
	 viewBox="0 0 2753 3298" enable-background="new 0 0 2753 3298" xml:space="preserve">
<title>/Volumes/Macintosh HD/Developer/KPImaps/Maps/05/SweetHome3d_1.sh3d</title>
<desc>
	Creator: FreeHEP Graphics2D Driver Producer: com.eteks.sweethome3d.swing.PlanComponent$SVGSupport$1 Revision: 12753  Source: alexeybodnya Date: Saturday, October 25, 2014 8:37:38 PM EEST
	</desc>
<g>
	<g transform="matrix(1, 0, 0, 1, 161.25, 23.190778732299805)">
		<g>
			<path fill="#FFFF76" d="M248.699,592.849h378.165V214.377h-384.81L23.543,592.849H248.699z"/>
		</g>
	</g>
	<g transform="matrix(1, 0, 0, 1, 161.25, 23.190778732299805)">
		<g>
			<path fill="none" stroke="#434343" stroke-width="5" stroke-linecap="square" stroke-miterlimit="10" d="M248.699,592.849
				h378.165V214.377h-384.81L23.543,592.849H248.699z"/>
		</g>
	</g>
	<g transform="matrix(1, 0, 0, 1, 161.25, 23.190778732299805)">
		<g>
			<path fill="#FFFF76" d="M1451.094,214.377v377.19h-812.8v-377.19L1451.094,214.377L1451.094,214.377z"/>
		</g>
	</g>
	<g transform="matrix(1, 0, 0, 1, 161.25, 23.190778732299805)">
		<g>
			<path fill="none" stroke="#434343" stroke-width="5" stroke-linecap="square" stroke-miterlimit="10" d="M1451.094,214.377
				v377.19h-812.8v-377.19L1451.094,214.377L1451.094,214.377z"/>
		</g>
	</g>
	<g transform="matrix(1, 0, 0, 1, 161.25, 23.190778732299805)">
		<g>
			<path fill="#5EA647" d="M1462.524,591.567h304.8v-377.19h-304.8L1462.524,591.567L1462.524,591.567z"/>
		</g>
	</g>
	<g transform="matrix(1, 0, 0, 1, 161.25, 23.190778732299805)">
		<g>
			<path fill="none" stroke="#434343" stroke-width="5" stroke-linecap="square" stroke-miterlimit="10" d="M1462.524,591.567h304.8
				v-377.19h-304.8L1462.524,591.567L1462.524,591.567z"/>
		</g>
	</g>
	<g transform="matrix(1, 0, 0, 1, 161.25, 23.190778732299805)">
		<g>
			<path fill="#FFFF76" d="M2166.37,591.567h-383.54v-377.19h383.54V591.567z"/>
		</g>
	</g>
	<g transform="matrix(1, 0, 0, 1, 161.25, 23.190778732299805)">
		<g>
			<path fill="none" stroke="#434343" stroke-width="5" stroke-linecap="square" stroke-miterlimit="10" d="M2166.37,591.567
				h-383.54v-377.19h383.54V591.567z"/>
		</g>
	</g>
	<g transform="matrix(1, 0, 0, 1, 161.25, 23.190778732299805)">
		<g>
			<path fill="#FFFF76" d="M2181.344,591.567h377.19v-377.19h-377.19V591.567z"/>
		</g>
	</g>
	<g transform="matrix(1, 0, 0, 1, 161.25, 23.190778732299805)">
		<g>
			<path fill="none" stroke="#434343" stroke-width="5" stroke-linecap="square" stroke-miterlimit="10" d="M2181.344,591.567
				h377.19v-377.19h-377.19V591.567z"/>
		</g>
	</g>
	<g transform="matrix(1, 0, 0, 1, 161.25, 23.190778732299805)">
		<g>
			<path fill="#FFFF76" d="M244.594,719.547h201.93v370.731h-201.93V719.547z"/>
		</g>
	</g>
	<g transform="matrix(1, 0, 0, 1, 161.25, 23.190778732299805)">
		<g>
			<path fill="none" stroke="#434343" stroke-width="5" stroke-linecap="square" stroke-miterlimit="10" d="M244.594,719.547h201.93
				v370.731h-201.93V719.547z"/>
		</g>
	</g>
	<g transform="matrix(1, 0, 0, 1, 161.25, 23.190778732299805)">
		<g>
			<path fill="#5EA647" d="M477.004,790.764h134.62v269.24h-134.62L477.004,790.764L477.004,790.764z"/>
		</g>
	</g>
	<g transform="matrix(1, 0, 0, 1, 161.25, 23.190778732299805)">
		<g>
			<path fill="none" stroke="#434343" stroke-width="5" stroke-linecap="square" stroke-miterlimit="10" d="M477.004,790.764h134.62
				v269.24h-134.62L477.004,790.764L477.004,790.764z"/>
		</g>
	</g>
	<g transform="matrix(1, 0, 0, 1, 161.25, 23.190778732299805)">
		<g>
			<path fill="#5EA647" d="M638.041,1276.463h194.31v368.3h-194.31V1276.463z"/>
		</g>
	</g>
	<g transform="matrix(1, 0, 0, 1, 161.25, 23.190778732299805)">
		<g>
			<path fill="none" stroke="#434343" stroke-width="5" stroke-linecap="square" stroke-miterlimit="10" d="M638.041,1276.463
				h194.31v368.3h-194.31V1276.463z"/>
		</g>
	</g>
	<g transform="matrix(1, 0, 0, 1, 161.25, 23.190778732299805)">
		<g>
			<path fill="#FFFFCC" d="M958.934,719.547h497.24v370.731h-497.24L958.934,719.547L958.934,719.547z"/>
		</g>
	</g>
	<g transform="matrix(1, 0, 0, 1, 161.25, 23.190778732299805)">
		<g>
			<path fill="none" stroke="#434343" stroke-width="5" stroke-linecap="square" stroke-miterlimit="10" d="M958.934,719.547h497.24
				v370.731h-497.24L958.934,719.547L958.934,719.547z"/>
		</g>
	</g>
	<g transform="matrix(1, 0, 0, 1, 161.25, 23.190778732299805)">
		<g>
			<path fill="#5EA647" d="M1921.238,791.438h117.617v268.566h-117.617V791.438z"/>
		</g>
	</g>
	<g transform="matrix(1, 0, 0, 1, 161.25, 23.190778732299805)">
		<g>
			<path fill="none" stroke="#434343" stroke-width="5" stroke-linecap="square" stroke-miterlimit="10" d="M1921.238,791.438
				h117.617v268.566h-117.617V791.438z"/>
		</g>
	</g>
	<g transform="matrix(1, 0, 0, 1, 161.25, 23.190778732299805)">
		<g>
			<path fill="#FFFFCC" d="M2558.534,736.197h-243.84v360.831h243.84V736.197z"/>
		</g>
	</g>
	<g transform="matrix(1, 0, 0, 1, 161.25, 23.190778732299805)">
		<g>
			<path fill="none" stroke="#434343" stroke-width="5" stroke-linecap="square" stroke-miterlimit="10" d="M2558.534,736.197
				h-243.84v360.831h243.84V736.197z"/>
		</g>
	</g>
	<g transform="matrix(1, 0, 0, 1, 161.25, 23.190778732299805)">
		<g>
			<path fill="#FFFFCC" d="M2314.694,736.197h-258.086v360.831h258.086V736.197z"/>
		</g>
	</g>
	<g transform="matrix(1, 0, 0, 1, 161.25, 23.190778732299805)">
		<g>
			<path fill="none" stroke="#434343" stroke-width="5" stroke-linecap="square" stroke-miterlimit="10" d="M2314.694,736.197
				h-258.086v360.831h258.086V736.197z"/>
		</g>
	</g>
	<g transform="matrix(1, 0, 0, 1, 161.25, 23.190778732299805)">
		<g>
			<path fill="#FFFF76" d="M2431.534,790.764v299.514h-109.22V790.764H2431.534z"/>
		</g>
	</g>
	<g transform="matrix(1, 0, 0, 1, 161.25, 23.190778732299805)">
		<g>
			<path fill="none" stroke="#434343" stroke-width="5" stroke-linecap="square" stroke-miterlimit="10" d="M2431.534,790.764
				v299.514h-109.22V790.764H2431.534z"/>
		</g>
	</g>
	<g transform="matrix(1, 0, 0, 1, 161.25, 23.190778732299805)">
		<g>
			<path fill="#FFFF76" d="M2439.789,791.193h112.395v299.085h-112.395V791.193z"/>
		</g>
	</g>
	<g transform="matrix(1, 0, 0, 1, 161.25, 23.190778732299805)">
		<g>
			<path fill="none" stroke="#434343" stroke-width="5" stroke-linecap="square" stroke-miterlimit="10" d="M2439.789,791.193
				h112.395v299.085h-112.395V791.193z"/>
		</g>
	</g>
	<g transform="matrix(1, 0, 0, 1, 161.25, 23.190778732299805)">
		<g>
			<path fill="#FFFFCC" d="M2201.744,790.764h105.33v299.514h-105.33V790.764z"/>
		</g>
	</g>
	<g transform="matrix(1, 0, 0, 1, 161.25, 23.190778732299805)">
		<g>
			<path fill="none" stroke="#434343" stroke-width="5" stroke-linecap="square" stroke-miterlimit="10" d="M2201.744,790.764
				h105.33v299.514h-105.33V790.764z"/>
		</g>
	</g>
	<g transform="matrix(1, 0, 0, 1, 161.25, 23.190778732299805)">
		<g>
			<path fill="#FFFF76" d="M2062.679,790.764h133.35v299.514h-133.35V790.764z"/>
		</g>
	</g>
	<g transform="matrix(1, 0, 0, 1, 161.25, 23.190778732299805)">
		<g>
			<path fill="none" stroke="#434343" stroke-width="5" stroke-linecap="square" stroke-miterlimit="10" d="M2062.679,790.764
				h133.35v299.514h-133.35V790.764z"/>
		</g>
	</g>
	<g transform="matrix(1, 0, 0, 1, 161.25, 23.190778732299805)">
		<g>
			<path fill="#5EA647" d="M1653.567,719.569h163.23v97.155h-163.23V719.569z"/>
		</g>
	</g>
	<g transform="matrix(1, 0, 0, 1, 161.25, 23.190778732299805)">
		<g>
			<path fill="none" stroke="#434343" stroke-width="5" stroke-linecap="square" stroke-miterlimit="10" d="M1653.567,719.569
				h163.23v97.155h-163.23V719.569z"/>
		</g>
	</g>
	<g transform="matrix(1, 0, 0, 1, 161.25, 23.190778732299805)">
		<g>
			<path fill="#5EA647" d="M1715.197,825.516h101.6v103.505h-101.6V825.516z"/>
		</g>
	</g>
	<g transform="matrix(1, 0, 0, 1, 161.25, 23.190778732299805)">
		<g>
			<path fill="none" stroke="#434343" stroke-width="5" stroke-linecap="square" stroke-miterlimit="10" d="M1715.197,825.516h101.6
				v103.505h-101.6V825.516z"/>
		</g>
	</g>
	<g transform="matrix(1, 0, 0, 1, 161.25, 23.190778732299805)">
		<g>
			<path fill="#5EA647" d="M1713.327,988.664h103.47v101.614h-103.47V988.664z"/>
		</g>
	</g>
	<g transform="matrix(1, 0, 0, 1, 161.25, 23.190778732299805)">
		<g>
			<path fill="none" stroke="#434343" stroke-width="5" stroke-linecap="square" stroke-miterlimit="10" d="M1713.327,988.664
				h103.47v101.614h-103.47V988.664z"/>
		</g>
	</g>
	<g transform="matrix(1, 0, 0, 1, 161.25, 23.190778732299805)">
		<g>
			<path fill="#808080" d="M1816.797,988.664v-59.643v55.667V988.664z"/>
		</g>
	</g>
	<g transform="matrix(1, 0, 0, 1, 161.25, 23.190778732299805)">
		<g>
			<path fill="none" stroke="#434343" stroke-width="5" stroke-linecap="square" stroke-miterlimit="10" d="M1816.797,988.664
				v-59.643v55.667V988.664z"/>
		</g>
	</g>
	<g transform="matrix(1, 0, 0, 1, 161.25, 23.190778732299805)">
		<g>
			<path fill="#FFFF76" d="M1280.914,3250.947v-1043.94h1003.3v1043.94H1280.914z"/>
		</g>
	</g>
	<g transform="matrix(1, 0, 0, 1, 161.25, 23.190778732299805)">
		<g>
			<path fill="none" stroke="#434343" stroke-width="5" stroke-linecap="square" stroke-miterlimit="10" d="M1280.914,3250.947
				v-1043.94h1003.3v1043.94H1280.914z"/>
		</g>
	</g>
	<g transform="matrix(1, 0, 0, 1, 161.25, 23.190778732299805)">
		<g>
			<path fill="#5EA647" d="M727.261,2833.844H948.09v385.192H727.261V2833.844z"/>
		</g>
	</g>
	<g transform="matrix(1, 0, 0, 1, 161.25, 23.190778732299805)">
		<g>
			<path fill="none" stroke="#434343" stroke-width="5" stroke-linecap="square" stroke-miterlimit="10" d="M727.261,2833.844
				H948.09v385.192H727.261V2833.844z"/>
		</g>
	</g>
	<g transform="matrix(1, 0, 0, 1, 161.25, 23.190778732299805)">
		<g>
			<path fill="#5EA647" d="M1100.792,1318.373h117.617v268.566h-117.617V1318.373z"/>
		</g>
	</g>
	<g transform="matrix(1, 0, 0, 1, 161.25, 23.190778732299805)">
		<g>
			<path fill="none" stroke="#434343" stroke-width="5" stroke-linecap="square" stroke-miterlimit="10" d="M1100.792,1318.373
				h117.617v268.566h-117.617V1318.373z"/>
		</g>
	</g>
	<g transform="matrix(1, 0, 0, 1, 161.25, 23.190778732299805)">
		<g>
			<g>
				<defs>
					<path id="SVGID_1_" d="M2569.404,206.801V1104.7h-844.958l-443.532-7.74v1094.807h1018.54v1074.42H640.727v-1764.03h0.107
						v-405.13h-403.86V605.012l-3.81-0.053l0,0v-3.232H7.353l228.011-394.926L2569.404,206.801L2569.404,206.801z M2569.404,199.137
						v0.044H229.671v2.239L-2.546,603.632l1.395,0.805l0,0v1.1l-0.053,3.81l230.558,3.18v492.177h7.62v-0.057h396.24v396.303h-0.107
						v1772.602h1.059v0.254h1672.908v-1089.66h-1018.54V1104.714l435.849,7.606h852.2v-3.863h0.441v-909.32L2569.404,199.137
						L2569.404,199.137z"/>
				</defs>
				<clipPath id="SVGID_2_">
					<use xlink:href="#SVGID_1_"  overflow="visible"/>
				</clipPath>
				<g clip-path="url(#SVGID_2_)">
					<g transform="matrix(1, 0, 0, 1, -2, 199)">
						<image overflow="visible" enable-background="new    " width="2581" height="3076" xlink:href="21002298FAC7B778.PNG" >
						</image>
					</g>
				</g>
			</g>
		</g>
	</g>
	<g transform="matrix(1, 0, 0, 1, 161.25, 23.190778732299805)">
		<g>
			<path fill="none" stroke="#434343" stroke-width="5" stroke-linecap="square" stroke-miterlimit="30" d="M2569.404,206.801
				V1104.7h-844.958l-443.532-7.74v1094.807h1018.54v1074.42H640.727v-1764.03h0.107v-405.13h-403.86V605.012l-3.81-0.053l0,0
				v-3.232H7.353l228.011-394.926L2569.404,206.801L2569.404,206.801z M2569.404,199.137v0.044H229.671v2.239L-2.546,603.632
				l1.395,0.805l0,0v1.1l-0.053,3.81l230.558,3.18v492.177h7.62v-0.057h396.24v396.303h-0.107v1772.602h1.059v0.254h1672.908
				v-1089.66h-1018.54V1104.714l435.849,7.606h852.2v-3.863h0.441v-909.32L2569.404,199.137L2569.404,199.137z"/>
		</g>
	</g>
	<g transform="matrix(1, 0, 0, 1, 161.25, 23.190778732299805)">
		<g>
			<path fill="none" stroke="#434343" stroke-width="4" stroke-linecap="square" stroke-miterlimit="10" d="M2315.411,589.276
				c0-62.516,50.679-113.194,113.195-113.194v113.194H2315.411z"/>
		</g>
	</g>
	<g transform="matrix(1, 0, 0, 1, 161.25, 23.190778732299805)">
		<g>
			<path fill="#FFFFFF" d="M2435.55,593.841h-127v-4.565h127V593.841z"/>
		</g>
	</g>
	<g transform="matrix(1, 0, 0, 1, 161.25, 23.190778732299805)">
		<g>
			<path fill="none" stroke="#434343" stroke-width="4" stroke-linecap="square" stroke-miterlimit="10" d="M2435.55,593.841h-127v-4.565h127V593.841
				z"/>
		</g>
	</g>
	<g transform="matrix(1, 0, 0, 1, 161.25, 23.190778732299805)">
		<g>
			<path fill="none" stroke="#434343" stroke-width="4" stroke-linecap="square" stroke-miterlimit="10" d="M633.107,1866.744
				c-62.516,0-113.194,50.679-113.194,113.194h113.194L633.107,1866.744L633.107,1866.744z"/>
		</g>
	</g>
	<g transform="matrix(1, 0, 0, 1, 161.25, 23.190778732299805)">
		<g>
			<path fill="#FFFFFF" d="M640.727,1859.883v127h-7.62v-127H640.727z"/>
		</g>
	</g>
	<g transform="matrix(1, 0, 0, 1, 161.25, 23.190778732299805)">
		<g>
			<path fill="none" stroke="#434343" stroke-width="4" stroke-linecap="square" stroke-miterlimit="10" d="M640.727,1859.883v127h-7.62v-127H640.727
				z"/>
		</g>
	</g>
	<g transform="matrix(1, 0, 0, 1, 161.25, 23.190778732299805)">
		<g>
			<path fill="none" stroke="#434343" stroke-width="4" stroke-linecap="square" stroke-miterlimit="10" d="M633.107,1851.633
				c-62.516,0-113.194-50.679-113.194-113.194h113.194L633.107,1851.633L633.107,1851.633z"/>
		</g>
	</g>
	<g transform="matrix(1, 0, 0, 1, 161.25, 23.190778732299805)">
		<g>
			<path fill="#FFFFFF" d="M640.727,1731.494v127h-7.62v-127H640.727z"/>
		</g>
	</g>
	<g transform="matrix(1, 0, 0, 1, 161.25, 23.190778732299805)">
		<g>
			<path fill="none" stroke="#434343" stroke-width="4" stroke-linecap="square" stroke-miterlimit="10" d="M640.727,1731.494v127h-7.62v-127H640.727
				z"/>
		</g>
	</g>
	<g transform="matrix(1, 0, 0, 1, 161.25, 23.190778732299805)">
		<g>
			<path fill="none" stroke="#434343" stroke-width="4" stroke-linecap="square" stroke-miterlimit="10" d="M1288.534,1869.955
				c62.516,0,113.194,50.679,113.194,113.194h-113.194V1869.955z"/>
		</g>
	</g>
	<g transform="matrix(1, 0, 0, 1, 161.25, 23.190778732299805)">
		<g>
			<path fill="#FFFFFF" d="M1280.914,1990.094v-127h7.62v127H1280.914z"/>
		</g>
	</g>
	<g transform="matrix(1, 0, 0, 1, 161.25, 23.190778732299805)">
		<g>
			<path fill="none" stroke="#434343" stroke-width="4" stroke-linecap="square" stroke-miterlimit="10" d="M1280.914,1990.094v-127h7.62v127
				H1280.914z"/>
		</g>
	</g>
	<g transform="matrix(1, 0, 0, 1, 161.25, 23.190778732299805)">
		<g>
			<path fill="none" stroke="#434343" stroke-width="4" stroke-linecap="square" stroke-miterlimit="10" d="M1288.534,1850.677
				c62.516,0,113.194-50.679,113.194-113.194h-113.194V1850.677z"/>
		</g>
	</g>
	<g transform="matrix(1, 0, 0, 1, 161.25, 23.190778732299805)">
		<g>
			<path fill="#FFFFFF" d="M1280.914,1857.538v-127h7.62v127H1280.914z"/>
		</g>
	</g>
	<g transform="matrix(1, 0, 0, 1, 161.25, 23.190778732299805)">
		<g>
			<path fill="none" stroke="#434343" stroke-width="4" stroke-linecap="square" stroke-miterlimit="10" d="M1280.914,1857.538v-127h7.62v127
				H1280.914z"/>
		</g>
	</g>
	<g transform="matrix(1, 0, 0, 1, 161.25, 23.190778732299805)">
		<g>
			<path fill="none" stroke="#434343" stroke-width="4" stroke-linecap="square" stroke-miterlimit="10" d="M2539.12,792.639
				c0,31.258-25.339,56.597-56.597,56.597v-56.597H2539.12z"/>
		</g>
	</g>
	<g transform="matrix(1, 0, 0, 1, 161.25, 23.190778732299805)">
		<g>
			<path fill="#FFFFFF" d="M2479.051,787.421h63.5v5.217h-63.5V787.421z"/>
		</g>
	</g>
	<g transform="matrix(1, 0, 0, 1, 161.25, 23.190778732299805)">
		<g>
			<path fill="none" stroke="#434343" stroke-width="4" stroke-linecap="square" stroke-miterlimit="10" d="M2479.051,787.421h63.5v5.217h-63.5
				V787.421z"/>
		</g>
	</g>
	<g transform="matrix(1, 0, 0, 1, 161.25, 23.190778732299805)">
		<g>
			<path fill="none" stroke="#434343" stroke-width="4" stroke-linecap="square" stroke-miterlimit="10" d="M2142.453,792.882
				c0,31.258-25.339,56.597-56.597,56.597v-56.597H2142.453z"/>
		</g>
	</g>
	<g transform="matrix(1, 0, 0, 1, 161.25, 23.190778732299805)">
		<g>
			<path fill="#FFFFFF" d="M2082.383,787.665h63.5v5.217h-63.5V787.665z"/>
		</g>
	</g>
	<g transform="matrix(1, 0, 0, 1, 161.25, 23.190778732299805)">
		<g>
			<path fill="none" stroke="#434343" stroke-width="4" stroke-linecap="square" stroke-miterlimit="10" d="M2082.383,787.665h63.5v5.217h-63.5
				V787.665z"/>
		</g>
	</g>
	<g transform="matrix(1, 0, 0, 1, 161.25, 23.190778732299805)">
		<g>
			<path fill="none" stroke="#434343" stroke-width="4" stroke-linecap="square" stroke-miterlimit="10" d="M2280.779,792.708
				c0,31.258-25.339,56.597-56.597,56.597v-56.597H2280.779z"/>
		</g>
	</g>
	<g transform="matrix(1, 0, 0, 1, 161.25, 23.190778732299805)">
		<g>
			<path fill="#FFFFFF" d="M2220.709,787.491h63.5v5.217h-63.5V787.491z"/>
		</g>
	</g>
	<g transform="matrix(1, 0, 0, 1, 161.25, 23.190778732299805)">
		<g>
			<path fill="none" stroke="#434343" stroke-width="4" stroke-linecap="square" stroke-miterlimit="10" d="M2220.709,787.491h63.5v5.217h-63.5
				V787.491z"/>
		</g>
	</g>
	<g transform="matrix(1, 0, 0, 1, 161.25, 23.190778732299805)">
		<g>
			<path fill="none" stroke="#434343" stroke-width="4" stroke-linecap="square" stroke-miterlimit="10" d="M1941.192,588.663
				c0-62.516,50.679-113.194,113.194-113.194v113.194H1941.192z"/>
		</g>
	</g>
	<g transform="matrix(1, 0, 0, 1, 161.25, 23.190778732299805)">
		<g>
			<path fill="#FFFFFF" d="M2061.331,593.881h-127v-5.217h127V593.881z"/>
		</g>
	</g>
	<g transform="matrix(1, 0, 0, 1, 161.25, 23.190778732299805)">
		<g>
			<path fill="none" stroke="#434343" stroke-width="4" stroke-linecap="square" stroke-miterlimit="10" d="M2061.331,593.881h-127v-5.217h127
				V593.881z"/>
		</g>
	</g>
	<g transform="matrix(1, 0, 0, 1, 161.25, 23.190778732299805)">
		<g>
			<path fill="none" stroke="#434343" stroke-width="4" stroke-linecap="square" stroke-miterlimit="10" d="M1554.318,589.578
				c0-62.516,50.679-113.194,113.194-113.194v113.194H1554.318z"/>
		</g>
	</g>
	<g transform="matrix(1, 0, 0, 1, 161.25, 23.190778732299805)">
		<g>
			<path fill="#FFFFFF" d="M1674.457,594.795h-127v-5.217h127V594.795z"/>
		</g>
	</g>
	<g transform="matrix(1, 0, 0, 1, 161.25, 23.190778732299805)">
		<g>
			<path fill="none" stroke="#434343" stroke-width="4" stroke-linecap="square" stroke-miterlimit="10" d="M1674.457,594.795h-127v-5.217h127
				V594.795z"/>
		</g>
	</g>
	<g transform="matrix(1, 0, 0, 1, 161.25, 23.190778732299805)">
		<g>
			<path fill="none" stroke="#434343" stroke-width="4" stroke-linecap="square" stroke-miterlimit="10" d="M1207.952,589.172
				c0-62.516,50.679-113.194,113.194-113.194v113.194H1207.952z"/>
		</g>
	</g>
	<g transform="matrix(1, 0, 0, 1, 161.25, 23.190778732299805)">
		<g>
			<path fill="#FFFFFF" d="M1328.091,594.389h-127v-5.217h127V594.389z"/>
		</g>
	</g>
	<g transform="matrix(1, 0, 0, 1, 161.25, 23.190778732299805)">
		<g>
			<path fill="none" stroke="#434343" stroke-width="4" stroke-linecap="square" stroke-miterlimit="10" d="M1328.091,594.389h-127v-5.217h127
				V594.389z"/>
		</g>
	</g>
	<g transform="matrix(1, 0, 0, 1, 161.25, 23.190778732299805)">
		<g>
			<path fill="none" stroke="#434343" stroke-width="4" stroke-linecap="square" stroke-miterlimit="10" d="M733.978,589.172
				c0-62.516,50.679-113.194,113.194-113.194v113.194H733.978z"/>
		</g>
	</g>
	<g transform="matrix(1, 0, 0, 1, 161.25, 23.190778732299805)">
		<g>
			<path fill="#FFFFFF" d="M854.117,594.389h-127v-5.217h127V594.389z"/>
		</g>
	</g>
	<g transform="matrix(1, 0, 0, 1, 161.25, 23.190778732299805)">
		<g>
			<path fill="none" stroke="#434343" stroke-width="4" stroke-linecap="square" stroke-miterlimit="10" d="M854.117,594.389h-127v-5.217h127V594.389
				z"/>
		</g>
	</g>
	<g transform="matrix(1, 0, 0, 1, 161.25, 23.190778732299805)">
		<g>
			<path fill="none" stroke="#434343" stroke-width="4" stroke-linecap="square" stroke-miterlimit="10" d="M355.71,591.45
				c0-62.516,50.679-113.194,113.194-113.194V591.45H355.71z"/>
		</g>
	</g>
	<g transform="matrix(1, 0, 0, 1, 161.25, 23.190778732299805)">
		<g>
			<path fill="#FFFFFF" d="M475.849,596.668h-127v-5.217h127V596.668z"/>
		</g>
	</g>
	<g transform="matrix(1, 0, 0, 1, 161.25, 23.190778732299805)">
		<g>
			<path fill="none" stroke="#434343" stroke-width="4" stroke-linecap="square" stroke-miterlimit="10" d="M475.849,596.668h-127v-5.217h127V596.668
				z"/>
		</g>
	</g>
	<g transform="matrix(1, 0, 0, 1, 161.25, 23.190778732299805)">
		<g>
			<path fill="none" stroke="#434343" stroke-width="4" stroke-linecap="square" stroke-miterlimit="10" d="M388.311,721.848
				c0,62.516-50.679,113.194-113.194,113.194V721.848H388.311z"/>
		</g>
	</g>
	<g transform="matrix(1, 0, 0, 1, 161.25, 23.190778732299805)">
		<g>
			<path fill="#FFFFFF" d="M268.172,716.631h127v5.217h-127V716.631z"/>
		</g>
	</g>
	<g transform="matrix(1, 0, 0, 1, 161.25, 23.190778732299805)">
		<g>
			<path fill="none" stroke="#434343" stroke-width="4" stroke-linecap="square" stroke-miterlimit="10" d="M268.172,716.631h127v5.217h-127V716.631z
				"/>
		</g>
	</g>
	<g transform="matrix(1, 0, 0, 1, 161.25, 23.190778732299805)">
		<g>
			<path fill="none" stroke="#434343" stroke-width="4" stroke-linecap="square" stroke-miterlimit="10" d="M2380.196,737.143
				c0-62.516,50.679-113.194,113.195-113.194v113.194L2380.196,737.143z"/>
		</g>
	</g>
	<g transform="matrix(1, 0, 0, 1, 161.25, 23.190778732299805)">
		<g>
			<path fill="#FFFFFF" d="M2500.335,742.36h-127v-5.217h127V742.36z"/>
		</g>
	</g>
	<g transform="matrix(1, 0, 0, 1, 161.25, 23.190778732299805)">
		<g>
			<path fill="none" stroke="#434343" stroke-width="4" stroke-linecap="square" stroke-miterlimit="10" d="M2500.335,742.36h-127v-5.217h127V742.36z
				"/>
		</g>
	</g>
	<g transform="matrix(1, 0, 0, 1, 161.25, 23.190778732299805)">
		<g>
			<path fill="none" stroke="#434343" stroke-width="4" stroke-linecap="square" stroke-miterlimit="10" d="M2133.336,735.936
				c0-62.516,50.679-113.194,113.195-113.194v113.194L2133.336,735.936z"/>
		</g>
	</g>
	<g transform="matrix(1, 0, 0, 1, 161.25, 23.190778732299805)">
		<g>
			<path fill="#FFFFFF" d="M2253.475,741.153h-127v-5.217h127V741.153z"/>
		</g>
	</g>
	<g transform="matrix(1, 0, 0, 1, 161.25, 23.190778732299805)">
		<g>
			<path fill="none" stroke="#434343" stroke-width="4" stroke-linecap="square" stroke-miterlimit="10" d="M2253.475,741.153h-127v-5.217h127
				V741.153z"/>
		</g>
	</g>
	<g transform="matrix(1, 0, 0, 1, 161.25, 23.190778732299805)">
		<g>
			<path fill="none" stroke="#434343" stroke-width="4" stroke-linecap="square" stroke-miterlimit="10" d="M2411.46,792.503
				c0,31.258-25.339,56.597-56.597,56.597v-56.597H2411.46z"/>
		</g>
	</g>
	<g transform="matrix(1, 0, 0, 1, 161.25, 23.190778732299805)">
		<g>
			<path fill="#FFFFFF" d="M2351.391,787.286h63.5v5.217h-63.5V787.286z"/>
		</g>
	</g>
	<g transform="matrix(1, 0, 0, 1, 161.25, 23.190778732299805)">
		<g>
			<path fill="none" stroke="#434343" stroke-width="4" stroke-linecap="square" stroke-miterlimit="10" d="M2351.391,787.286h63.5v5.217h-63.5
				V787.286z"/>
		</g>
	</g>
	<g transform="matrix(1, 0, 0, 1, 161.25, 23.190778732299805)">
		<g>
			<path fill="none" stroke="#434343" stroke-width="4" stroke-linecap="square" stroke-miterlimit="10" d="M1321.542,722.486
				c0,62.516-50.679,113.194-113.194,113.194V722.486H1321.542z"/>
		</g>
	</g>
	<g transform="matrix(1, 0, 0, 1, 161.25, 23.190778732299805)">
		<g>
			<path fill="#FFFFFF" d="M1201.403,717.269h127v5.217h-127V717.269z"/>
		</g>
	</g>
	<g transform="matrix(1, 0, 0, 1, 161.25, 23.190778732299805)">
		<g>
			<path fill="none" stroke="#434343" stroke-width="4" stroke-linecap="square" stroke-miterlimit="10" d="M1201.403,717.269h127v5.217h-127V717.269
				z"/>
		</g>
	</g>
	<g transform="matrix(1, 0, 0, 1, 161.25, 23.190778732299805)">
		<g>
			<path fill="none" stroke="#434343" stroke-width="4" stroke-linecap="square" stroke-miterlimit="10" d="M829.776,1361.837
				c-37.509,0-67.917-30.407-67.917-67.917h67.917V1361.837z"/>
		</g>
	</g>
	<g transform="matrix(1, 0, 0, 1, 161.25, 23.190778732299805)">
		<g>
			<path fill="#FFFFFF" d="M834.993,1289.754v76.2h-5.217v-76.2H834.993z"/>
		</g>
	</g>
	<g transform="matrix(1, 0, 0, 1, 161.25, 23.190778732299805)">
		<g>
			<path fill="none" stroke="#434343" stroke-width="4" stroke-linecap="square" stroke-miterlimit="10" d="M834.993,1289.754v76.2h-5.217v-76.2
				H834.993z"/>
		</g>
	</g>
	<g transform="matrix(1, 0, 0, 1, 161.25, 23.190778732299805)">
		<g>
			<path fill="none" stroke="#434343" stroke-width="4" stroke-linecap="square" stroke-miterlimit="10" d="M737.21,1643.103
				c0-37.509,30.407-67.917,67.917-67.917v67.917H737.21z"/>
		</g>
	</g>
	<g transform="matrix(1, 0, 0, 1, 161.25, 23.190778732299805)">
		<g>
			<path fill="#FFFFFF" d="M809.294,1648.321h-76.2v-5.217h76.2V1648.321z"/>
		</g>
	</g>
	<g transform="matrix(1, 0, 0, 1, 161.25, 23.190778732299805)">
		<g>
			<path fill="none" stroke="#434343" stroke-width="4" stroke-linecap="square" stroke-miterlimit="10" d="M809.294,1648.321h-76.2v-5.217h76.2
				V1648.321z"/>
		</g>
	</g>
	<g transform="matrix(1, 0, 0, 1, 161.25, 23.190778732299805)">
		<g>
			<path fill="none" stroke="#434343" stroke-width="4" stroke-linecap="square" stroke-miterlimit="10" d="M1283.958,3068.581
				c62.516,0,113.194,50.679,113.194,113.195h-113.194V3068.581z"/>
		</g>
	</g>
	<g transform="matrix(1, 0, 0, 1, 161.25, 23.190778732299805)">
		<g>
			<path fill="#FFFFFF" d="M1278.74,3188.72v-127h5.217v127H1278.74z"/>
		</g>
	</g>
	<g transform="matrix(1, 0, 0, 1, 161.25, 23.190778732299805)">
		<g>
			<path fill="none" stroke="#434343" stroke-width="4" stroke-linecap="square" stroke-miterlimit="10" d="M1278.74,3188.72v-127h5.217v127H1278.74z
				"/>
		</g>
	</g>
</g>
</svg>
