<?xml version="1.0" encoding="utf-8"?>
<!-- Generator: Adobe Illustrator 17.0.0, SVG Export Plug-In . SVG Version: 6.00 Build 0)  -->
<!DOCTYPE svg PUBLIC "-//W3C//DTD SVG 1.1//EN" "http://www.w3.org/Graphics/SVG/1.1/DTD/svg11.dtd">
<svg version="1.1" id="Layer_1" xmlns:ev="http://www.w3.org/2001/xml-events"
	 xmlns="http://www.w3.org/2000/svg" xmlns:xlink="http://www.w3.org/1999/xlink" x="0px" y="0px" width="4239px" height="4044px"
	 viewBox="0 0 4239 4044" enable-background="new 0 0 4239 4044" xml:space="preserve">
<title>/Volumes/Macintosh HD/Developer/KPImaps/Maps/05/Temp/SweetHome3d_2.sh3d</title>
<desc>
	Creator: FreeHEP Graphics2D Driver Producer: com.eteks.sweethome3d.swing.PlanComponent$SVGSupport$1 Revision: 12753  Source: alexeybodnya Date: Sunday, October 26, 2014 10:14:11 AM EET
	</desc>
<g>
	<g transform="matrix(1, 0, 0, 1, -608.955322265625, -1129.89013671875)">
		<g>
			<path fill="#5EA647" d="M3707.911,3028.973h487.68v298.45h-487.68V3028.973z"/>
		</g>
	</g>
	<g transform="matrix(1, 0, 0, 1, -608.955322265625, -1129.89013671875)">
		<g>
			<path fill="none" stroke="#434343" stroke-width="5" stroke-linecap="square" stroke-miterlimit="10" d="M3707.911,3028.973
				h487.68v298.45h-487.68V3028.973z"/>
		</g>
	</g>
	<g transform="matrix(1, 0, 0, 1, -608.955322265625, -1129.89013671875)">
		<g>
			<path fill="#FFFF76" d="M3707.911,2474.262h487.68v-223.52h-487.68V2474.262z"/>
		</g>
	</g>
	<g transform="matrix(1, 0, 0, 1, -608.955322265625, -1129.89013671875)">
		<g>
			<path fill="none" stroke="#434343" stroke-width="5" stroke-linecap="square" stroke-miterlimit="10" d="M3707.911,2474.262
				h487.68v-223.52h-487.68V2474.262z"/>
		</g>
	</g>
	<g transform="matrix(1, 0, 0, 1, -608.955322265625, -1129.89013671875)">
		<g>
			<path fill="#FFFF76" d="M3707.691,2235.077h487.68v-223.52h-487.68L3707.691,2235.077L3707.691,2235.077z"/>
		</g>
	</g>
	<g transform="matrix(1, 0, 0, 1, -608.955322265625, -1129.89013671875)">
		<g>
			<path fill="none" stroke="#434343" stroke-width="5" stroke-linecap="square" stroke-miterlimit="10" d="M3707.691,2235.077
				h487.68v-223.52h-487.68L3707.691,2235.077L3707.691,2235.077z"/>
		</g>
	</g>
	<g transform="matrix(1, 0, 0, 1, -608.955322265625, -1129.89013671875)">
		<g>
			<path fill="#FFFF76" d="M3707.911,1994.494h487.68v-223.52h-487.68V1994.494z"/>
		</g>
	</g>
	<g transform="matrix(1, 0, 0, 1, -608.955322265625, -1129.89013671875)">
		<g>
			<path fill="none" stroke="#434343" stroke-width="5" stroke-linecap="square" stroke-miterlimit="10" d="M3707.911,1994.494
				h487.68v-223.52h-487.68V1994.494z"/>
		</g>
	</g>
	<g transform="matrix(1, 0, 0, 1, -608.955322265625, -1129.89013671875)">
		<g>
			<path fill="#FFFF76" d="M3707.911,1753.691h487.68v-223.52h-487.68V1753.691z"/>
		</g>
	</g>
	<g transform="matrix(1, 0, 0, 1, -608.955322265625, -1129.89013671875)">
		<g>
			<path fill="none" stroke="#434343" stroke-width="5" stroke-linecap="square" stroke-miterlimit="10" d="M3707.911,1753.691
				h487.68v-223.52h-487.68V1753.691z"/>
		</g>
	</g>
	<g transform="matrix(1, 0, 0, 1, -608.955322265625, -1129.89013671875)">
		<g>
			<path fill="#FFFF76" d="M3705.853,1516.344h487.68v-363.135h-487.68L3705.853,1516.344L3705.853,1516.344z"/>
		</g>
	</g>
	<g transform="matrix(1, 0, 0, 1, -608.955322265625, -1129.89013671875)">
		<g>
			<path fill="none" stroke="#434343" stroke-width="5" stroke-linecap="square" stroke-miterlimit="10" d="M3705.853,1516.344
				h487.68v-363.135h-487.68L3705.853,1516.344L3705.853,1516.344z"/>
		</g>
	</g>
	<g transform="matrix(1, 0, 0, 1, -608.955322265625, -1129.89013671875)">
		<g>
			<path fill="#FFFF76" d="M4328.488,2229.948h487.68v-223.52h-487.68V2229.948z"/>
		</g>
	</g>
	<g transform="matrix(1, 0, 0, 1, -608.955322265625, -1129.89013671875)">
		<g>
			<path fill="none" stroke="#434343" stroke-width="5" stroke-linecap="square" stroke-miterlimit="10" d="M4328.488,2229.948
				h487.68v-223.52h-487.68V2229.948z"/>
		</g>
	</g>
	<g transform="matrix(1, 0, 0, 1, -608.955322265625, -1129.89013671875)">
		<g>
			<path fill="#FFFF76" d="M4328.709,2469.133h487.68v-223.52h-487.68V2469.133z"/>
		</g>
	</g>
	<g transform="matrix(1, 0, 0, 1, -608.955322265625, -1129.89013671875)">
		<g>
			<path fill="none" stroke="#434343" stroke-width="5" stroke-linecap="square" stroke-miterlimit="10" d="M4328.709,2469.133
				h487.68v-223.52h-487.68V2469.133z"/>
		</g>
	</g>
	<g transform="matrix(1, 0, 0, 1, -608.955322265625, -1129.89013671875)">
		<g>
			<path fill="#FFFF76" d="M4328.709,1989.365h487.68V1527.1h-487.68V1989.365z"/>
		</g>
	</g>
	<g transform="matrix(1, 0, 0, 1, -608.955322265625, -1129.89013671875)">
		<g>
			<path fill="none" stroke="#434343" stroke-width="5" stroke-linecap="square" stroke-miterlimit="10" d="M4328.709,1989.365
				h487.68V1527.1h-487.68V1989.365z"/>
		</g>
	</g>
	<g transform="matrix(1, 0, 0, 1, -608.955322265625, -1129.89013671875)">
		<g>
			<path fill="#FFFF76" d="M4328.489,1514.892h487.68v-223.52h-487.68V1514.892z"/>
		</g>
	</g>
	<g transform="matrix(1, 0, 0, 1, -608.955322265625, -1129.89013671875)">
		<g>
			<path fill="none" stroke="#434343" stroke-width="5" stroke-linecap="square" stroke-miterlimit="10" d="M4328.489,1514.892
				h487.68v-223.52h-487.68V1514.892z"/>
		</g>
	</g>
	<g transform="matrix(1, 0, 0, 1, -608.955322265625, -1129.89013671875)">
		<g>
			<path fill="#5EA647" d="M4816.168,1153.209h-383.54v121.92h383.54V1153.209z"/>
		</g>
	</g>
	<g transform="matrix(1, 0, 0, 1, -608.955322265625, -1129.89013671875)">
		<g>
			<path fill="none" stroke="#434343" stroke-width="5" stroke-linecap="square" stroke-miterlimit="10" d="M4816.168,1153.209
				h-383.54v121.92h383.54V1153.209z"/>
		</g>
	</g>
	<g transform="matrix(1, 0, 0, 1, -608.955322265625, -1129.89013671875)">
		<g>
			<path fill="#FFFF76" d="M4330.546,2657.297h487.46l0.22-172.72h-487.68V2657.297z"/>
		</g>
	</g>
	<g transform="matrix(1, 0, 0, 1, -608.955322265625, -1129.89013671875)">
		<g>
			<path fill="none" stroke="#434343" stroke-width="5" stroke-linecap="square" stroke-miterlimit="10" d="M4330.546,2657.297
				h487.46l0.22-172.72h-487.68V2657.297z"/>
		</g>
	</g>
	<g transform="matrix(1, 0, 0, 1, -608.955322265625, -1129.89013671875)">
		<g>
			<path fill="#FFFF76" d="M4331.389,3753.735h487.68v-223.52h-487.68V3753.735z"/>
		</g>
	</g>
	<g transform="matrix(1, 0, 0, 1, -608.955322265625, -1129.89013671875)">
		<g>
			<path fill="none" stroke="#434343" stroke-width="5" stroke-linecap="square" stroke-miterlimit="10" d="M4331.389,3753.735
				h487.68v-223.52h-487.68V3753.735z"/>
		</g>
	</g>
	<g transform="matrix(1, 0, 0, 1, -608.955322265625, -1129.89013671875)">
		<g>
			<path fill="#FFFF76" d="M4331.389,3273.967h487.68v-223.52h-487.68V3273.967z"/>
		</g>
	</g>
	<g transform="matrix(1, 0, 0, 1, -608.955322265625, -1129.89013671875)">
		<g>
			<path fill="none" stroke="#434343" stroke-width="5" stroke-linecap="square" stroke-miterlimit="10" d="M4331.389,3273.967
				h487.68v-223.52h-487.68V3273.967z"/>
		</g>
	</g>
	<g transform="matrix(1, 0, 0, 1, -608.955322265625, -1129.89013671875)">
		<g>
			<path fill="#FFFF76" d="M4331.169,3514.55h487.68v-223.52h-487.68V3514.55z"/>
		</g>
	</g>
	<g transform="matrix(1, 0, 0, 1, -608.955322265625, -1129.89013671875)">
		<g>
			<path fill="none" stroke="#434343" stroke-width="5" stroke-linecap="square" stroke-miterlimit="10" d="M4331.169,3514.55
				h487.68v-223.52h-487.68V3514.55z"/>
		</g>
	</g>
	<g transform="matrix(1, 0, 0, 1, -608.955322265625, -1129.89013671875)">
		<g>
			<path fill="#FFFF76" d="M4330.614,2846.727h487.46l0.22-172.72h-487.68V2846.727z"/>
		</g>
	</g>
	<g transform="matrix(1, 0, 0, 1, -608.955322265625, -1129.89013671875)">
		<g>
			<path fill="none" stroke="#434343" stroke-width="5" stroke-linecap="square" stroke-miterlimit="10" d="M4330.614,2846.727
				h487.46l0.22-172.72h-487.68V2846.727z"/>
		</g>
	</g>
	<g transform="matrix(1, 0, 0, 1, -608.955322265625, -1129.89013671875)">
		<g>
			<path fill="#FFFF76" d="M4330.681,3032.835h487.46l0.22-172.72h-487.68V3032.835z"/>
		</g>
	</g>
	<g transform="matrix(1, 0, 0, 1, -608.955322265625, -1129.89013671875)">
		<g>
			<path fill="none" stroke="#434343" stroke-width="5" stroke-linecap="square" stroke-miterlimit="10" d="M4330.681,3032.835
				h487.46l0.22-172.72h-487.68V3032.835z"/>
		</g>
	</g>
	<g transform="matrix(1, 0, 0, 1, -608.955322265625, -1129.89013671875)">
		<g>
			<path fill="#FFFF76" d="M1018.904,2491.243h378.165v-378.472h-384.81l-218.511,378.472H1018.904z"/>
		</g>
	</g>
	<g transform="matrix(1, 0, 0, 1, -608.955322265625, -1129.89013671875)">
		<g>
			<path fill="none" stroke="#434343" stroke-width="5" stroke-linecap="square" stroke-miterlimit="10" d="M1018.904,2491.243
				h378.165v-378.472h-384.81l-218.511,378.472H1018.904z"/>
		</g>
	</g>
	<g transform="matrix(1, 0, 0, 1, -608.955322265625, -1129.89013671875)">
		<g>
			<path fill="#FFFF76" d="M2221.299,2112.771v377.19h-812.8v-377.19H2221.299z"/>
		</g>
	</g>
	<g transform="matrix(1, 0, 0, 1, -608.955322265625, -1129.89013671875)">
		<g>
			<path fill="none" stroke="#434343" stroke-width="5" stroke-linecap="square" stroke-miterlimit="10" d="M2221.299,2112.771
				v377.19h-812.8v-377.19H2221.299z"/>
		</g>
	</g>
	<g transform="matrix(1, 0, 0, 1, -608.955322265625, -1129.89013671875)">
		<g>
			<path fill="#FFFF76" d="M2232.729,2489.961h304.8v-377.19h-304.8V2489.961z"/>
		</g>
	</g>
	<g transform="matrix(1, 0, 0, 1, -608.955322265625, -1129.89013671875)">
		<g>
			<path fill="none" stroke="#434343" stroke-width="5" stroke-linecap="square" stroke-miterlimit="10" d="M2232.729,2489.961
				h304.8v-377.19h-304.8V2489.961z"/>
		</g>
	</g>
	<g transform="matrix(1, 0, 0, 1, -608.955322265625, -1129.89013671875)">
		<g>
			<path fill="#FFFF76" d="M2936.575,2489.961h-383.54v-377.19h383.54V2489.961z"/>
		</g>
	</g>
	<g transform="matrix(1, 0, 0, 1, -608.955322265625, -1129.89013671875)">
		<g>
			<path fill="none" stroke="#434343" stroke-width="5" stroke-linecap="square" stroke-miterlimit="10" d="M2936.575,2489.961
				h-383.54v-377.19h383.54V2489.961z"/>
		</g>
	</g>
	<g transform="matrix(1, 0, 0, 1, -608.955322265625, -1129.89013671875)">
		<g>
			<path fill="#FFFF76" d="M2951.549,2489.961h377.19v-377.19h-377.19V2489.961z"/>
		</g>
	</g>
	<g transform="matrix(1, 0, 0, 1, -608.955322265625, -1129.89013671875)">
		<g>
			<path fill="none" stroke="#434343" stroke-width="5" stroke-linecap="square" stroke-miterlimit="10" d="M2951.549,2489.961
				h377.19v-377.19h-377.19V2489.961z"/>
		</g>
	</g>
	<g transform="matrix(1, 0, 0, 1, -608.955322265625, -1129.89013671875)">
		<g>
			<path fill="#FFFF76" d="M1014.799,2617.941h201.93v370.731h-201.93V2617.941z"/>
		</g>
	</g>
	<g transform="matrix(1, 0, 0, 1, -608.955322265625, -1129.89013671875)">
		<g>
			<path fill="none" stroke="#434343" stroke-width="5" stroke-linecap="square" stroke-miterlimit="10" d="M1014.799,2617.941
				h201.93v370.731h-201.93V2617.941z"/>
		</g>
	</g>
	<g transform="matrix(1, 0, 0, 1, -608.955322265625, -1129.89013671875)">
		<g>
			<path fill="#5EA647" d="M1247.209,2689.157h134.62v269.24h-134.62V2689.157z"/>
		</g>
	</g>
	<g transform="matrix(1, 0, 0, 1, -608.955322265625, -1129.89013671875)">
		<g>
			<path fill="none" stroke="#434343" stroke-width="5" stroke-linecap="square" stroke-miterlimit="10" d="M1247.209,2689.157
				h134.62v269.24h-134.62V2689.157z"/>
		</g>
	</g>
	<g transform="matrix(1, 0, 0, 1, -608.955322265625, -1129.89013671875)">
		<g>
			<path fill="#5EA647" d="M1729.139,2617.941h497.24v370.731h-497.24L1729.139,2617.941L1729.139,2617.941z"/>
		</g>
	</g>
	<g transform="matrix(1, 0, 0, 1, -608.955322265625, -1129.89013671875)">
		<g>
			<path fill="none" stroke="#434343" stroke-width="5" stroke-linecap="square" stroke-miterlimit="10" d="M1729.139,2617.941
				h497.24v370.731h-497.24L1729.139,2617.941L1729.139,2617.941z"/>
		</g>
	</g>
	<g transform="matrix(1, 0, 0, 1, -608.955322265625, -1129.89013671875)">
		<g>
			<path fill="#5EA647" d="M2691.443,2689.831h117.617v268.566h-117.617V2689.831z"/>
		</g>
	</g>
	<g transform="matrix(1, 0, 0, 1, -608.955322265625, -1129.89013671875)">
		<g>
			<path fill="none" stroke="#434343" stroke-width="5" stroke-linecap="square" stroke-miterlimit="10" d="M2691.443,2689.831
				h117.617v268.566h-117.617V2689.831z"/>
		</g>
	</g>
	<g transform="matrix(1, 0, 0, 1, -608.955322265625, -1129.89013671875)">
		<g>
			<path fill="#FFFF76" d="M3328.739,2634.59h-236.22v360.831h236.22V2634.59z"/>
		</g>
	</g>
	<g transform="matrix(1, 0, 0, 1, -608.955322265625, -1129.89013671875)">
		<g>
			<path fill="none" stroke="#434343" stroke-width="5" stroke-linecap="square" stroke-miterlimit="10" d="M3328.739,2634.59
				h-236.22v360.831h236.22V2634.59z"/>
		</g>
	</g>
	<g transform="matrix(1, 0, 0, 1, -608.955322265625, -1129.89013671875)">
		<g>
			<path fill="#FFFF76" d="M3077.279,2634.59h-250.466v360.831h250.466V2634.59z"/>
		</g>
	</g>
	<g transform="matrix(1, 0, 0, 1, -608.955322265625, -1129.89013671875)">
		<g>
			<path fill="none" stroke="#434343" stroke-width="5" stroke-linecap="square" stroke-miterlimit="10" d="M3077.279,2634.59
				h-250.466v360.831h250.466V2634.59z"/>
		</g>
	</g>
	<g transform="matrix(1, 0, 0, 1, -608.955322265625, -1129.89013671875)">
		<g>
			<path fill="#5EA647" d="M2320.785,2619.624h163.23v97.155h-163.23V2619.624z"/>
		</g>
	</g>
	<g transform="matrix(1, 0, 0, 1, -608.955322265625, -1129.89013671875)">
		<g>
			<path fill="none" stroke="#434343" stroke-width="5" stroke-linecap="square" stroke-miterlimit="10" d="M2320.785,2619.624
				h163.23v97.155h-163.23V2619.624z"/>
		</g>
	</g>
	<g transform="matrix(1, 0, 0, 1, -608.955322265625, -1129.89013671875)">
		<g>
			<path fill="#5EA647" d="M2382.415,2725.571h101.6v103.505h-101.6V2725.571z"/>
		</g>
	</g>
	<g transform="matrix(1, 0, 0, 1, -608.955322265625, -1129.89013671875)">
		<g>
			<path fill="none" stroke="#434343" stroke-width="5" stroke-linecap="square" stroke-miterlimit="10" d="M2382.415,2725.571
				h101.6v103.505h-101.6V2725.571z"/>
		</g>
	</g>
	<g transform="matrix(1, 0, 0, 1, -608.955322265625, -1129.89013671875)">
		<g>
			<path fill="#5EA647" d="M2380.545,2888.719h103.47v101.614h-103.47V2888.719z"/>
		</g>
	</g>
	<g transform="matrix(1, 0, 0, 1, -608.955322265625, -1129.89013671875)">
		<g>
			<path fill="none" stroke="#434343" stroke-width="5" stroke-linecap="square" stroke-miterlimit="10" d="M2380.545,2888.719
				h103.47v101.614h-103.47V2888.719z"/>
		</g>
	</g>
	<g transform="matrix(1, 0, 0, 1, -608.955322265625, -1129.89013671875)">
		<g>
			<path fill="#808080" d="M2587.002,2887.058v-59.643v55.667V2887.058z"/>
		</g>
	</g>
	<g transform="matrix(1, 0, 0, 1, -608.955322265625, -1129.89013671875)">
		<g>
			<path fill="none" stroke="#434343" stroke-width="5" stroke-linecap="square" stroke-miterlimit="10" d="M2587.002,2887.058
				v-59.643v55.667V2887.058z"/>
		</g>
	</g>
	<g transform="matrix(1, 0, 0, 1, -608.955322265625, -1129.89013671875)">
		<g>
			<path fill="#FFFF76" d="M1832.679,5149.341v-665.48h1221.74v665.48H1832.679z"/>
		</g>
	</g>
	<g transform="matrix(1, 0, 0, 1, -608.955322265625, -1129.89013671875)">
		<g>
			<path fill="none" stroke="#434343" stroke-width="5" stroke-linecap="square" stroke-miterlimit="10" d="M1832.679,5149.341
				v-665.48h1221.74v665.48H1832.679z"/>
		</g>
	</g>
	<g transform="matrix(1, 0, 0, 1, -608.955322265625, -1129.89013671875)">
		<g>
			<path fill="#5EA647" d="M1497.466,4732.237h220.829v385.192h-220.829V4732.237z"/>
		</g>
	</g>
	<g transform="matrix(1, 0, 0, 1, -608.955322265625, -1129.89013671875)">
		<g>
			<path fill="none" stroke="#434343" stroke-width="5" stroke-linecap="square" stroke-miterlimit="10" d="M1497.466,4732.237
				h220.829v385.192h-220.829V4732.237z"/>
		</g>
	</g>
	<g transform="matrix(1, 0, 0, 1, -608.955322265625, -1129.89013671875)">
		<g>
			<path fill="#5EA647" d="M2495.503,2618.472h182.88v370.2h-183.734L2495.503,2618.472z"/>
		</g>
	</g>
	<g transform="matrix(1, 0, 0, 1, -608.955322265625, -1129.89013671875)">
		<g>
			<path fill="none" stroke="#434343" stroke-width="5" stroke-linecap="square" stroke-miterlimit="10" d="M2495.503,2618.472
				h182.88v370.2h-183.734L2495.503,2618.472z"/>
		</g>
	</g>
	<g transform="matrix(1, 0, 0, 1, -608.955322265625, -1129.89013671875)">
		<g>
			<path fill="#FFFF76" d="M1836.5,4463.933v-726.44h1219.089l2.651,726.44H1836.5z"/>
		</g>
	</g>
	<g transform="matrix(1, 0, 0, 1, -608.955322265625, -1129.89013671875)">
		<g>
			<path fill="none" stroke="#434343" stroke-width="5" stroke-linecap="square" stroke-miterlimit="10" d="M1836.5,4463.933
				v-726.44h1219.089l2.651,726.44H1836.5z"/>
		</g>
	</g>
	<g transform="matrix(1, 0, 0, 1, -608.955322265625, -1129.89013671875)">
		<g>
			<path fill="#FFFF76" d="M1836.5,3716.314l-2.651-703.58h1221.74v703.58H1836.5z"/>
		</g>
	</g>
	<g transform="matrix(1, 0, 0, 1, -608.955322265625, -1129.89013671875)">
		<g>
			<path fill="none" stroke="#434343" stroke-width="5" stroke-linecap="square" stroke-miterlimit="10" d="M1836.5,3716.314
				l-2.651-703.58h1221.74v703.58H1836.5z"/>
		</g>
	</g>
	<g transform="matrix(1, 0, 0, 1, -608.955322265625, -1129.89013671875)">
		<g>
			<path fill="none" stroke="#434343" stroke-width="5" stroke-linecap="square" stroke-miterlimit="10" d="M4838.983,1138.26
				v2636.49h-622.958v-431.8h-525.897v-736.096h-350.52v396.24h-269.95v1083.257v1078.23H1410.933v-1764.03h0.107v-405.13h-403.86
				v-492.016l-3.81-0.052l0,0v-3.232H777.558l228.011-394.926h2334.04v398.736h3.81v3.81h346.71V1924.39v-786.13H4838.983z
				 M3682.508,1130.64v793.75v575.731h-335.28v-402.59h-7.62v0.044H999.877v2.239L767.66,2502.026l1.395,0.805l0,0v1.1l-0.053,3.81
				l230.558,3.18v492.177h7.62v-0.057h396.24v396.303h-0.107v1772.602h1.059v0.254h1672.907V4086.35V3010.714h269.509v-3.81h0.44
				v-392.43h335.28v736.096h525.897v427.99h3.81v3.81h630.578v-3.78h3.81V1134.45h-3.81v-3.81L3682.508,1130.64L3682.508,1130.64z"
				/>
		</g>
	</g>
	<g transform="matrix(1, 0, 0, 1, -608.955322265625, -1129.89013671875)">
		<g>
			<path fill="none" stroke="#434343" stroke-width="5" stroke-linecap="square" stroke-miterlimit="10" d="M3085.616,2487.669
				c0-62.515,50.679-113.194,113.195-113.194v113.194H3085.616z"/>
		</g>
	</g>
	<g transform="matrix(1, 0, 0, 1, -608.955322265625, -1129.89013671875)">
		<g>
			<path fill="#FFFFFF" d="M3205.755,2492.235h-127v-4.565h127V2492.235z"/>
		</g>
	</g>
	<g transform="matrix(1, 0, 0, 1, -608.955322265625, -1129.89013671875)">
		<g>
			<path fill="none" stroke="#434343" stroke-width="5" stroke-linecap="square" stroke-miterlimit="10" d="M3205.755,2492.235h-127
				v-4.565h127V2492.235z"/>
		</g>
	</g>
	<g transform="matrix(1, 0, 0, 1, -608.955322265625, -1129.89013671875)">
		<g>
			<path fill="none" stroke="#434343" stroke-width="5" stroke-linecap="square" stroke-miterlimit="10" d="M2711.397,2487.161
				c0-62.515,50.679-113.194,113.195-113.194v113.194H2711.397z"/>
		</g>
	</g>
	<g transform="matrix(1, 0, 0, 1, -608.955322265625, -1129.89013671875)">
		<g>
			<path fill="#FFFFFF" d="M2831.536,2491.726h-127v-4.565h127V2491.726z"/>
		</g>
	</g>
	<g transform="matrix(1, 0, 0, 1, -608.955322265625, -1129.89013671875)">
		<g>
			<path fill="none" stroke="#434343" stroke-width="5" stroke-linecap="square" stroke-miterlimit="10" d="M2831.536,2491.726h-127
				v-4.565h127V2491.726z"/>
		</g>
	</g>
	<g transform="matrix(1, 0, 0, 1, -608.955322265625, -1129.89013671875)">
		<g>
			<path fill="none" stroke="#434343" stroke-width="5" stroke-linecap="square" stroke-miterlimit="10" d="M2324.523,2488.075
				c0-62.515,50.679-113.194,113.195-113.194v113.194H2324.523z"/>
		</g>
	</g>
	<g transform="matrix(1, 0, 0, 1, -608.955322265625, -1129.89013671875)">
		<g>
			<path fill="#FFFFFF" d="M2444.662,2492.641h-127v-4.565h127V2492.641z"/>
		</g>
	</g>
	<g transform="matrix(1, 0, 0, 1, -608.955322265625, -1129.89013671875)">
		<g>
			<path fill="none" stroke="#434343" stroke-width="5" stroke-linecap="square" stroke-miterlimit="10" d="M2444.662,2492.641h-127
				v-4.565h127V2492.641z"/>
		</g>
	</g>
	<g transform="matrix(1, 0, 0, 1, -608.955322265625, -1129.89013671875)">
		<g>
			<path fill="none" stroke="#434343" stroke-width="5" stroke-linecap="square" stroke-miterlimit="10" d="M1978.158,2487.669
				c0-62.515,50.679-113.194,113.194-113.194v113.194H1978.158z"/>
		</g>
	</g>
	<g transform="matrix(1, 0, 0, 1, -608.955322265625, -1129.89013671875)">
		<g>
			<path fill="#FFFFFF" d="M2098.296,2492.235h-127v-4.565h127V2492.235z"/>
		</g>
	</g>
	<g transform="matrix(1, 0, 0, 1, -608.955322265625, -1129.89013671875)">
		<g>
			<path fill="none" stroke="#434343" stroke-width="5" stroke-linecap="square" stroke-miterlimit="10" d="M2098.296,2492.235h-127
				v-4.565h127V2492.235z"/>
		</g>
	</g>
	<g transform="matrix(1, 0, 0, 1, -608.955322265625, -1129.89013671875)">
		<g>
			<path fill="none" stroke="#434343" stroke-width="5" stroke-linecap="square" stroke-miterlimit="10" d="M1504.183,2487.669
				c0-62.515,50.679-113.194,113.194-113.194v113.194H1504.183z"/>
		</g>
	</g>
	<g transform="matrix(1, 0, 0, 1, -608.955322265625, -1129.89013671875)">
		<g>
			<path fill="#FFFFFF" d="M1624.322,2492.235h-127v-4.565h127V2492.235z"/>
		</g>
	</g>
	<g transform="matrix(1, 0, 0, 1, -608.955322265625, -1129.89013671875)">
		<g>
			<path fill="none" stroke="#434343" stroke-width="5" stroke-linecap="square" stroke-miterlimit="10" d="M1624.322,2492.235h-127
				v-4.565h127V2492.235z"/>
		</g>
	</g>
	<g transform="matrix(1, 0, 0, 1, -608.955322265625, -1129.89013671875)">
		<g>
			<path fill="none" stroke="#434343" stroke-width="5" stroke-linecap="square" stroke-miterlimit="10" d="M1125.915,2489.948
				c0-62.515,50.679-113.194,113.194-113.194v113.194H1125.915z"/>
		</g>
	</g>
	<g transform="matrix(1, 0, 0, 1, -608.955322265625, -1129.89013671875)">
		<g>
			<path fill="#FFFFFF" d="M1246.054,2494.513h-127v-4.565h127V2494.513z"/>
		</g>
	</g>
	<g transform="matrix(1, 0, 0, 1, -608.955322265625, -1129.89013671875)">
		<g>
			<path fill="none" stroke="#434343" stroke-width="5" stroke-linecap="square" stroke-miterlimit="10" d="M1246.054,2494.513h-127
				v-4.565h127V2494.513z"/>
		</g>
	</g>
	<g transform="matrix(1, 0, 0, 1, -608.955322265625, -1129.89013671875)">
		<g>
			<path fill="none" stroke="#434343" stroke-width="5" stroke-linecap="square" stroke-miterlimit="10" d="M1158.516,2620.137
				c0,62.515-50.679,113.194-113.194,113.194v-113.194H1158.516z"/>
		</g>
	</g>
	<g transform="matrix(1, 0, 0, 1, -608.955322265625, -1129.89013671875)">
		<g>
			<path fill="#FFFFFF" d="M1038.377,2615.572h127v4.565h-127V2615.572z"/>
		</g>
	</g>
	<g transform="matrix(1, 0, 0, 1, -608.955322265625, -1129.89013671875)">
		<g>
			<path fill="none" stroke="#434343" stroke-width="5" stroke-linecap="square" stroke-miterlimit="10" d="M1038.377,2615.572h127
				v4.565h-127V2615.572z"/>
		</g>
	</g>
	<g transform="matrix(1, 0, 0, 1, -608.955322265625, -1129.89013671875)">
		<g>
			<path fill="none" stroke="#434343" stroke-width="5" stroke-linecap="square" stroke-miterlimit="10" d="M2091.747,2620.776
				c0,62.515-50.679,113.194-113.194,113.194v-113.194H2091.747z"/>
		</g>
	</g>
	<g transform="matrix(1, 0, 0, 1, -608.955322265625, -1129.89013671875)">
		<g>
			<path fill="#FFFFFF" d="M1971.608,2616.21h127v4.565h-127L1971.608,2616.21L1971.608,2616.21z"/>
		</g>
	</g>
	<g transform="matrix(1, 0, 0, 1, -608.955322265625, -1129.89013671875)">
		<g>
			<path fill="none" stroke="#434343" stroke-width="5" stroke-linecap="square" stroke-miterlimit="10" d="M1971.608,2616.21h127
				v4.565h-127L1971.608,2616.21L1971.608,2616.21z"/>
		</g>
	</g>
	<g transform="matrix(1, 0, 0, 1, -608.955322265625, -1129.89013671875)">
		<g>
			<path fill="none" stroke="#434343" stroke-width="5" stroke-linecap="square" stroke-miterlimit="10" d="M1834.796,5011.488
				c62.516,0,113.194,50.679,113.194,113.194h-113.194V5011.488z"/>
		</g>
	</g>
	<g transform="matrix(1, 0, 0, 1, -608.955322265625, -1129.89013671875)">
		<g>
			<path fill="#FFFFFF" d="M1830.232,5131.627v-127h4.565v127H1830.232z"/>
		</g>
	</g>
	<g transform="matrix(1, 0, 0, 1, -608.955322265625, -1129.89013671875)">
		<g>
			<path fill="none" stroke="#434343" stroke-width="5" stroke-linecap="square" stroke-miterlimit="10" d="M1830.232,5131.627v-127
				h4.565v127H1830.232z"/>
		</g>
	</g>
	<g transform="matrix(1, 0, 0, 1, -608.955322265625, -1129.89013671875)">
		<g>
			<path fill="none" stroke="#434343" stroke-width="5" stroke-linecap="square" stroke-miterlimit="10" d="M3866.059,3030.665
				c0,62.515-50.679,113.194-113.195,113.194v-113.194H3866.059z"/>
		</g>
	</g>
	<g transform="matrix(1, 0, 0, 1, -608.955322265625, -1129.89013671875)">
		<g>
			<path fill="#FFFFFF" d="M3745.92,3026.099h127v4.565h-127V3026.099z"/>
		</g>
	</g>
	<g transform="matrix(1, 0, 0, 1, -608.955322265625, -1129.89013671875)">
		<g>
			<path fill="none" stroke="#434343" stroke-width="5" stroke-linecap="square" stroke-miterlimit="10" d="M3745.92,3026.099h127
				v4.565h-127V3026.099z"/>
		</g>
	</g>
	<g transform="matrix(1, 0, 0, 1, -608.955322265625, -1129.89013671875)">
		<g>
			<path fill="none" stroke="#434343" stroke-width="5" stroke-linecap="square" stroke-miterlimit="10" d="M4334.665,3597.93
				c62.516,0,113.194,50.679,113.194,113.195h-113.194V3597.93z"/>
		</g>
	</g>
	<g transform="matrix(1, 0, 0, 1, -608.955322265625, -1129.89013671875)">
		<g>
			<path fill="#FFFFFF" d="M4330.1,3718.069v-127h4.565v127H4330.1z"/>
		</g>
	</g>
	<g transform="matrix(1, 0, 0, 1, -608.955322265625, -1129.89013671875)">
		<g>
			<path fill="none" stroke="#434343" stroke-width="5" stroke-linecap="square" stroke-miterlimit="10" d="M4330.1,3718.069v-127
				h4.565v127H4330.1z"/>
		</g>
	</g>
	<g transform="matrix(1, 0, 0, 1, -608.955322265625, -1129.89013671875)">
		<g>
			<path fill="none" stroke="#434343" stroke-width="5" stroke-linecap="square" stroke-miterlimit="10" d="M4334.732,3345.513
				c62.516,0,113.194,50.679,113.194,113.195h-113.194V3345.513z"/>
		</g>
	</g>
	<g transform="matrix(1, 0, 0, 1, -608.955322265625, -1129.89013671875)">
		<g>
			<path fill="#FFFFFF" d="M4330.167,3465.652v-127h4.565v127H4330.167z"/>
		</g>
	</g>
	<g transform="matrix(1, 0, 0, 1, -608.955322265625, -1129.89013671875)">
		<g>
			<path fill="none" stroke="#434343" stroke-width="5" stroke-linecap="square" stroke-miterlimit="10" d="M4330.167,3465.652v-127
				h4.565v127H4330.167z"/>
		</g>
	</g>
	<g transform="matrix(1, 0, 0, 1, -608.955322265625, -1129.89013671875)">
		<g>
			<path fill="none" stroke="#434343" stroke-width="5" stroke-linecap="square" stroke-miterlimit="10" d="M4334.732,3111.3
				c62.516,0,113.194,50.679,113.194,113.195h-113.194V3111.3z"/>
		</g>
	</g>
	<g transform="matrix(1, 0, 0, 1, -608.955322265625, -1129.89013671875)">
		<g>
			<path fill="#FFFFFF" d="M4330.167,3231.439v-127h4.565v127H4330.167z"/>
		</g>
	</g>
	<g transform="matrix(1, 0, 0, 1, -608.955322265625, -1129.89013671875)">
		<g>
			<path fill="none" stroke="#434343" stroke-width="5" stroke-linecap="square" stroke-miterlimit="10" d="M4330.167,3231.439v-127
				h4.565v127H4330.167z"/>
		</g>
	</g>
	<g transform="matrix(1, 0, 0, 1, -608.955322265625, -1129.89013671875)">
		<g>
			<path fill="none" stroke="#434343" stroke-width="5" stroke-linecap="square" stroke-miterlimit="10" d="M4333.138,2878.817
				c62.516,0,113.194,50.679,113.194,113.195h-113.194V2878.817z"/>
		</g>
	</g>
	<g transform="matrix(1, 0, 0, 1, -608.955322265625, -1129.89013671875)">
		<g>
			<path fill="#FFFFFF" d="M4328.573,2998.956v-127h4.565v127H4328.573z"/>
		</g>
	</g>
	<g transform="matrix(1, 0, 0, 1, -608.955322265625, -1129.89013671875)">
		<g>
			<path fill="none" stroke="#434343" stroke-width="5" stroke-linecap="square" stroke-miterlimit="10" d="M4328.573,2998.956v-127
				h4.565v127H4328.573z"/>
		</g>
	</g>
	<g transform="matrix(1, 0, 0, 1, -608.955322265625, -1129.89013671875)">
		<g>
			<path fill="none" stroke="#434343" stroke-width="5" stroke-linecap="square" stroke-miterlimit="10" d="M4333.205,2702.809
				c62.516,0,113.194,50.679,113.194,113.195h-113.194V2702.809z"/>
		</g>
	</g>
	<g transform="matrix(1, 0, 0, 1, -608.955322265625, -1129.89013671875)">
		<g>
			<path fill="#FFFFFF" d="M4328.64,2822.948v-127h4.565v127H4328.64z"/>
		</g>
	</g>
	<g transform="matrix(1, 0, 0, 1, -608.955322265625, -1129.89013671875)">
		<g>
			<path fill="none" stroke="#434343" stroke-width="5" stroke-linecap="square" stroke-miterlimit="10" d="M4328.64,2822.948v-127
				h4.565v127H4328.64z"/>
		</g>
	</g>
	<g transform="matrix(1, 0, 0, 1, -608.955322265625, -1129.89013671875)">
		<g>
			<path fill="none" stroke="#434343" stroke-width="5" stroke-linecap="square" stroke-miterlimit="10" d="M4333.272,2510.191
				c62.516,0,113.194,50.679,113.194,113.195h-113.194V2510.191z"/>
		</g>
	</g>
	<g transform="matrix(1, 0, 0, 1, -608.955322265625, -1129.89013671875)">
		<g>
			<path fill="#FFFFFF" d="M4328.707,2630.33v-127h4.565v127H4328.707z"/>
		</g>
	</g>
	<g transform="matrix(1, 0, 0, 1, -608.955322265625, -1129.89013671875)">
		<g>
			<path fill="none" stroke="#434343" stroke-width="5" stroke-linecap="square" stroke-miterlimit="10" d="M4328.707,2630.33v-127
				h4.565v127H4328.707z"/>
		</g>
	</g>
	<g transform="matrix(1, 0, 0, 1, -608.955322265625, -1129.89013671875)">
		<g>
			<path fill="none" stroke="#434343" stroke-width="5" stroke-linecap="square" stroke-miterlimit="10" d="M4331.477,1539.984
				c62.516,0,113.194,50.679,113.194,113.194h-113.194V1539.984z"/>
		</g>
	</g>
	<g transform="matrix(1, 0, 0, 1, -608.955322265625, -1129.89013671875)">
		<g>
			<path fill="#FFFFFF" d="M4326.912,1660.123v-127h4.565v127H4326.912z"/>
		</g>
	</g>
	<g transform="matrix(1, 0, 0, 1, -608.955322265625, -1129.89013671875)">
		<g>
			<path fill="none" stroke="#434343" stroke-width="5" stroke-linecap="square" stroke-miterlimit="10" d="M4326.912,1660.123v-127
				h4.565v127H4326.912z"/>
		</g>
	</g>
	<g transform="matrix(1, 0, 0, 1, -608.955322265625, -1129.89013671875)">
		<g>
			<path fill="none" stroke="#434343" stroke-width="5" stroke-linecap="square" stroke-miterlimit="10" d="M4331.478,2053.258
				c62.516,0,113.194,50.679,113.194,113.195h-113.194V2053.258z"/>
		</g>
	</g>
	<g transform="matrix(1, 0, 0, 1, -608.955322265625, -1129.89013671875)">
		<g>
			<path fill="#FFFFFF" d="M4326.912,2173.397v-127h4.565v127H4326.912z"/>
		</g>
	</g>
	<g transform="matrix(1, 0, 0, 1, -608.955322265625, -1129.89013671875)">
		<g>
			<path fill="none" stroke="#434343" stroke-width="5" stroke-linecap="square" stroke-miterlimit="10" d="M4326.912,2173.397v-127
				h4.565v127H4326.912z"/>
		</g>
	</g>
	<g transform="matrix(1, 0, 0, 1, -608.955322265625, -1129.89013671875)">
		<g>
			<path fill="none" stroke="#434343" stroke-width="5" stroke-linecap="square" stroke-miterlimit="10" d="M4331.41,2305.676
				c62.516,0,113.194,50.679,113.194,113.195H4331.41V2305.676z"/>
		</g>
	</g>
	<g transform="matrix(1, 0, 0, 1, -608.955322265625, -1129.89013671875)">
		<g>
			<path fill="#FFFFFF" d="M4326.845,2425.814v-127h4.565v127H4326.845z"/>
		</g>
	</g>
	<g transform="matrix(1, 0, 0, 1, -608.955322265625, -1129.89013671875)">
		<g>
			<path fill="none" stroke="#434343" stroke-width="5" stroke-linecap="square" stroke-miterlimit="10" d="M4326.845,2425.814v-127
				h4.565v127H4326.845z"/>
		</g>
	</g>
	<g transform="matrix(1, 0, 0, 1, -608.955322265625, -1129.89013671875)">
		<g>
			<path fill="none" stroke="#434343" stroke-width="5" stroke-linecap="square" stroke-miterlimit="10" d="M4331.544,1330.755
				c62.516,0,113.194,50.679,113.194,113.194h-113.194V1330.755z"/>
		</g>
	</g>
	<g transform="matrix(1, 0, 0, 1, -608.955322265625, -1129.89013671875)">
		<g>
			<path fill="#FFFFFF" d="M4326.979,1450.894v-127h4.565v127H4326.979z"/>
		</g>
	</g>
	<g transform="matrix(1, 0, 0, 1, -608.955322265625, -1129.89013671875)">
		<g>
			<path fill="none" stroke="#434343" stroke-width="5" stroke-linecap="square" stroke-miterlimit="10" d="M4326.979,1450.894v-127
				h4.565v127H4326.979z"/>
		</g>
	</g>
	<g transform="matrix(1, 0, 0, 1, -608.955322265625, -1129.89013671875)">
		<g>
			<path fill="none" stroke="#434343" stroke-width="5" stroke-linecap="square" stroke-miterlimit="10" d="M4190.623,1442.439
				c-62.516,0-113.194-50.679-113.194-113.194h113.194V1442.439z"/>
		</g>
	</g>
	<g transform="matrix(1, 0, 0, 1, -608.955322265625, -1129.89013671875)">
		<g>
			<path fill="#FFFFFF" d="M4195.188,1322.3v127h-4.565v-127H4195.188z"/>
		</g>
	</g>
	<g transform="matrix(1, 0, 0, 1, -608.955322265625, -1129.89013671875)">
		<g>
			<path fill="none" stroke="#434343" stroke-width="5" stroke-linecap="square" stroke-miterlimit="10" d="M4195.188,1322.3v127
				h-4.565v-127H4195.188z"/>
		</g>
	</g>
	<g transform="matrix(1, 0, 0, 1, -608.955322265625, -1129.89013671875)">
		<g>
			<path fill="none" stroke="#434343" stroke-width="5" stroke-linecap="square" stroke-miterlimit="10" d="M4192.351,1703.296
				c-62.516,0-113.194-50.679-113.194-113.194h113.194V1703.296z"/>
		</g>
	</g>
	<g transform="matrix(1, 0, 0, 1, -608.955322265625, -1129.89013671875)">
		<g>
			<path fill="#FFFFFF" d="M4196.916,1583.157v127h-4.565v-127H4196.916z"/>
		</g>
	</g>
	<g transform="matrix(1, 0, 0, 1, -608.955322265625, -1129.89013671875)">
		<g>
			<path fill="none" stroke="#434343" stroke-width="5" stroke-linecap="square" stroke-miterlimit="10" d="M4196.916,1583.157v127
				h-4.565v-127H4196.916z"/>
		</g>
	</g>
	<g transform="matrix(1, 0, 0, 1, -608.955322265625, -1129.89013671875)">
		<g>
			<path fill="none" stroke="#434343" stroke-width="5" stroke-linecap="square" stroke-miterlimit="10" d="M4194.079,1935.914
				c-62.516,0-113.194-50.679-113.194-113.194h113.194V1935.914z"/>
		</g>
	</g>
	<g transform="matrix(1, 0, 0, 1, -608.955322265625, -1129.89013671875)">
		<g>
			<path fill="#FFFFFF" d="M4198.644,1815.775v127h-4.565v-127H4198.644z"/>
		</g>
	</g>
	<g transform="matrix(1, 0, 0, 1, -608.955322265625, -1129.89013671875)">
		<g>
			<path fill="none" stroke="#434343" stroke-width="5" stroke-linecap="square" stroke-miterlimit="10" d="M4198.644,1815.775v127
				h-4.565v-127H4198.644z"/>
		</g>
	</g>
	<g transform="matrix(1, 0, 0, 1, -608.955322265625, -1129.89013671875)">
		<g>
			<path fill="none" stroke="#434343" stroke-width="5" stroke-linecap="square" stroke-miterlimit="10" d="M4192.418,2175.11
				c-62.516,0-113.194-50.679-113.194-113.195h113.194V2175.11z"/>
		</g>
	</g>
	<g transform="matrix(1, 0, 0, 1, -608.955322265625, -1129.89013671875)">
		<g>
			<path fill="#FFFFFF" d="M4196.983,2054.971v127h-4.565v-127H4196.983z"/>
		</g>
	</g>
	<g transform="matrix(1, 0, 0, 1, -608.955322265625, -1129.89013671875)">
		<g>
			<path fill="none" stroke="#434343" stroke-width="5" stroke-linecap="square" stroke-miterlimit="10" d="M4196.983,2054.971v127
				h-4.565v-127H4196.983z"/>
		</g>
	</g>
	<g transform="matrix(1, 0, 0, 1, -608.955322265625, -1129.89013671875)">
		<g>
			<path fill="none" stroke="#434343" stroke-width="5" stroke-linecap="square" stroke-miterlimit="10" d="M4194.146,2407.728
				c-62.516,0-113.194-50.679-113.194-113.195h113.194V2407.728z"/>
		</g>
	</g>
	<g transform="matrix(1, 0, 0, 1, -608.955322265625, -1129.89013671875)">
		<g>
			<path fill="#FFFFFF" d="M4198.711,2287.589v127h-4.565v-127H4198.711z"/>
		</g>
	</g>
	<g transform="matrix(1, 0, 0, 1, -608.955322265625, -1129.89013671875)">
		<g>
			<path fill="none" stroke="#434343" stroke-width="5" stroke-linecap="square" stroke-miterlimit="10" d="M4198.711,2287.589v127
				h-4.565v-127H4198.711z"/>
		</g>
	</g>
	<g transform="matrix(1, 0, 0, 1, -608.955322265625, -1129.89013671875)">
		<g>
			<path fill="none" stroke="#434343" stroke-width="5" stroke-linecap="square" stroke-miterlimit="10" d="M2644.954,2620.843
				c0,62.515-50.679,113.194-113.195,113.194v-113.194H2644.954z"/>
		</g>
	</g>
	<g transform="matrix(1, 0, 0, 1, -608.955322265625, -1129.89013671875)">
		<g>
			<path fill="#FFFFFF" d="M2524.815,2616.277h127v4.565h-127V2616.277z"/>
		</g>
	</g>
	<g transform="matrix(1, 0, 0, 1, -608.955322265625, -1129.89013671875)">
		<g>
			<path fill="none" stroke="#434343" stroke-width="5" stroke-linecap="square" stroke-miterlimit="10" d="M2524.815,2616.277h127
				v4.565h-127V2616.277z"/>
		</g>
	</g>
	<g transform="matrix(1, 0, 0, 1, -608.955322265625, -1129.89013671875)">
		<g>
			<path fill="none" stroke="#434343" stroke-width="5" stroke-linecap="square" stroke-miterlimit="10" d="M3004.139,2636.522
				c0,62.515-50.679,113.194-113.195,113.194v-113.194H3004.139z"/>
		</g>
	</g>
	<g transform="matrix(1, 0, 0, 1, -608.955322265625, -1129.89013671875)">
		<g>
			<path fill="#FFFFFF" d="M2884,2631.957h127v4.565h-127V2631.957z"/>
		</g>
	</g>
	<g transform="matrix(1, 0, 0, 1, -608.955322265625, -1129.89013671875)">
		<g>
			<path fill="none" stroke="#434343" stroke-width="5" stroke-linecap="square" stroke-miterlimit="10" d="M2884,2631.957h127
				v4.565h-127V2631.957z"/>
		</g>
	</g>
	<g transform="matrix(1, 0, 0, 1, -608.955322265625, -1129.89013671875)">
		<g>
			<path fill="none" stroke="#434343" stroke-width="5" stroke-linecap="square" stroke-miterlimit="10" d="M3266.657,2636.589
				c0,62.515-50.679,113.194-113.195,113.194v-113.194H3266.657z"/>
		</g>
	</g>
	<g transform="matrix(1, 0, 0, 1, -608.955322265625, -1129.89013671875)">
		<g>
			<path fill="#FFFFFF" d="M3146.518,2632.024h127v4.565h-127V2632.024z"/>
		</g>
	</g>
	<g transform="matrix(1, 0, 0, 1, -608.955322265625, -1129.89013671875)">
		<g>
			<path fill="none" stroke="#434343" stroke-width="5" stroke-linecap="square" stroke-miterlimit="10" d="M3146.518,2632.024h127
				v4.565h-127V2632.024z"/>
		</g>
	</g>
	<g transform="matrix(1, 0, 0, 1, -608.955322265625, -1129.89013671875)">
		<g>
			<path fill="none" stroke="#434343" stroke-width="5" stroke-linecap="square" stroke-miterlimit="10" d="M1838.617,4326.08
				c62.516,0,113.194,50.679,113.194,113.194h-113.194V4326.08z"/>
		</g>
	</g>
	<g transform="matrix(1, 0, 0, 1, -608.955322265625, -1129.89013671875)">
		<g>
			<path fill="#FFFFFF" d="M1834.052,4446.219v-127h4.565v127H1834.052z"/>
		</g>
	</g>
	<g transform="matrix(1, 0, 0, 1, -608.955322265625, -1129.89013671875)">
		<g>
			<path fill="none" stroke="#434343" stroke-width="5" stroke-linecap="square" stroke-miterlimit="10" d="M1834.052,4446.219v-127
				h4.565v127H1834.052z"/>
		</g>
	</g>
	<g transform="matrix(1, 0, 0, 1, -608.955322265625, -1129.89013671875)">
		<g>
			<path fill="none" stroke="#434343" stroke-width="5" stroke-linecap="square" stroke-miterlimit="10" d="M1835.966,3540.361
				c62.516,0,113.194,50.679,113.194,113.195h-113.194V3540.361z"/>
		</g>
	</g>
	<g transform="matrix(1, 0, 0, 1, -608.955322265625, -1129.89013671875)">
		<g>
			<path fill="#FFFFFF" d="M1831.401,3660.5v-127h4.565v127H1831.401z"/>
		</g>
	</g>
	<g transform="matrix(1, 0, 0, 1, -608.955322265625, -1129.89013671875)">
		<g>
			<path fill="none" stroke="#434343" stroke-width="5" stroke-linecap="square" stroke-miterlimit="10" d="M1831.401,3660.5v-127
				h4.565v127H1831.401z"/>
		</g>
	</g>
</g>
</svg>
