<?xml version="1.0" encoding="utf-8"?>
<!-- Generator: Adobe Illustrator 19.0.1, SVG Export Plug-In . SVG Version: 6.00 Build 0)  -->
<svg version="1.1" id="Шар_1" xmlns="http://www.w3.org/2000/svg" xmlns:xlink="http://www.w3.org/1999/xlink" x="0px" y="0px"
	 viewBox="0 0 600 1524" width="600" height="1524" enable-background="new 0 0 600 1524" xml:space="preserve">
<g>
	<defs>
		<path id="SVGID_1_" d="M0,1525h600V1H85.9C38.4,1,0,39.4,0,86.8V1525"/>
	</defs>
	<clipPath id="SVGID_2_">
		<use xlink:href="#SVGID_1_"  overflow="visible"/>
	</clipPath>
	
		<line clip-path="url(#SVGID_2_)" fill="none" stroke="#000000" stroke-width="0.7126" stroke-linecap="round" stroke-linejoin="round" stroke-miterlimit="10" x1="260.8" y1="196.4" x2="254.3" y2="196.4"/>
	
		<line clip-path="url(#SVGID_2_)" fill="none" stroke="#000000" stroke-width="0.7126" stroke-linecap="round" stroke-linejoin="round" stroke-miterlimit="10" x1="238" y1="196.4" x2="231.4" y2="196.4"/>
	<g id="XMLID_1_" clip-path="url(#SVGID_2_)">
		<g>
			<polygon fill="#6DB258" points="430.6,189.9 430.6,165.4 430.6,162.2 430.6,137.7 463.2,137.7 463.2,189.9 			"/>
			<polygon fill="#6DB258" points="430.6,1426.5 430.6,1402 430.6,1398.8 430.6,1374.3 463.2,1374.3 463.2,1426.5 			"/>
			<path fill="#FDF9D6" d="M451.8,754.4h11.4v55.5h-39.2v-55.5h11.4v-3.3v0c0.1-3.3,1.1-6.6,3-9.4l13.4,9.4V754.4z"/>
			<rect x="424.1" y="137.7" fill="#6DB258" width="6.5" height="24.5"/>
			<rect x="424.1" y="165.4" fill="#6DB258" width="6.5" height="24.5"/>
			<rect x="424.1" y="1374.3" fill="#6DB258" width="6.5" height="24.5"/>
			<rect x="424.1" y="1402" fill="#6DB258" width="6.5" height="24.5"/>
			<rect x="417.5" y="137.7" fill="#6DB258" width="6.5" height="24.5"/>
			<rect x="417.5" y="165.4" fill="#6DB258" width="6.5" height="24.5"/>
			<rect x="417.5" y="1374.3" fill="#6DB258" width="6.5" height="24.5"/>
			<rect x="417.5" y="1402" fill="#6DB258" width="6.5" height="24.5"/>
			<rect x="411" y="137.7" fill="#6DB258" width="6.5" height="24.5"/>
			<rect x="411" y="165.4" fill="#6DB258" width="6.5" height="24.5"/>
			<rect x="411" y="1374.3" fill="#6DB258" width="6.5" height="24.5"/>
			<rect x="411" y="1402" fill="#6DB258" width="6.5" height="24.5"/>
			<polygon fill="#FFFFFF" points="414.3,803.3 394.7,782.1 414.3,760.9 			"/>
			<polygon fill="#FFFFFF" points="414.3,760.9 394.7,782.1 375.1,760.9 			"/>
			<polygon fill="#FFFFFF" points="375.1,803.3 394.7,782.1 414.3,803.3 			"/>
			<rect x="404.5" y="137.7" fill="#6DB258" width="6.5" height="24.5"/>
			<rect x="404.5" y="165.4" fill="#6DB258" width="6.5" height="24.5"/>
			<rect x="404.5" y="1374.3" fill="#6DB258" width="6.5" height="24.5"/>
			<rect x="404.5" y="1402" fill="#6DB258" width="6.5" height="24.5"/>
			<rect x="397.9" y="137.7" fill="#6DB258" width="6.5" height="24.5"/>
			<rect x="397.9" y="165.4" fill="#6DB258" width="6.5" height="24.5"/>
			<rect x="397.9" y="1374.3" fill="#6DB258" width="6.5" height="24.5"/>
			<rect x="397.9" y="1402" fill="#6DB258" width="6.5" height="24.5"/>
			<path fill="#FFFFFF" d="M365.3,172h-9.8c-3.3-0.1-6.6-1.1-9.4-3l9.4-13.4h9.8v-17.9h32.7v24.5h6.5h6.5h6.5h6.5h6.5v3.3h-6.5h-6.5
				H411h-6.5h-6.5v24.5h-32.7V172z"/>
			<path fill="#FFFFFF" d="M365.3,1408.6h-9.8h0c-3.3-0.1-6.6-1.1-9.4-2.9l9.4-13.4h9.8v-17.9h32.7v24.5h6.5h6.5h6.5h6.5h6.5v3.3
				h-6.5h-6.5H411h-6.5h-6.5v24.5h-32.7V1408.6z"/>
			<polygon fill="#FFFFFF" points="375.1,760.9 394.7,782.1 375.1,803.3 375.1,796.8 375.1,782.1 375.1,767.4 			"/>
			<rect x="368.6" y="767.4" fill="#FFFFFF" width="6.5" height="14.7"/>
			<rect x="368.6" y="782.1" fill="#FFFFFF" width="6.5" height="14.7"/>
			<polygon fill="#FFFFFF" points="365.3,809.8 339.2,809.8 339.2,754.4 365.3,754.4 365.3,767.4 368.6,767.4 368.6,782.1 
				368.6,796.8 365.3,796.8 			"/>
			<polygon fill="#6DB258" points="358.8,1346.6 355.5,1346.6 355.5,1346.6 346.1,1343.6 355.5,1330.3 358.8,1330.3 358.8,1312.3 
				463.2,1312.3 463.2,1364.5 358.8,1364.5 			"/>
			<path fill="#6DB258" d="M346.1,1343.6l9.4,2.9C352.2,1346.5,348.9,1345.5,346.1,1343.6z"/>
			<path fill="#FDF9D6" d="M339.2,233.9h-3.2c-3.3-0.1-6.6-1.1-9.4-2.9l9.4-13.4h3.2v-17.9h124.1v52.2H339.2V233.9z"/>
			<path fill="#FAF18B" d="M335.9,470.5c-3.3-0.1-6.6-1.1-9.4-3l9.4-13.3h3.2v-199h124.1v231.7H339.2v-16.3H335.9z"/>
			<path fill="#FDF9D6" d="M335.9,555.3c-3.3-0.1-6.6-1.1-9.4-2.9l9.4-13.4h3.2v-48.9h124.1v114.2H339.2v-48.9H335.9z"/>
			<path fill="#FDF9D6" d="M339.2,672.8h-3.2v0l-9.4-2.9l9.4-13.4h3.2v-48.9h124.1v143.6h-11.4l-13.4-9.4c-1.8,2.8-2.9,6-3,9.4v0
				h-96.3V672.8z"/>
			<path fill="#FAF18B" d="M335.9,907.7c-3.3-0.1-6.6-1.1-9.4-2.9l9.4-13.4h3.2v-78.3h0.1h124v143.6H339.2v-48.9H335.9z"/>
			<path fill="#FAF18B" d="M335.9,1025.2c-3.3-0.1-6.6-1.1-9.4-2.9l9.4-13.4h3.2v-48.9h124.1v231.7H339.2v-166.4H335.9z"/>
			<path fill="#FFFFFF" d="M273.4,176.5c-2.8-1.9-6-2.9-9.4-3h0v-35.9h91.4v17.9l-9.4,13.4c2.8,1.9,6,2.9,9.4,3v24.5h-19.6v21.2
				l-9.4,13.4c2.8,1.8,6,2.9,9.4,2.9v220.2l-9.4,13.3c2.8,1.9,6,2.9,9.4,3V539l-9.4,13.4c2.8,1.8,6,2.9,9.4,2.9v101.1l-9.4,13.4
				c2.8,1.8,6,2.9,9.4,2.9v0v81.6v55.5v29.4v3.3v48.9l-9.4,13.4c2.8,1.9,6,2.9,9.4,2.9v101.1l-9.4,13.4c2.8,1.8,6,2.9,9.4,2.9v218.6
				l-9.4,13.4c2.8,1.8,6,2.9,9.4,2.9v52.2h19.6v17.9l-9.4,13.4c2.8,1.8,6,2.9,9.4,2.9v45.7l-9.4,13.4c2.8,1.8,6,2.9,9.4,2.9l0,17.9
				h-91.4v-48.9l9.4-13.4l0,0c-2.8-1.8-6-2.9-9.4-2.9h0v-101.1l9.4-13.4c-2.8-1.9-6-2.9-9.4-3h0v-101.1l9.4-13.4l0,0
				c-2.8-1.8-6-2.9-9.4-2.9h0v-101.1l9.4-13.4c-2.8-1.9-6-2.9-9.4-3h0V907.7l9.4-13.4l0,0c-2.8-1.8-6-2.9-9.4-2.9h0v-48.9v-3.3
				v-48.9l9.4-13.4c-2.8-1.9-6-2.9-9.4-3h0V672.8l9.4-13.4l0,0c-2.8-1.8-6-2.9-9.4-2.9h0V526l9.4-13.4v0c-2.8-1.9-6-2.9-9.4-2.9h0
				v-71.8l9.4-13.4l0,0c-2.8-1.8-6-2.9-9.4-2.9h0V320.4l9.4-13.4l0,0c-2.8-1.9-6-2.9-9.4-3h0V189.9L273.4,176.5z"/>
			<path fill="#FAF18B" d="M335.9,1260.1c-3.3-0.1-6.6-1.1-9.4-2.9l9.4-13.4h3.2v-48.9h124.1V1309H339.2v-48.9L335.9,1260.1
				L335.9,1260.1z"/>
			<path fill="#FDF9D6" d="M335.9,672.8c-3.3-0.1-6.6-1.1-9.4-2.9L335.9,672.8z"/>
			<path fill="#FAF18B" d="M273.4,512.6l-9.4-2.9C267.4,509.7,270.7,510.7,273.4,512.6z"/>
			<polygon fill="#FAF18B" points="260.8,545.5 221.6,545.5 218.4,545.5 136.8,545.5 136.8,490.1 218.4,490.1 221.6,490.1 
				260.8,490.1 260.8,509.7 264.1,509.7 264.1,509.6 264.1,509.6 273.4,512.6 273.4,512.6 264.1,526 260.8,526 			"/>
			<path fill="#FFFFFF" d="M339.2,809.8h26.1v-13h3.3h6.5v6.5h39.2v-42.4h-39.2v6.5h-6.5h-3.3v-13h-26.1V809.8z M260.8,490.1h-39.2
				h-3.3h-81.6v55.5h81.6h3.3h39.2V526h3.3v130.5v0h-3.3v-48.9h-16.3h0v-3.3h16.3v-55.5H136.8v55.5h91.4v3.3h-91.4v97.9h124.1v-32.6
				h3.3v101.1v0h-3.3v-65.3H136.8v130.5h124.1v-48.9h3.3v48.9v3.3v48.9h-3.3v-48.9H136.8v114.2h124.1v-48.9h3.3v101.1v0h-3.3v-48.9
				H136.8v114.2h53.9H207h53.9v-48.9h3.3v101.1v0h-3.3v-48.9H207h-16.3h-53.9v114.2h124.1v-48.9h3.3v101.1v0h-3.3v-48.9H136.8V1309
				h124.1v-48.9h3.3v101.1v0h-3.3v-48.9H136.8v114.2h124.1v-48.9h3.3v48.9h91.4l0-17.9h0h9.8v17.9h32.7h6.5h6.5h6.5h6.5h6.5h32.6
				v-52.2h-32.6h-6.5h-6.5H411h-6.5h-6.5h-32.7v17.9h-9.8v-45.7v0h3.3v17.9h104.5v-52.2H358.8v17.9h-3.3v-17.9h-19.6v-52.2v0h3.2
				v48.9h124.1v-114.2H339.2v48.9h-3.2v-218.6h3.2v166.4h124.1V959.9H339.2v48.9h-3.2V907.7h3.2v48.9h124.1V813.1h-124h-0.1v78.3
				h-3.2v-48.9v-3.3v-29.4v-55.5v-81.6h3.2v78.3h96.3v3.3h-11.4v55.5h39.2v-55.5h-11.4v-3.3h11.4V607.5H339.2v48.9h-3.2V555.3h3.2
				v48.9h124.1V490.1H339.2V539h-3.2v-68.5h3.2v16.3h124.1V255.2H339.2v199h-3.2V233.9h3.2v17.9h124.1v-52.2H339.2v17.9h-3.2v-21.2
				h19.6V172h9.8v17.9h32.7h6.5h6.5h6.5h6.5h6.5h32.6v-52.2h-32.6h-6.5h-6.5H411h-6.5h-6.5h-32.7v17.9h-9.8v-17.9h-91.4v35.9v0h-3.3
				v-6.5v-3.3v-26.1H136.8v58.7h91.4h3.3h6.5v3.3H136.8v169.7h124.1v-48.9h3.3v101.1h-3.3v-48.9H136.8v114.2h124.1v-48.9h3.3v71.8v0
				h-3.3V490.1z M473,1436.3H127V127.9H473V1436.3z"/>
			<path fill="#FDF9D6" d="M260.8,486.8H136.8V372.6h124.1v48.9h3.3h0c3.3,0.1,6.6,1.1,9.4,2.9l0,0l-9.4,13.4h-3.3V486.8z"/>
			<path fill="#FDF9D6" d="M260.8,956.7H136.8V842.5h124.1v48.9h3.3h0c3.3,0.1,6.6,1.1,9.4,2.9l0,0l-9.4,13.4h-3.3V956.7z"/>
			<path fill="#FAF18B" d="M260.8,1426.5H136.8v-114.2h124.1v48.9h3.3v0h0c3.3,0.1,6.6,1.1,9.4,2.9l0,0l-9.4,13.4h-3.3V1426.5z"/>
			<path fill="#FAF18B" d="M260.8,1309H136.8v-114.2h124.1v48.9h3.3v0h0c3.3,0.1,6.6,1.1,9.4,3l-9.4,13.4h-3.3V1309z"/>
			<path fill="#FAF18B" d="M260.8,1191.6H136.8v-114.2h53.9H207h53.9v48.9h3.3v0h0c3.3,0.1,6.6,1.1,9.4,2.9l0,0l-9.4,13.4h-3.3
				V1191.6z"/>
			<path fill="#FDF9D6" d="M260.8,1074.1H207h-16.3h-53.9V959.9h124.1v48.9h3.3v0h0c3.3,0.1,6.6,1.1,9.4,3l-9.4,13.4h-3.3V1074.1z"
				/>
			<path fill="#FAF18B" d="M260.8,839.2H136.8V708.7h124.1v65.3h3.3v0h0c3.3,0.1,6.6,1.1,9.4,3l-9.4,13.4h-3.3V839.2z"/>
			<path fill="#FDF9D6" d="M136.8,607.5h91.4l13.4,9.3h0c1.9-2.8,2.9-6,3-9.3h16.3v48.9h3.3v0h0c3.3,0.1,6.6,1.1,9.4,2.9l0,0
				l-9.4,13.4h-3.3v32.6H136.8V607.5z"/>
			<path fill="#FAF18B" d="M260.8,369.4H136.8V199.7H238l13.4,9.4l0,0c1.8-2.8,2.9-6,3-9.4h6.5v104.4h3.3v0h0c3.3,0.1,6.6,1.1,9.4,3
				l0,0l-9.4,13.4h-3.3V369.4z"/>
			<path fill="#FDF9D6" d="M228.2,196.4h-91.4v-58.7h124.1v26.1v3.3v6.5h3.3v0h0c3.3,0.1,6.6,1.1,9.4,3l-9.4,13.4h-3.3v6.5h-6.5v3.3
				h0c-0.1,3.3-1.1,6.6-3,9.4l0,0l-13.4-9.4v-3.3h-6.5H228.2z"/>
			<polygon fill="#FFFFFF" points="260.8,199.7 254.3,199.7 254.3,199.7 254.3,196.4 260.8,196.4 260.8,189.9 264.1,189.9 
				264.1,304.1 264.1,304.1 260.8,304.1 			"/>
			<path fill="#FDF9D6" d="M228.2,604.3h-91.4v-55.5h124.1v55.5h-16.3v3.3h0c-0.1,3.3-1.1,6.6-3,9.3h0l-13.4-9.3V604.3z"/>
		</g>
		<g>
			
				<polyline fill="none" stroke="#000000" stroke-width="0.7126" stroke-linecap="round" stroke-linejoin="round" stroke-miterlimit="10" points="
				375.1,767.4 375.1,782.1 375.1,796.8 			"/>
			
				<polyline fill="none" stroke="#000000" stroke-width="0.7126" stroke-linecap="round" stroke-linejoin="round" stroke-miterlimit="10" points="
				375.1,760.9 394.7,782.1 414.3,803.3 			"/>
			
				<polyline fill="none" stroke="#000000" stroke-width="0.7126" stroke-linecap="round" stroke-linejoin="round" stroke-miterlimit="10" points="
				375.1,803.3 394.7,782.1 414.3,760.9 			"/>
			
				<line fill="none" stroke="#000000" stroke-width="0.7126" stroke-linecap="round" stroke-linejoin="round" stroke-miterlimit="10" x1="368.6" y1="782.1" x2="375.1" y2="782.1"/>
			
				<line fill="none" stroke="#000000" stroke-width="0.7126" stroke-linecap="round" stroke-linejoin="round" stroke-miterlimit="10" x1="355.5" y1="1392.2" x2="346.1" y2="1405.6"/>
			
				<polyline fill="none" stroke="#000000" stroke-width="0.7126" stroke-linecap="round" stroke-linejoin="round" stroke-miterlimit="10" points="
				355.5,155.6 346.1,169 346.1,169 			"/>
			
				<path fill="none" stroke="#000000" stroke-width="0.7126" stroke-linecap="round" stroke-linejoin="round" stroke-miterlimit="10" d="
				M346.1,169c2.8,1.9,6,2.9,9.4,3"/>
			
				<line fill="none" stroke="#000000" stroke-width="0.7126" stroke-linecap="round" stroke-linejoin="round" stroke-miterlimit="10" x1="264.1" y1="1377.6" x2="273.4" y2="1364.2"/>
			
				<line fill="none" stroke="#000000" stroke-width="0.7126" stroke-linecap="round" stroke-linejoin="round" stroke-miterlimit="10" x1="264.1" y1="1260.1" x2="273.4" y2="1246.7"/>
			
				<line fill="none" stroke="#000000" stroke-width="0.7126" stroke-linecap="round" stroke-linejoin="round" stroke-miterlimit="10" x1="264.1" y1="1142.6" x2="273.4" y2="1129.3"/>
			
				<line fill="none" stroke="#000000" stroke-width="0.7126" stroke-linecap="round" stroke-linejoin="round" stroke-miterlimit="10" x1="264.1" y1="790.3" x2="273.4" y2="776.9"/>
			
				<line fill="none" stroke="#000000" stroke-width="0.7126" stroke-linecap="round" stroke-linejoin="round" stroke-miterlimit="10" x1="264.1" y1="526" x2="273.4" y2="512.6"/>
			
				<line fill="none" stroke="#000000" stroke-width="0.7126" stroke-linecap="round" stroke-linejoin="round" stroke-miterlimit="10" x1="264.1" y1="320.4" x2="273.4" y2="307"/>
			
				<line fill="none" stroke="#000000" stroke-width="0.7126" stroke-linecap="round" stroke-linejoin="round" stroke-miterlimit="10" x1="335.9" y1="891.4" x2="326.5" y2="904.8"/>
			
				<line fill="none" stroke="#000000" stroke-width="0.7126" stroke-linecap="round" stroke-linejoin="round" stroke-miterlimit="10" x1="335.9" y1="1008.9" x2="326.5" y2="1022.2"/>
			
				<line fill="none" stroke="#000000" stroke-width="0.7126" stroke-linecap="round" stroke-linejoin="round" stroke-miterlimit="10" x1="335.9" y1="1243.8" x2="326.5" y2="1257.2"/>
			
				<polyline fill="none" stroke="#000000" stroke-width="0.7126" stroke-linecap="round" stroke-linejoin="round" stroke-miterlimit="10" points="
				335.9,454.2 326.5,467.5 326.5,467.5 			"/>
			
				<line fill="none" stroke="#000000" stroke-width="0.7126" stroke-linecap="round" stroke-linejoin="round" stroke-miterlimit="10" x1="335.9" y1="539" x2="326.5" y2="552.4"/>
			
				<line fill="none" stroke="#000000" stroke-width="0.7126" stroke-linecap="round" stroke-linejoin="round" stroke-miterlimit="10" x1="335.9" y1="656.5" x2="326.5" y2="669.8"/>
			
				<line fill="none" stroke="#000000" stroke-width="0.7126" stroke-linecap="round" stroke-linejoin="round" stroke-miterlimit="10" x1="451.8" y1="751.1" x2="438.4" y2="741.7"/>
			
				<line fill="none" stroke="#000000" stroke-width="0.7126" stroke-linecap="round" stroke-linejoin="round" stroke-miterlimit="10" x1="264.1" y1="1025.2" x2="273.4" y2="1011.8"/>
			
				<line fill="none" stroke="#000000" stroke-width="0.7126" stroke-linecap="round" stroke-linejoin="round" stroke-miterlimit="10" x1="264.1" y1="907.7" x2="273.4" y2="894.4"/>
			
				<line fill="none" stroke="#000000" stroke-width="0.7126" stroke-linecap="round" stroke-linejoin="round" stroke-miterlimit="10" x1="264.1" y1="672.8" x2="273.4" y2="659.4"/>
			
				<line fill="none" stroke="#000000" stroke-width="0.7126" stroke-linecap="round" stroke-linejoin="round" stroke-miterlimit="10" x1="228.2" y1="607.5" x2="241.5" y2="616.9"/>
			
				<line fill="none" stroke="#000000" stroke-width="0.7126" stroke-linecap="round" stroke-linejoin="round" stroke-miterlimit="10" x1="264.1" y1="437.9" x2="273.4" y2="424.5"/>
			
				<line fill="none" stroke="#000000" stroke-width="0.7126" stroke-linecap="round" stroke-linejoin="round" stroke-miterlimit="10" x1="264.1" y1="189.9" x2="273.4" y2="176.5"/>
			
				<line fill="none" stroke="#000000" stroke-width="0.7126" stroke-linecap="round" stroke-linejoin="round" stroke-miterlimit="10" x1="238" y1="199.7" x2="251.3" y2="209.1"/>
			
				<path fill="none" stroke="#000000" stroke-width="0.7126" stroke-linecap="round" stroke-linejoin="round" stroke-miterlimit="10" d="
				M251.3,209c1.8-2.8,2.9-6,3-9.4"/>
			
				<polyline fill="none" stroke="#000000" stroke-width="0.7126" stroke-linecap="round" stroke-linejoin="round" stroke-miterlimit="10" points="
				430.6,137.7 430.6,162.2 430.6,165.4 430.6,189.9 			"/>
			
				<line fill="none" stroke="#000000" stroke-width="0.7126" stroke-linecap="round" stroke-linejoin="round" stroke-miterlimit="10" x1="397.9" y1="189.9" x2="397.9" y2="165.4"/>
			
				<polyline fill="none" stroke="#000000" stroke-width="0.7126" stroke-linecap="round" stroke-linejoin="round" stroke-miterlimit="10" points="
				430.6,162.2 424.1,162.2 417.5,162.2 411,162.2 404.5,162.2 397.9,162.2 397.9,137.7 			"/>
			
				<polyline fill="none" stroke="#000000" stroke-width="0.7126" stroke-linecap="round" stroke-linejoin="round" stroke-miterlimit="10" points="
				397.9,165.4 404.5,165.4 411,165.4 417.5,165.4 424.1,165.4 430.6,165.4 			"/>
			
				<line fill="none" stroke="#000000" stroke-width="0.7126" stroke-linecap="round" stroke-linejoin="round" stroke-miterlimit="10" x1="424.1" y1="137.7" x2="424.1" y2="162.2"/>
			
				<line fill="none" stroke="#000000" stroke-width="0.7126" stroke-linecap="round" stroke-linejoin="round" stroke-miterlimit="10" x1="424.1" y1="165.4" x2="424.1" y2="189.9"/>
			
				<line fill="none" stroke="#000000" stroke-width="0.7126" stroke-linecap="round" stroke-linejoin="round" stroke-miterlimit="10" x1="417.5" y1="189.9" x2="417.5" y2="165.4"/>
			
				<line fill="none" stroke="#000000" stroke-width="0.7126" stroke-linecap="round" stroke-linejoin="round" stroke-miterlimit="10" x1="417.5" y1="162.2" x2="417.5" y2="137.7"/>
			
				<line fill="none" stroke="#000000" stroke-width="0.7126" stroke-linecap="round" stroke-linejoin="round" stroke-miterlimit="10" x1="411" y1="137.7" x2="411" y2="162.2"/>
			
				<line fill="none" stroke="#000000" stroke-width="0.7126" stroke-linecap="round" stroke-linejoin="round" stroke-miterlimit="10" x1="411" y1="165.4" x2="411" y2="189.9"/>
			
				<line fill="none" stroke="#000000" stroke-width="0.7126" stroke-linecap="round" stroke-linejoin="round" stroke-miterlimit="10" x1="404.5" y1="189.9" x2="404.5" y2="165.4"/>
			
				<line fill="none" stroke="#000000" stroke-width="0.7126" stroke-linecap="round" stroke-linejoin="round" stroke-miterlimit="10" x1="404.5" y1="162.2" x2="404.5" y2="137.7"/>
			
				<line fill="none" stroke="#000000" stroke-width="0.7126" stroke-linecap="round" stroke-linejoin="round" stroke-miterlimit="10" x1="335.9" y1="217.6" x2="326.5" y2="231"/>
			
				<line fill="none" stroke="#000000" stroke-width="0.7126" stroke-linecap="round" stroke-linejoin="round" stroke-miterlimit="10" x1="355.5" y1="1330.3" x2="346.1" y2="1343.6"/>
			
				<line fill="none" stroke="#000000" stroke-width="0.7126" stroke-linecap="round" stroke-linejoin="round" stroke-miterlimit="10" x1="424.1" y1="1426.5" x2="424.1" y2="1402"/>
			
				<line fill="none" stroke="#000000" stroke-width="0.7126" stroke-linecap="round" stroke-linejoin="round" stroke-miterlimit="10" x1="424.1" y1="1398.8" x2="424.1" y2="1374.3"/>
			
				<line fill="none" stroke="#000000" stroke-width="0.7126" stroke-linecap="round" stroke-linejoin="round" stroke-miterlimit="10" x1="417.5" y1="1374.3" x2="417.5" y2="1398.8"/>
			
				<line fill="none" stroke="#000000" stroke-width="0.7126" stroke-linecap="round" stroke-linejoin="round" stroke-miterlimit="10" x1="417.5" y1="1402" x2="417.5" y2="1426.5"/>
			
				<line fill="none" stroke="#000000" stroke-width="0.7126" stroke-linecap="round" stroke-linejoin="round" stroke-miterlimit="10" x1="411" y1="1426.5" x2="411" y2="1402"/>
			
				<line fill="none" stroke="#000000" stroke-width="0.7126" stroke-linecap="round" stroke-linejoin="round" stroke-miterlimit="10" x1="411" y1="1398.8" x2="411" y2="1374.3"/>
			
				<line fill="none" stroke="#000000" stroke-width="0.7126" stroke-linecap="round" stroke-linejoin="round" stroke-miterlimit="10" x1="404.5" y1="1374.3" x2="404.5" y2="1398.8"/>
			
				<line fill="none" stroke="#000000" stroke-width="0.7126" stroke-linecap="round" stroke-linejoin="round" stroke-miterlimit="10" x1="404.5" y1="1402" x2="404.5" y2="1426.5"/>
			
				<polyline fill="none" stroke="#000000" stroke-width="0.7126" stroke-linecap="round" stroke-linejoin="round" stroke-miterlimit="10" points="
				430.6,1426.5 430.6,1402 430.6,1398.8 430.6,1374.3 			"/>
			
				<line fill="none" stroke="#000000" stroke-width="0.7126" stroke-linecap="round" stroke-linejoin="round" stroke-miterlimit="10" x1="397.9" y1="1374.3" x2="397.9" y2="1398.8"/>
			
				<polyline fill="none" stroke="#000000" stroke-width="0.7126" stroke-linecap="round" stroke-linejoin="round" stroke-miterlimit="10" points="
				430.6,1402 424.1,1402 417.5,1402 411,1402 404.5,1402 397.9,1402 397.9,1426.5 			"/>
			
				<polyline fill="none" stroke="#000000" stroke-width="0.7126" stroke-linecap="round" stroke-linejoin="round" stroke-miterlimit="10" points="
				397.9,1398.8 404.5,1398.8 411,1398.8 417.5,1398.8 424.1,1398.8 430.6,1398.8 			"/>
			
				<polyline fill="none" stroke="#000000" stroke-width="0.7126" stroke-linecap="round" stroke-linejoin="round" stroke-miterlimit="10" points="
				127,1436.3 127,127.9 473,127.9 473,1436.3 			"/>
			
				<line fill="none" stroke="#000000" stroke-width="0.7126" stroke-linecap="round" stroke-linejoin="round" stroke-miterlimit="10" x1="136.8" y1="1426.5" x2="136.8" y2="1312.3"/>
			
				<line fill="none" stroke="#000000" stroke-width="0.7126" stroke-linecap="round" stroke-linejoin="round" stroke-miterlimit="10" x1="136.8" y1="1309" x2="136.8" y2="1194.8"/>
			
				<line fill="none" stroke="#000000" stroke-width="0.7126" stroke-linecap="round" stroke-linejoin="round" stroke-miterlimit="10" x1="136.8" y1="1074.1" x2="136.8" y2="959.9"/>
			
				<line fill="none" stroke="#000000" stroke-width="0.7126" stroke-linecap="round" stroke-linejoin="round" stroke-miterlimit="10" x1="136.8" y1="956.7" x2="136.8" y2="842.5"/>
			
				<line fill="none" stroke="#000000" stroke-width="0.7126" stroke-linecap="round" stroke-linejoin="round" stroke-miterlimit="10" x1="136.8" y1="604.3" x2="136.8" y2="548.8"/>
			
				<line fill="none" stroke="#000000" stroke-width="0.7126" stroke-linecap="round" stroke-linejoin="round" stroke-miterlimit="10" x1="136.8" y1="545.5" x2="136.8" y2="490.1"/>
			
				<line fill="none" stroke="#000000" stroke-width="0.7126" stroke-linecap="round" stroke-linejoin="round" stroke-miterlimit="10" x1="136.8" y1="486.8" x2="136.8" y2="372.6"/>
			
				<line fill="none" stroke="#000000" stroke-width="0.7126" stroke-linecap="round" stroke-linejoin="round" stroke-miterlimit="10" x1="136.8" y1="369.4" x2="136.8" y2="199.7"/>
			
				<polyline fill="none" stroke="#000000" stroke-width="0.7126" stroke-linecap="round" stroke-linejoin="round" stroke-miterlimit="10" points="
				136.8,196.4 136.8,137.7 260.8,137.7 			"/>
			
				<line fill="none" stroke="#000000" stroke-width="0.7126" stroke-linecap="round" stroke-linejoin="round" stroke-miterlimit="10" x1="264.1" y1="137.7" x2="355.5" y2="137.7"/>
			
				<polyline fill="none" stroke="#000000" stroke-width="0.7126" stroke-linecap="round" stroke-linejoin="round" stroke-miterlimit="10" points="
				365.3,137.7 397.9,137.7 404.5,137.7 411,137.7 417.5,137.7 424.1,137.7 430.6,137.7 463.2,137.7 463.2,189.9 			"/>
			
				<line fill="none" stroke="#000000" stroke-width="0.7126" stroke-linecap="round" stroke-linejoin="round" stroke-miterlimit="10" x1="463.2" y1="607.5" x2="463.2" y2="751.1"/>
			
				<line fill="none" stroke="#000000" stroke-width="0.7126" stroke-linecap="round" stroke-linejoin="round" stroke-miterlimit="10" x1="463.2" y1="754.4" x2="463.2" y2="809.8"/>
			
				<line fill="none" stroke="#000000" stroke-width="0.7126" stroke-linecap="round" stroke-linejoin="round" stroke-miterlimit="10" x1="463.2" y1="813.1" x2="463.2" y2="956.7"/>
			
				<line fill="none" stroke="#000000" stroke-width="0.7126" stroke-linecap="round" stroke-linejoin="round" stroke-miterlimit="10" x1="463.2" y1="1194.8" x2="463.2" y2="1309"/>
			
				<line fill="none" stroke="#000000" stroke-width="0.7126" stroke-linecap="round" stroke-linejoin="round" stroke-miterlimit="10" x1="463.2" y1="1312.3" x2="463.2" y2="1364.5"/>
			
				<line fill="none" stroke="#000000" stroke-width="0.7126" stroke-linecap="round" stroke-linejoin="round" stroke-miterlimit="10" x1="463.2" y1="1374.3" x2="463.2" y2="1426.5"/>
			
				<line fill="none" stroke="#000000" stroke-width="0.7126" stroke-linecap="round" stroke-linejoin="round" stroke-miterlimit="10" x1="339.2" y1="607.5" x2="339.2" y2="656.5"/>
			
				<line fill="none" stroke="#000000" stroke-width="0.7126" stroke-linecap="round" stroke-linejoin="round" stroke-miterlimit="10" x1="339.2" y1="672.8" x2="339.2" y2="751.1"/>
			
				<line fill="none" stroke="#000000" stroke-width="0.7126" stroke-linecap="round" stroke-linejoin="round" stroke-miterlimit="10" x1="339.2" y1="813.1" x2="339.2" y2="891.4"/>
			
				<line fill="none" stroke="#000000" stroke-width="0.7126" stroke-linecap="round" stroke-linejoin="round" stroke-miterlimit="10" x1="339.2" y1="907.7" x2="339.2" y2="956.7"/>
			
				<line fill="none" stroke="#000000" stroke-width="0.7126" stroke-linecap="round" stroke-linejoin="round" stroke-miterlimit="10" x1="339.2" y1="1194.8" x2="339.2" y2="1243.8"/>
			
				<line fill="none" stroke="#000000" stroke-width="0.7126" stroke-linecap="round" stroke-linejoin="round" stroke-miterlimit="10" x1="339.2" y1="1260.1" x2="339.2" y2="1309"/>
			
				<line fill="none" stroke="#000000" stroke-width="0.7126" stroke-linecap="round" stroke-linejoin="round" stroke-miterlimit="10" x1="260.8" y1="137.7" x2="260.8" y2="163.8"/>
			
				<line fill="none" stroke="#000000" stroke-width="0.7126" stroke-linecap="round" stroke-linejoin="round" stroke-miterlimit="10" x1="260.8" y1="167.1" x2="260.8" y2="173.6"/>
			
				<line fill="none" stroke="#000000" stroke-width="0.7126" stroke-linecap="round" stroke-linejoin="round" stroke-miterlimit="10" x1="260.8" y1="189.9" x2="260.8" y2="196.4"/>
			
				<line fill="none" stroke="#000000" stroke-width="0.7126" stroke-linecap="round" stroke-linejoin="round" stroke-miterlimit="10" x1="260.8" y1="199.7" x2="260.8" y2="304.1"/>
			
				<line fill="none" stroke="#000000" stroke-width="0.7126" stroke-linecap="round" stroke-linejoin="round" stroke-miterlimit="10" x1="260.8" y1="320.4" x2="260.8" y2="369.4"/>
			
				<line fill="none" stroke="#000000" stroke-width="0.7126" stroke-linecap="round" stroke-linejoin="round" stroke-miterlimit="10" x1="260.8" y1="372.6" x2="260.8" y2="421.6"/>
			
				<line fill="none" stroke="#000000" stroke-width="0.7126" stroke-linecap="round" stroke-linejoin="round" stroke-miterlimit="10" x1="260.8" y1="437.9" x2="260.8" y2="486.8"/>
			
				<line fill="none" stroke="#000000" stroke-width="0.7126" stroke-linecap="round" stroke-linejoin="round" stroke-miterlimit="10" x1="260.8" y1="490.1" x2="260.8" y2="509.7"/>
			
				<line fill="none" stroke="#000000" stroke-width="0.7126" stroke-linecap="round" stroke-linejoin="round" stroke-miterlimit="10" x1="260.8" y1="526" x2="260.8" y2="545.5"/>
			
				<line fill="none" stroke="#000000" stroke-width="0.7126" stroke-linecap="round" stroke-linejoin="round" stroke-miterlimit="10" x1="260.8" y1="548.8" x2="260.8" y2="604.3"/>
			
				<line fill="none" stroke="#000000" stroke-width="0.7126" stroke-linecap="round" stroke-linejoin="round" stroke-miterlimit="10" x1="260.8" y1="842.5" x2="260.8" y2="891.4"/>
			
				<line fill="none" stroke="#000000" stroke-width="0.7126" stroke-linecap="round" stroke-linejoin="round" stroke-miterlimit="10" x1="260.8" y1="907.7" x2="260.8" y2="956.7"/>
			
				<line fill="none" stroke="#000000" stroke-width="0.7126" stroke-linecap="round" stroke-linejoin="round" stroke-miterlimit="10" x1="260.8" y1="959.9" x2="260.8" y2="1008.9"/>
			
				<line fill="none" stroke="#000000" stroke-width="0.7126" stroke-linecap="round" stroke-linejoin="round" stroke-miterlimit="10" x1="260.8" y1="1025.2" x2="260.8" y2="1074.1"/>
			
				<line fill="none" stroke="#000000" stroke-width="0.7126" stroke-linecap="round" stroke-linejoin="round" stroke-miterlimit="10" x1="260.8" y1="1194.8" x2="260.8" y2="1243.8"/>
			
				<line fill="none" stroke="#000000" stroke-width="0.7126" stroke-linecap="round" stroke-linejoin="round" stroke-miterlimit="10" x1="260.8" y1="1260.1" x2="260.8" y2="1309"/>
			
				<line fill="none" stroke="#000000" stroke-width="0.7126" stroke-linecap="round" stroke-linejoin="round" stroke-miterlimit="10" x1="260.8" y1="1312.3" x2="260.8" y2="1361.3"/>
			
				<line fill="none" stroke="#000000" stroke-width="0.7126" stroke-linecap="round" stroke-linejoin="round" stroke-miterlimit="10" x1="260.8" y1="1377.6" x2="260.8" y2="1426.5"/>
			
				<polyline fill="none" stroke="#000000" stroke-width="0.7126" stroke-linecap="round" stroke-linejoin="round" stroke-miterlimit="10" points="
				264.1,137.7 264.1,173.6 264.1,173.6 			"/>
			
				<polyline fill="none" stroke="#000000" stroke-width="0.7126" stroke-linecap="round" stroke-linejoin="round" stroke-miterlimit="10" points="
				264.1,189.9 264.1,304.1 264.1,304.1 			"/>
			
				<line fill="none" stroke="#000000" stroke-width="0.7126" stroke-linecap="round" stroke-linejoin="round" stroke-miterlimit="10" x1="264.1" y1="320.4" x2="264.1" y2="421.6"/>
			
				<polyline fill="none" stroke="#000000" stroke-width="0.7126" stroke-linecap="round" stroke-linejoin="round" stroke-miterlimit="10" points="
				264.1,437.9 264.1,509.6 264.1,509.7 			"/>
			
				<polyline fill="none" stroke="#000000" stroke-width="0.7126" stroke-linecap="round" stroke-linejoin="round" stroke-miterlimit="10" points="
				264.1,526 264.1,656.5 264.1,656.5 			"/>
			
				<polyline fill="none" stroke="#000000" stroke-width="0.7126" stroke-linecap="round" stroke-linejoin="round" stroke-miterlimit="10" points="
				264.1,672.8 264.1,773.9 264.1,773.9 			"/>
			
				<line fill="none" stroke="#000000" stroke-width="0.7126" stroke-linecap="round" stroke-linejoin="round" stroke-miterlimit="10" x1="264.1" y1="790.3" x2="264.1" y2="839.2"/>
			
				<line fill="none" stroke="#000000" stroke-width="0.7126" stroke-linecap="round" stroke-linejoin="round" stroke-miterlimit="10" x1="463.2" y1="607.5" x2="339.2" y2="607.5"/>
			
				<line fill="none" stroke="#000000" stroke-width="0.7126" stroke-linecap="round" stroke-linejoin="round" stroke-miterlimit="10" x1="339.2" y1="956.7" x2="463.2" y2="956.7"/>
			
				<line fill="none" stroke="#000000" stroke-width="0.7126" stroke-linecap="round" stroke-linejoin="round" stroke-miterlimit="10" x1="463.2" y1="959.9" x2="339.2" y2="959.9"/>
			
				<line fill="none" stroke="#000000" stroke-width="0.7126" stroke-linecap="round" stroke-linejoin="round" stroke-miterlimit="10" x1="339.2" y1="1191.6" x2="463.2" y2="1191.6"/>
			
				<line fill="none" stroke="#000000" stroke-width="0.7126" stroke-linecap="round" stroke-linejoin="round" stroke-miterlimit="10" x1="463.2" y1="1194.8" x2="339.2" y2="1194.8"/>
			
				<line fill="none" stroke="#000000" stroke-width="0.7126" stroke-linecap="round" stroke-linejoin="round" stroke-miterlimit="10" x1="339.2" y1="1309" x2="463.2" y2="1309"/>
			
				<line fill="none" stroke="#000000" stroke-width="0.7126" stroke-linecap="round" stroke-linejoin="round" stroke-miterlimit="10" x1="127" y1="1436.3" x2="473" y2="1436.3"/>
			
				<line fill="none" stroke="#000000" stroke-width="0.7126" stroke-linecap="round" stroke-linejoin="round" stroke-miterlimit="10" x1="136.8" y1="1426.5" x2="260.8" y2="1426.5"/>
			
				<line fill="none" stroke="#000000" stroke-width="0.7126" stroke-linecap="round" stroke-linejoin="round" stroke-miterlimit="10" x1="264.1" y1="1426.5" x2="355.5" y2="1426.5"/>
			
				<polyline fill="none" stroke="#000000" stroke-width="0.7126" stroke-linecap="round" stroke-linejoin="round" stroke-miterlimit="10" points="
				365.3,1426.5 397.9,1426.5 404.5,1426.5 411,1426.5 417.5,1426.5 424.1,1426.5 430.6,1426.5 463.2,1426.5 			"/>
			
				<line fill="none" stroke="#000000" stroke-width="0.7126" stroke-linecap="round" stroke-linejoin="round" stroke-miterlimit="10" x1="260.8" y1="369.4" x2="136.8" y2="369.4"/>
			
				<line fill="none" stroke="#000000" stroke-width="0.7126" stroke-linecap="round" stroke-linejoin="round" stroke-miterlimit="10" x1="136.8" y1="372.6" x2="260.8" y2="372.6"/>
			
				<line fill="none" stroke="#000000" stroke-width="0.7126" stroke-linecap="round" stroke-linejoin="round" stroke-miterlimit="10" x1="260.8" y1="486.8" x2="136.8" y2="486.8"/>
			
				<line fill="none" stroke="#000000" stroke-width="0.7126" stroke-linecap="round" stroke-linejoin="round" stroke-miterlimit="10" x1="136.8" y1="490.1" x2="218.4" y2="490.1"/>
			
				<line fill="none" stroke="#000000" stroke-width="0.7126" stroke-linecap="round" stroke-linejoin="round" stroke-miterlimit="10" x1="221.6" y1="490.1" x2="260.8" y2="490.1"/>
			
				<line fill="none" stroke="#000000" stroke-width="0.7126" stroke-linecap="round" stroke-linejoin="round" stroke-miterlimit="10" x1="260.8" y1="604.3" x2="244.5" y2="604.3"/>
			
				<line fill="none" stroke="#000000" stroke-width="0.7126" stroke-linecap="round" stroke-linejoin="round" stroke-miterlimit="10" x1="228.2" y1="604.3" x2="136.8" y2="604.3"/>
			
				<line fill="none" stroke="#000000" stroke-width="0.7126" stroke-linecap="round" stroke-linejoin="round" stroke-miterlimit="10" x1="136.8" y1="607.5" x2="228.2" y2="607.5"/>
			
				<polyline fill="none" stroke="#000000" stroke-width="0.7126" stroke-linecap="round" stroke-linejoin="round" stroke-miterlimit="10" points="
				244.5,607.5 244.5,607.5 260.8,607.5 			"/>
			
				<line fill="none" stroke="#000000" stroke-width="0.7126" stroke-linecap="round" stroke-linejoin="round" stroke-miterlimit="10" x1="260.8" y1="839.2" x2="136.8" y2="839.2"/>
			
				<line fill="none" stroke="#000000" stroke-width="0.7126" stroke-linecap="round" stroke-linejoin="round" stroke-miterlimit="10" x1="136.8" y1="842.5" x2="260.8" y2="842.5"/>
			
				<line fill="none" stroke="#000000" stroke-width="0.7126" stroke-linecap="round" stroke-linejoin="round" stroke-miterlimit="10" x1="260.8" y1="956.7" x2="136.8" y2="956.7"/>
			
				<line fill="none" stroke="#000000" stroke-width="0.7126" stroke-linecap="round" stroke-linejoin="round" stroke-miterlimit="10" x1="136.8" y1="959.9" x2="260.8" y2="959.9"/>
			
				<line fill="none" stroke="#000000" stroke-width="0.7126" stroke-linecap="round" stroke-linejoin="round" stroke-miterlimit="10" x1="260.8" y1="1074.1" x2="207" y2="1074.1"/>
			
				<line fill="none" stroke="#000000" stroke-width="0.7126" stroke-linecap="round" stroke-linejoin="round" stroke-miterlimit="10" x1="190.6" y1="1074.1" x2="136.8" y2="1074.1"/>
			
				<line fill="none" stroke="#000000" stroke-width="0.7126" stroke-linecap="round" stroke-linejoin="round" stroke-miterlimit="10" x1="136.8" y1="1077.4" x2="190.6" y2="1077.4"/>
			
				<line fill="none" stroke="#000000" stroke-width="0.7126" stroke-linecap="round" stroke-linejoin="round" stroke-miterlimit="10" x1="207" y1="1077.4" x2="260.8" y2="1077.4"/>
			
				<line fill="none" stroke="#000000" stroke-width="0.7126" stroke-linecap="round" stroke-linejoin="round" stroke-miterlimit="10" x1="260.8" y1="1309" x2="136.8" y2="1309"/>
			
				<line fill="none" stroke="#000000" stroke-width="0.7126" stroke-linecap="round" stroke-linejoin="round" stroke-miterlimit="10" x1="136.8" y1="1312.3" x2="260.8" y2="1312.3"/>
			
				<line fill="none" stroke="#000000" stroke-width="0.7126" stroke-linecap="round" stroke-linejoin="round" stroke-miterlimit="10" x1="355.5" y1="1312.3" x2="335.9" y2="1312.3"/>
			
				<line fill="none" stroke="#000000" stroke-width="0.7126" stroke-linecap="round" stroke-linejoin="round" stroke-miterlimit="10" x1="355.5" y1="137.7" x2="355.5" y2="155.6"/>
			
				<line fill="none" stroke="#000000" stroke-width="0.7126" stroke-linecap="round" stroke-linejoin="round" stroke-miterlimit="10" x1="355.5" y1="172" x2="355.5" y2="196.4"/>
			
				<polyline fill="none" stroke="#000000" stroke-width="0.7126" stroke-linecap="round" stroke-linejoin="round" stroke-miterlimit="10" points="
				463.2,189.9 430.6,189.9 424.1,189.9 417.5,189.9 411,189.9 404.5,189.9 397.9,189.9 365.3,189.9 			"/>
			
				<polyline fill="none" stroke="#000000" stroke-width="0.7126" stroke-linecap="round" stroke-linejoin="round" stroke-miterlimit="10" points="
				365.3,1374.3 397.9,1374.3 404.5,1374.3 411,1374.3 417.5,1374.3 424.1,1374.3 430.6,1374.3 463.2,1374.3 			"/>
			
				<line fill="none" stroke="#000000" stroke-width="0.7126" stroke-linecap="round" stroke-linejoin="round" stroke-miterlimit="10" x1="355.5" y1="1312.3" x2="355.5" y2="1330.3"/>
			
				<polyline fill="none" stroke="#000000" stroke-width="0.7126" stroke-linecap="round" stroke-linejoin="round" stroke-miterlimit="10" points="
				355.5,1346.6 355.5,1346.6 355.5,1392.2 			"/>
			
				<line fill="none" stroke="#000000" stroke-width="0.7126" stroke-linecap="round" stroke-linejoin="round" stroke-miterlimit="10" x1="355.5" y1="1408.6" x2="355.5" y2="1426.5"/>
			
				<line fill="none" stroke="#000000" stroke-width="0.7126" stroke-linecap="round" stroke-linejoin="round" stroke-miterlimit="10" x1="463.2" y1="751.1" x2="451.8" y2="751.1"/>
			
				<line fill="none" stroke="#000000" stroke-width="0.7126" stroke-linecap="round" stroke-linejoin="round" stroke-miterlimit="10" x1="435.5" y1="751.1" x2="339.2" y2="751.1"/>
			
				<line fill="none" stroke="#000000" stroke-width="0.7126" stroke-linecap="round" stroke-linejoin="round" stroke-miterlimit="10" x1="339.2" y1="813.1" x2="463.2" y2="813.1"/>
			
				<line fill="none" stroke="#000000" stroke-width="0.7126" stroke-linecap="round" stroke-linejoin="round" stroke-miterlimit="10" x1="339.2" y1="754.4" x2="365.3" y2="754.4"/>
			
				<line fill="none" stroke="#000000" stroke-width="0.7126" stroke-linecap="round" stroke-linejoin="round" stroke-miterlimit="10" x1="424.1" y1="754.4" x2="435.5" y2="754.4"/>
			
				<line fill="none" stroke="#000000" stroke-width="0.7126" stroke-linecap="round" stroke-linejoin="round" stroke-miterlimit="10" x1="451.8" y1="754.4" x2="463.2" y2="754.4"/>
			
				<line fill="none" stroke="#000000" stroke-width="0.7126" stroke-linecap="round" stroke-linejoin="round" stroke-miterlimit="10" x1="339.2" y1="809.8" x2="365.3" y2="809.8"/>
			
				<polyline fill="none" stroke="#000000" stroke-width="0.7126" stroke-linecap="round" stroke-linejoin="round" stroke-miterlimit="10" points="
				424.1,754.4 424.1,809.8 463.2,809.8 			"/>
			
				<polyline fill="none" stroke="#000000" stroke-width="0.7126" stroke-linecap="round" stroke-linejoin="round" stroke-miterlimit="10" points="
				375.1,803.3 414.3,803.3 414.3,760.9 375.1,760.9 			"/>
			
				<polyline fill="none" stroke="#000000" stroke-width="0.7126" stroke-linecap="round" stroke-linejoin="round" stroke-miterlimit="10" points="
				365.3,809.8 365.3,796.8 368.6,796.8 375.1,796.8 375.1,803.3 			"/>
			
				<polyline fill="none" stroke="#000000" stroke-width="0.7126" stroke-linecap="round" stroke-linejoin="round" stroke-miterlimit="10" points="
				365.3,754.4 365.3,767.4 368.6,767.4 375.1,767.4 375.1,760.9 			"/>
			
				<line fill="none" stroke="#000000" stroke-width="0.7126" stroke-linecap="round" stroke-linejoin="round" stroke-miterlimit="10" x1="365.3" y1="137.7" x2="365.3" y2="155.6"/>
			
				<line fill="none" stroke="#000000" stroke-width="0.7126" stroke-linecap="round" stroke-linejoin="round" stroke-miterlimit="10" x1="365.3" y1="172" x2="365.3" y2="189.9"/>
			
				<line fill="none" stroke="#000000" stroke-width="0.7126" stroke-linecap="round" stroke-linejoin="round" stroke-miterlimit="10" x1="365.3" y1="1374.3" x2="365.3" y2="1392.2"/>
			
				<line fill="none" stroke="#000000" stroke-width="0.7126" stroke-linecap="round" stroke-linejoin="round" stroke-miterlimit="10" x1="365.3" y1="1408.6" x2="365.3" y2="1426.5"/>
			
				<line fill="none" stroke="#000000" stroke-width="0.7126" stroke-linecap="round" stroke-linejoin="round" stroke-miterlimit="10" x1="355.5" y1="196.4" x2="335.9" y2="196.4"/>
			
				<polyline fill="none" stroke="#000000" stroke-width="0.7126" stroke-linecap="round" stroke-linejoin="round" stroke-miterlimit="10" points="
				463.2,251.9 463.2,199.7 339.2,199.7 			"/>
			
				<line fill="none" stroke="#000000" stroke-width="0.7126" stroke-linecap="round" stroke-linejoin="round" stroke-miterlimit="10" x1="463.2" y1="255.2" x2="463.2" y2="486.8"/>
			
				<line fill="none" stroke="#000000" stroke-width="0.7126" stroke-linecap="round" stroke-linejoin="round" stroke-miterlimit="10" x1="339.2" y1="255.2" x2="339.2" y2="454.2"/>
			
				<line fill="none" stroke="#000000" stroke-width="0.7126" stroke-linecap="round" stroke-linejoin="round" stroke-miterlimit="10" x1="339.2" y1="470.5" x2="339.2" y2="486.8"/>
			
				<line fill="none" stroke="#000000" stroke-width="0.7126" stroke-linecap="round" stroke-linejoin="round" stroke-miterlimit="10" x1="339.2" y1="959.9" x2="339.2" y2="1008.9"/>
			
				<line fill="none" stroke="#000000" stroke-width="0.7126" stroke-linecap="round" stroke-linejoin="round" stroke-miterlimit="10" x1="339.2" y1="1025.2" x2="339.2" y2="1191.6"/>
			
				<line fill="none" stroke="#000000" stroke-width="0.7126" stroke-linecap="round" stroke-linejoin="round" stroke-miterlimit="10" x1="463.2" y1="959.9" x2="463.2" y2="1191.6"/>
			
				<line fill="none" stroke="#000000" stroke-width="0.7126" stroke-linecap="round" stroke-linejoin="round" stroke-miterlimit="10" x1="335.9" y1="809.8" x2="335.9" y2="839.2"/>
			
				<line fill="none" stroke="#000000" stroke-width="0.7126" stroke-linecap="round" stroke-linejoin="round" stroke-miterlimit="10" x1="335.9" y1="842.5" x2="335.9" y2="891.4"/>
			
				<line fill="none" stroke="#000000" stroke-width="0.7126" stroke-linecap="round" stroke-linejoin="round" stroke-miterlimit="10" x1="335.9" y1="907.7" x2="335.9" y2="1008.9"/>
			
				<line fill="none" stroke="#000000" stroke-width="0.7126" stroke-linecap="round" stroke-linejoin="round" stroke-miterlimit="10" x1="335.9" y1="1025.2" x2="335.9" y2="1243.8"/>
			
				<polyline fill="none" stroke="#000000" stroke-width="0.7126" stroke-linecap="round" stroke-linejoin="round" stroke-miterlimit="10" points="
				335.9,1260.1 335.9,1260.1 335.9,1312.3 			"/>
			
				<line fill="none" stroke="#000000" stroke-width="0.7126" stroke-linecap="round" stroke-linejoin="round" stroke-miterlimit="10" x1="335.9" y1="196.4" x2="335.9" y2="217.6"/>
			
				<line fill="none" stroke="#000000" stroke-width="0.7126" stroke-linecap="round" stroke-linejoin="round" stroke-miterlimit="10" x1="335.9" y1="555.3" x2="335.9" y2="656.5"/>
			
				<line fill="none" stroke="#000000" stroke-width="0.7126" stroke-linecap="round" stroke-linejoin="round" stroke-miterlimit="10" x1="335.9" y1="672.8" x2="335.9" y2="754.4"/>
			
				<line fill="none" stroke="#000000" stroke-width="0.7126" stroke-linecap="round" stroke-linejoin="round" stroke-miterlimit="10" x1="264.1" y1="1426.5" x2="264.1" y2="1377.6"/>
			
				<polyline fill="none" stroke="#000000" stroke-width="0.7126" stroke-linecap="round" stroke-linejoin="round" stroke-miterlimit="10" points="
				264.1,1361.3 264.1,1361.2 264.1,1260.1 			"/>
			
				<polyline fill="none" stroke="#000000" stroke-width="0.7126" stroke-linecap="round" stroke-linejoin="round" stroke-miterlimit="10" points="
				264.1,1243.8 264.1,1243.8 264.1,1142.6 			"/>
			
				<polyline fill="none" stroke="#000000" stroke-width="0.7126" stroke-linecap="round" stroke-linejoin="round" stroke-miterlimit="10" points="
				264.1,1126.3 264.1,1126.3 264.1,1025.2 			"/>
			
				<polyline fill="none" stroke="#000000" stroke-width="0.7126" stroke-linecap="round" stroke-linejoin="round" stroke-miterlimit="10" points="
				264.1,1008.9 264.1,1008.9 264.1,907.7 			"/>
			
				<line fill="none" stroke="#000000" stroke-width="0.7126" stroke-linecap="round" stroke-linejoin="round" stroke-miterlimit="10" x1="264.1" y1="891.4" x2="264.1" y2="842.5"/>
			
				<line fill="none" stroke="#000000" stroke-width="0.7126" stroke-linecap="round" stroke-linejoin="round" stroke-miterlimit="10" x1="136.8" y1="1194.8" x2="260.8" y2="1194.8"/>
			
				<polyline fill="none" stroke="#000000" stroke-width="0.7126" stroke-linecap="round" stroke-linejoin="round" stroke-miterlimit="10" points="
				136.8,1077.4 136.8,1191.6 260.8,1191.6 			"/>
			
				<line fill="none" stroke="#000000" stroke-width="0.7126" stroke-linecap="round" stroke-linejoin="round" stroke-miterlimit="10" x1="260.8" y1="1077.4" x2="260.8" y2="1126.3"/>
			
				<line fill="none" stroke="#000000" stroke-width="0.7126" stroke-linecap="round" stroke-linejoin="round" stroke-miterlimit="10" x1="260.8" y1="1142.6" x2="260.8" y2="1191.6"/>
			
				<line fill="none" stroke="#000000" stroke-width="0.7126" stroke-linecap="round" stroke-linejoin="round" stroke-miterlimit="10" x1="136.8" y1="607.5" x2="136.8" y2="705.4"/>
			
				<line fill="none" stroke="#000000" stroke-width="0.7126" stroke-linecap="round" stroke-linejoin="round" stroke-miterlimit="10" x1="136.8" y1="708.7" x2="136.8" y2="839.2"/>
			
				<line fill="none" stroke="#000000" stroke-width="0.7126" stroke-linecap="round" stroke-linejoin="round" stroke-miterlimit="10" x1="260.8" y1="607.5" x2="260.8" y2="656.5"/>
			
				<line fill="none" stroke="#000000" stroke-width="0.7126" stroke-linecap="round" stroke-linejoin="round" stroke-miterlimit="10" x1="260.8" y1="672.8" x2="260.8" y2="705.4"/>
			
				<line fill="none" stroke="#000000" stroke-width="0.7126" stroke-linecap="round" stroke-linejoin="round" stroke-miterlimit="10" x1="260.8" y1="708.7" x2="260.8" y2="773.9"/>
			
				<line fill="none" stroke="#000000" stroke-width="0.7126" stroke-linecap="round" stroke-linejoin="round" stroke-miterlimit="10" x1="260.8" y1="790.3" x2="260.8" y2="839.2"/>
			
				<line fill="none" stroke="#000000" stroke-width="0.7126" stroke-linecap="round" stroke-linejoin="round" stroke-miterlimit="10" x1="228.2" y1="196.4" x2="136.8" y2="196.4"/>
			
				<polyline fill="none" stroke="#000000" stroke-width="0.7126" stroke-linecap="round" stroke-linejoin="round" stroke-miterlimit="10" points="
				260.8,199.7 254.3,199.7 254.3,199.7 			"/>
			
				<line fill="none" stroke="#000000" stroke-width="0.7126" stroke-linecap="round" stroke-linejoin="round" stroke-miterlimit="10" x1="238" y1="199.7" x2="136.8" y2="199.7"/>
			
				<line fill="none" stroke="#000000" stroke-width="0.7126" stroke-linecap="round" stroke-linejoin="round" stroke-miterlimit="10" x1="260.8" y1="545.5" x2="221.6" y2="545.5"/>
			
				<line fill="none" stroke="#000000" stroke-width="0.7126" stroke-linecap="round" stroke-linejoin="round" stroke-miterlimit="10" x1="218.4" y1="545.5" x2="136.8" y2="545.5"/>
			
				<line fill="none" stroke="#000000" stroke-width="0.7126" stroke-linecap="round" stroke-linejoin="round" stroke-miterlimit="10" x1="136.8" y1="548.8" x2="260.8" y2="548.8"/>
			
				<line fill="none" stroke="#000000" stroke-width="0.7126" stroke-linecap="round" stroke-linejoin="round" stroke-miterlimit="10" x1="260.8" y1="196.4" x2="254.3" y2="196.4"/>
			
				<line fill="none" stroke="#000000" stroke-width="0.7126" stroke-linecap="round" stroke-linejoin="round" stroke-miterlimit="10" x1="238" y1="196.4" x2="231.4" y2="196.4"/>
			
				<line fill="none" stroke="#000000" stroke-width="0.7126" stroke-linecap="round" stroke-linejoin="round" stroke-miterlimit="10" x1="339.2" y1="604.3" x2="463.2" y2="604.3"/>
			
				<line fill="none" stroke="#000000" stroke-width="0.7126" stroke-linecap="round" stroke-linejoin="round" stroke-miterlimit="10" x1="339.2" y1="490.1" x2="339.2" y2="539"/>
			
				<line fill="none" stroke="#000000" stroke-width="0.7126" stroke-linecap="round" stroke-linejoin="round" stroke-miterlimit="10" x1="339.2" y1="555.3" x2="339.2" y2="604.3"/>
			
				<line fill="none" stroke="#000000" stroke-width="0.7126" stroke-linecap="round" stroke-linejoin="round" stroke-miterlimit="10" x1="463.2" y1="490.1" x2="463.2" y2="604.3"/>
			
				<line fill="none" stroke="#000000" stroke-width="0.7126" stroke-linecap="round" stroke-linejoin="round" stroke-miterlimit="10" x1="358.8" y1="1312.3" x2="358.8" y2="1330.3"/>
			
				<polyline fill="none" stroke="#000000" stroke-width="0.7126" stroke-linecap="round" stroke-linejoin="round" stroke-miterlimit="10" points="
				358.8,1346.6 358.8,1364.5 463.2,1364.5 			"/>
			
				<line fill="none" stroke="#000000" stroke-width="0.7126" stroke-linecap="round" stroke-linejoin="round" stroke-miterlimit="10" x1="358.8" y1="1312.3" x2="463.2" y2="1312.3"/>
			
				<polyline fill="none" stroke="#000000" stroke-width="0.7126" stroke-linecap="round" stroke-linejoin="round" stroke-miterlimit="10" points="
				368.6,767.4 368.6,782.1 368.6,796.8 			"/>
			
				<line fill="none" stroke="#000000" stroke-width="0.7126" stroke-linecap="round" stroke-linejoin="round" stroke-miterlimit="10" x1="365.3" y1="155.6" x2="355.5" y2="155.6"/>
			
				<line fill="none" stroke="#000000" stroke-width="0.7126" stroke-linecap="round" stroke-linejoin="round" stroke-miterlimit="10" x1="355.5" y1="172" x2="365.3" y2="172"/>
			
				<line fill="none" stroke="#000000" stroke-width="0.7126" stroke-linecap="round" stroke-linejoin="round" stroke-miterlimit="10" x1="260.8" y1="189.9" x2="264.1" y2="189.9"/>
			
				<line fill="none" stroke="#000000" stroke-width="0.7126" stroke-linecap="round" stroke-linejoin="round" stroke-miterlimit="10" x1="264.1" y1="173.6" x2="260.8" y2="173.6"/>
			
				<line fill="none" stroke="#000000" stroke-width="0.7126" stroke-linecap="round" stroke-linejoin="round" stroke-miterlimit="10" x1="365.3" y1="1392.2" x2="355.5" y2="1392.2"/>
			
				<line fill="none" stroke="#000000" stroke-width="0.7126" stroke-linecap="round" stroke-linejoin="round" stroke-miterlimit="10" x1="355.5" y1="1408.6" x2="365.3" y2="1408.6"/>
			
				<line fill="none" stroke="#000000" stroke-width="0.7126" stroke-linecap="round" stroke-linejoin="round" stroke-miterlimit="10" x1="358.8" y1="1330.3" x2="355.5" y2="1330.3"/>
			
				<line fill="none" stroke="#000000" stroke-width="0.7126" stroke-linecap="round" stroke-linejoin="round" stroke-miterlimit="10" x1="355.5" y1="1346.6" x2="358.8" y2="1346.6"/>
			
				<line fill="none" stroke="#000000" stroke-width="0.7126" stroke-linecap="round" stroke-linejoin="round" stroke-miterlimit="10" x1="260.8" y1="1361.3" x2="264.1" y2="1361.3"/>
			
				<line fill="none" stroke="#000000" stroke-width="0.7126" stroke-linecap="round" stroke-linejoin="round" stroke-miterlimit="10" x1="264.1" y1="1377.6" x2="260.8" y2="1377.6"/>
			
				<line fill="none" stroke="#000000" stroke-width="0.7126" stroke-linecap="round" stroke-linejoin="round" stroke-miterlimit="10" x1="260.8" y1="1260.1" x2="264.1" y2="1260.1"/>
			
				<line fill="none" stroke="#000000" stroke-width="0.7126" stroke-linecap="round" stroke-linejoin="round" stroke-miterlimit="10" x1="335.9" y1="1260.1" x2="339.2" y2="1260.1"/>
			
				<line fill="none" stroke="#000000" stroke-width="0.7126" stroke-linecap="round" stroke-linejoin="round" stroke-miterlimit="10" x1="339.2" y1="1243.8" x2="335.9" y2="1243.8"/>
			
				<line fill="none" stroke="#000000" stroke-width="0.7126" stroke-linecap="round" stroke-linejoin="round" stroke-miterlimit="10" x1="264.1" y1="1243.8" x2="260.8" y2="1243.8"/>
			
				<line fill="none" stroke="#000000" stroke-width="0.7126" stroke-linecap="round" stroke-linejoin="round" stroke-miterlimit="10" x1="260.8" y1="1142.6" x2="264.1" y2="1142.6"/>
			
				<line fill="none" stroke="#000000" stroke-width="0.7126" stroke-linecap="round" stroke-linejoin="round" stroke-miterlimit="10" x1="264.1" y1="1126.3" x2="260.8" y2="1126.3"/>
			
				<line fill="none" stroke="#000000" stroke-width="0.7126" stroke-linecap="round" stroke-linejoin="round" stroke-miterlimit="10" x1="260.8" y1="1025.2" x2="264.1" y2="1025.2"/>
			
				<line fill="none" stroke="#000000" stroke-width="0.7126" stroke-linecap="round" stroke-linejoin="round" stroke-miterlimit="10" x1="335.9" y1="1025.2" x2="339.2" y2="1025.2"/>
			
				<line fill="none" stroke="#000000" stroke-width="0.7126" stroke-linecap="round" stroke-linejoin="round" stroke-miterlimit="10" x1="339.2" y1="1008.9" x2="335.9" y2="1008.9"/>
			
				<line fill="none" stroke="#000000" stroke-width="0.7126" stroke-linecap="round" stroke-linejoin="round" stroke-miterlimit="10" x1="264.1" y1="1008.9" x2="260.8" y2="1008.9"/>
			
				<line fill="none" stroke="#000000" stroke-width="0.7126" stroke-linecap="round" stroke-linejoin="round" stroke-miterlimit="10" x1="260.8" y1="907.7" x2="264.1" y2="907.7"/>
			
				<line fill="none" stroke="#000000" stroke-width="0.7126" stroke-linecap="round" stroke-linejoin="round" stroke-miterlimit="10" x1="335.9" y1="907.7" x2="339.2" y2="907.7"/>
			
				<line fill="none" stroke="#000000" stroke-width="0.7126" stroke-linecap="round" stroke-linejoin="round" stroke-miterlimit="10" x1="339.2" y1="891.4" x2="335.9" y2="891.4"/>
			
				<line fill="none" stroke="#000000" stroke-width="0.7126" stroke-linecap="round" stroke-linejoin="round" stroke-miterlimit="10" x1="264.1" y1="891.4" x2="260.8" y2="891.4"/>
			
				<line fill="none" stroke="#000000" stroke-width="0.7126" stroke-linecap="round" stroke-linejoin="round" stroke-miterlimit="10" x1="260.8" y1="656.5" x2="264.1" y2="656.5"/>
			
				<line fill="none" stroke="#000000" stroke-width="0.7126" stroke-linecap="round" stroke-linejoin="round" stroke-miterlimit="10" x1="335.9" y1="656.5" x2="339.2" y2="656.5"/>
			
				<line fill="none" stroke="#000000" stroke-width="0.7126" stroke-linecap="round" stroke-linejoin="round" stroke-miterlimit="10" x1="339.2" y1="672.8" x2="335.9" y2="672.8"/>
			
				<line fill="none" stroke="#000000" stroke-width="0.7126" stroke-linecap="round" stroke-linejoin="round" stroke-miterlimit="10" x1="264.1" y1="672.8" x2="260.8" y2="672.8"/>
			
				<line fill="none" stroke="#000000" stroke-width="0.7126" stroke-linecap="round" stroke-linejoin="round" stroke-miterlimit="10" x1="260.8" y1="773.9" x2="264.1" y2="773.9"/>
			
				<line fill="none" stroke="#000000" stroke-width="0.7126" stroke-linecap="round" stroke-linejoin="round" stroke-miterlimit="10" x1="264.1" y1="790.3" x2="260.8" y2="790.3"/>
			
				<line fill="none" stroke="#000000" stroke-width="0.7126" stroke-linecap="round" stroke-linejoin="round" stroke-miterlimit="10" x1="435.5" y1="754.4" x2="435.5" y2="751.1"/>
			
				<line fill="none" stroke="#000000" stroke-width="0.7126" stroke-linecap="round" stroke-linejoin="round" stroke-miterlimit="10" x1="451.8" y1="751.1" x2="451.8" y2="754.4"/>
			
				<line fill="none" stroke="#000000" stroke-width="0.7126" stroke-linecap="round" stroke-linejoin="round" stroke-miterlimit="10" x1="244.5" y1="607.5" x2="244.5" y2="604.3"/>
			
				<line fill="none" stroke="#000000" stroke-width="0.7126" stroke-linecap="round" stroke-linejoin="round" stroke-miterlimit="10" x1="228.2" y1="604.3" x2="228.2" y2="607.5"/>
			
				<line fill="none" stroke="#000000" stroke-width="0.7126" stroke-linecap="round" stroke-linejoin="round" stroke-miterlimit="10" x1="260.8" y1="509.7" x2="264.1" y2="509.7"/>
			
				<line fill="none" stroke="#000000" stroke-width="0.7126" stroke-linecap="round" stroke-linejoin="round" stroke-miterlimit="10" x1="264.1" y1="526" x2="260.8" y2="526"/>
			
				<line fill="none" stroke="#000000" stroke-width="0.7126" stroke-linecap="round" stroke-linejoin="round" stroke-miterlimit="10" x1="339.2" y1="539" x2="335.9" y2="539"/>
			
				<line fill="none" stroke="#000000" stroke-width="0.7126" stroke-linecap="round" stroke-linejoin="round" stroke-miterlimit="10" x1="335.9" y1="555.3" x2="339.2" y2="555.3"/>
			
				<line fill="none" stroke="#000000" stroke-width="0.7126" stroke-linecap="round" stroke-linejoin="round" stroke-miterlimit="10" x1="260.8" y1="421.6" x2="264.1" y2="421.6"/>
			
				<line fill="none" stroke="#000000" stroke-width="0.7126" stroke-linecap="round" stroke-linejoin="round" stroke-miterlimit="10" x1="264.1" y1="437.9" x2="260.8" y2="437.9"/>
			
				<line fill="none" stroke="#000000" stroke-width="0.7126" stroke-linecap="round" stroke-linejoin="round" stroke-miterlimit="10" x1="260.8" y1="320.4" x2="264.1" y2="320.4"/>
			
				<line fill="none" stroke="#000000" stroke-width="0.7126" stroke-linecap="round" stroke-linejoin="round" stroke-miterlimit="10" x1="264.1" y1="304.1" x2="260.8" y2="304.1"/>
			
				<line fill="none" stroke="#000000" stroke-width="0.7126" stroke-linecap="round" stroke-linejoin="round" stroke-miterlimit="10" x1="463.2" y1="251.9" x2="339.2" y2="251.9"/>
			
				<line fill="none" stroke="#000000" stroke-width="0.7126" stroke-linecap="round" stroke-linejoin="round" stroke-miterlimit="10" x1="339.2" y1="255.2" x2="463.2" y2="255.2"/>
			
				<line fill="none" stroke="#000000" stroke-width="0.7126" stroke-linecap="round" stroke-linejoin="round" stroke-miterlimit="10" x1="339.2" y1="199.7" x2="339.2" y2="217.6"/>
			
				<line fill="none" stroke="#000000" stroke-width="0.7126" stroke-linecap="round" stroke-linejoin="round" stroke-miterlimit="10" x1="339.2" y1="233.9" x2="339.2" y2="251.9"/>
			
				<line fill="none" stroke="#000000" stroke-width="0.7126" stroke-linecap="round" stroke-linejoin="round" stroke-miterlimit="10" x1="339.2" y1="217.6" x2="335.9" y2="217.6"/>
			
				<polyline fill="none" stroke="#000000" stroke-width="0.7126" stroke-linecap="round" stroke-linejoin="round" stroke-miterlimit="10" points="
				335.9,454.2 335.9,233.9 339.2,233.9 			"/>
			
				<line fill="none" stroke="#000000" stroke-width="0.7126" stroke-linecap="round" stroke-linejoin="round" stroke-miterlimit="10" x1="335.9" y1="470.5" x2="335.9" y2="539"/>
			
				<line fill="none" stroke="#000000" stroke-width="0.7126" stroke-linecap="round" stroke-linejoin="round" stroke-miterlimit="10" x1="339.2" y1="486.8" x2="463.2" y2="486.8"/>
			
				<line fill="none" stroke="#000000" stroke-width="0.7126" stroke-linecap="round" stroke-linejoin="round" stroke-miterlimit="10" x1="339.2" y1="490.1" x2="463.2" y2="490.1"/>
			
				<line fill="none" stroke="#000000" stroke-width="0.7126" stroke-linecap="round" stroke-linejoin="round" stroke-miterlimit="10" x1="339.2" y1="470.5" x2="335.9" y2="470.5"/>
			
				<line fill="none" stroke="#000000" stroke-width="0.7126" stroke-linecap="round" stroke-linejoin="round" stroke-miterlimit="10" x1="335.9" y1="454.2" x2="339.2" y2="454.2"/>
			
				<line fill="none" stroke="#000000" stroke-width="0.7126" stroke-linecap="round" stroke-linejoin="round" stroke-miterlimit="10" x1="335.9" y1="809.8" x2="335.9" y2="754.4"/>
			
				<line fill="none" stroke="#000000" stroke-width="0.7126" stroke-linecap="round" stroke-linejoin="round" stroke-miterlimit="10" x1="339.2" y1="809.8" x2="339.2" y2="754.4"/>
			
				<line fill="none" stroke="#000000" stroke-width="0.7126" stroke-linecap="round" stroke-linejoin="round" stroke-miterlimit="10" x1="264.1" y1="842.5" x2="264.1" y2="839.2"/>
			
				<line fill="none" stroke="#000000" stroke-width="0.7126" stroke-linecap="round" stroke-linejoin="round" stroke-miterlimit="10" x1="335.9" y1="839.2" x2="335.9" y2="842.5"/>
			
				<line fill="none" stroke="#000000" stroke-width="0.7126" stroke-linecap="round" stroke-linejoin="round" stroke-miterlimit="10" x1="190.6" y1="1077.4" x2="207" y2="1077.4"/>
			
				<line fill="none" stroke="#000000" stroke-width="0.7126" stroke-linecap="round" stroke-linejoin="round" stroke-miterlimit="10" x1="190.6" y1="1074.1" x2="207" y2="1074.1"/>
			
				<line fill="none" stroke="#000000" stroke-width="0.7126" stroke-linecap="round" stroke-linejoin="round" stroke-miterlimit="10" x1="260.8" y1="705.4" x2="136.8" y2="705.4"/>
			
				<line fill="none" stroke="#000000" stroke-width="0.7126" stroke-linecap="round" stroke-linejoin="round" stroke-miterlimit="10" x1="136.8" y1="708.7" x2="260.8" y2="708.7"/>
			
				<line fill="none" stroke="#000000" stroke-width="0.7126" stroke-linecap="round" stroke-linejoin="round" stroke-miterlimit="10" x1="218.4" y1="490.1" x2="221.6" y2="490.1"/>
			
				<line fill="none" stroke="#000000" stroke-width="0.7126" stroke-linecap="round" stroke-linejoin="round" stroke-miterlimit="10" x1="218.4" y1="545.5" x2="221.6" y2="545.5"/>
			
				<line fill="none" stroke="#000000" stroke-width="0.7126" stroke-linecap="round" stroke-linejoin="round" stroke-miterlimit="10" x1="228.2" y1="196.4" x2="231.4" y2="196.4"/>
			
				<line fill="none" stroke="#000000" stroke-width="0.7126" stroke-linecap="round" stroke-linejoin="round" stroke-miterlimit="10" x1="260.8" y1="167.1" x2="260.8" y2="163.8"/>
			
				<line fill="none" stroke="#000000" stroke-width="0.7126" stroke-linecap="round" stroke-linejoin="round" stroke-miterlimit="10" x1="254.3" y1="196.4" x2="254.3" y2="199.7"/>
			
				<line fill="none" stroke="#000000" stroke-width="0.7126" stroke-linecap="round" stroke-linejoin="round" stroke-miterlimit="10" x1="238" y1="199.7" x2="238" y2="196.4"/>
			
				<path fill="none" stroke="#000000" stroke-width="0.7126" stroke-linecap="round" stroke-linejoin="round" stroke-miterlimit="10" d="
				M273.5,176.5L273.5,176.5c-2.8-1.9-6-2.9-9.4-3"/>
			
				<path fill="none" stroke="#000000" stroke-width="0.7126" stroke-linecap="round" stroke-linejoin="round" stroke-miterlimit="10" d="
				M326.5,231c2.8,1.8,6,2.9,9.4,2.9"/>
			
				<path fill="none" stroke="#000000" stroke-width="0.7126" stroke-linecap="round" stroke-linejoin="round" stroke-miterlimit="10" d="
				M346.1,1343.6c2.8,1.8,6,2.9,9.4,2.9"/>
			
				<path fill="none" stroke="#000000" stroke-width="0.7126" stroke-linecap="round" stroke-linejoin="round" stroke-miterlimit="10" d="
				M273.5,424.5c-2.8-1.8-6-2.9-9.4-2.9"/>
			
				<path fill="none" stroke="#000000" stroke-width="0.7126" stroke-linecap="round" stroke-linejoin="round" stroke-miterlimit="10" d="
				M273.5,659.4c-2.8-1.8-6-2.9-9.4-2.9"/>
			
				<path fill="none" stroke="#000000" stroke-width="0.7126" stroke-linecap="round" stroke-linejoin="round" stroke-miterlimit="10" d="
				M241.6,616.9c1.9-2.8,2.9-6,3-9.3v0"/>
			
				<path fill="none" stroke="#000000" stroke-width="0.7126" stroke-linecap="round" stroke-linejoin="round" stroke-miterlimit="10" d="
				M273.5,894.4c-2.8-1.8-6-2.9-9.4-2.9"/>
			
				<path fill="none" stroke="#000000" stroke-width="0.7126" stroke-linecap="round" stroke-linejoin="round" stroke-miterlimit="10" d="
				M273.5,1011.8L273.5,1011.8c-2.8-1.9-6-2.9-9.4-3"/>
			
				<path fill="none" stroke="#000000" stroke-width="0.7126" stroke-linecap="round" stroke-linejoin="round" stroke-miterlimit="10" d="
				M438.4,741.7C438.4,741.7,438.4,741.7,438.4,741.7c-1.9,2.8-2.9,6-3,9.4"/>
			
				<path fill="none" stroke="#000000" stroke-width="0.7126" stroke-linecap="round" stroke-linejoin="round" stroke-miterlimit="10" d="
				M326.5,669.8c2.8,1.8,6,2.9,9.4,2.9"/>
			
				<path fill="none" stroke="#000000" stroke-width="0.7126" stroke-linecap="round" stroke-linejoin="round" stroke-miterlimit="10" d="
				M326.5,552.4c2.8,1.8,6,2.9,9.4,2.9"/>
			
				<path fill="none" stroke="#000000" stroke-width="0.7126" stroke-linecap="round" stroke-linejoin="round" stroke-miterlimit="10" d="
				M326.5,467.5c2.8,1.9,6,2.9,9.4,3"/>
			
				<path fill="none" stroke="#000000" stroke-width="0.7126" stroke-linecap="round" stroke-linejoin="round" stroke-miterlimit="10" d="
				M326.5,904.8c2.8,1.9,6,2.9,9.4,2.9"/>
			
				<path fill="none" stroke="#000000" stroke-width="0.7126" stroke-linecap="round" stroke-linejoin="round" stroke-miterlimit="10" d="
				M326.5,1022.2c2.8,1.8,6,2.9,9.4,2.9"/>
			
				<path fill="none" stroke="#000000" stroke-width="0.7126" stroke-linecap="round" stroke-linejoin="round" stroke-miterlimit="10" d="
				M326.5,1257.2c2.8,1.8,6,2.9,9.4,2.9"/>
			
				<path fill="none" stroke="#000000" stroke-width="0.7126" stroke-linecap="round" stroke-linejoin="round" stroke-miterlimit="10" d="
				M273.5,307c-2.8-1.9-6-2.9-9.4-3"/>
			
				<path fill="none" stroke="#000000" stroke-width="0.7126" stroke-linecap="round" stroke-linejoin="round" stroke-miterlimit="10" d="
				M273.4,512.6c-2.8-1.9-6-2.9-9.4-2.9"/>
			
				<line fill="none" stroke="#000000" stroke-width="0.7126" stroke-linecap="round" stroke-linejoin="round" stroke-miterlimit="10" x1="273.4" y1="512.6" x2="273.5" y2="512.6"/>
			
				<path fill="none" stroke="#000000" stroke-width="0.7126" stroke-linecap="round" stroke-linejoin="round" stroke-miterlimit="10" d="
				M273.5,776.9L273.5,776.9c-2.8-1.9-6-2.9-9.4-3"/>
			
				<path fill="none" stroke="#000000" stroke-width="0.7126" stroke-linecap="round" stroke-linejoin="round" stroke-miterlimit="10" d="
				M273.5,1364.2c-2.8-1.8-6-2.9-9.4-2.9"/>
			
				<path fill="none" stroke="#000000" stroke-width="0.7126" stroke-linecap="round" stroke-linejoin="round" stroke-miterlimit="10" d="
				M273.5,1246.7L273.5,1246.7c-2.8-1.9-6-2.9-9.4-3"/>
			
				<path fill="none" stroke="#000000" stroke-width="0.7126" stroke-linecap="round" stroke-linejoin="round" stroke-miterlimit="10" d="
				M273.5,1129.3c-2.8-1.8-6-2.9-9.4-2.9"/>
			
				<path fill="none" stroke="#000000" stroke-width="0.7126" stroke-linecap="round" stroke-linejoin="round" stroke-miterlimit="10" d="
				M346.1,1405.6c2.8,1.8,6,2.9,9.4,2.9h0"/>
		</g>
	</g>
</g>
<g id="_x31_1-201">
	<g>
		<path d="M170.7,170c0-2.2-1.5-3.5-4-3.5H162v-4.9h7.9v-0.7h-8.7v12.6h5.4C168.1,173.6,170.7,172.9,170.7,170z M166.4,172.9H162
			v-5.7h4.8c2.3,0,3.1,1.5,3.1,2.8C170,171.4,169.1,172.9,166.4,172.9z M173.2,160.9h-0.7v1.8h0.7V160.9z M173.2,164.5h-0.7v9.1h0.7
			V164.5z M179.3,164.5c-1.7,0-3,1-3.6,2.3h-0.1c0.1-2,0.9-4.6,3.2-4.8l1.6-0.2c1.4-0.2,2-0.5,2.1-1.2h-0.7
			c-0.1,0.5-0.7,0.5-1.4,0.6l-1.7,0.2c-3.2,0.4-3.7,4.5-3.7,7c0,1,0.1,2,0.4,2.8c0.5,1.4,1.7,2.6,3.7,2.6c2.6,0,4.1-2.1,4.1-4.7
			C183.3,166.6,181.7,164.5,179.3,164.5z M179.1,173.3c-2.2,0-3.4-1.9-3.4-4.1c0-2.2,1.2-4.1,3.4-4.1c2.2,0,3.4,1.9,3.4,4.1
			C182.6,171.3,181.4,173.3,179.1,173.3z M191.7,173.6v-9.1H186l-0.2,5.4c-0.1,1.9-0.5,3.2-1.5,3.2c-0.4,0-0.7-0.1-1-0.2v0.6
			c0.2,0.1,0.7,0.2,1,0.2c1.2,0,2-1.2,2.1-3.8l0.2-4.9h4.2v8.5H191.7z M194.5,160.9h-0.7v1.8h0.7V160.9z M194.5,164.5h-0.7v9.1h0.7
			V164.5z M200.4,173.8c2.6,0,4.2-1.8,4.2-4.8c0-3-1.7-4.9-4.2-4.9c-2.6,0-4.2,1.9-4.2,4.8C196.2,171.9,197.8,173.8,200.4,173.8z
			 M200.4,164.8c2.1,0,3.5,1.7,3.5,4.2c0,2.5-1.4,4.1-3.4,4.1c-2.1,0-3.5-1.6-3.5-4.2C196.9,166.5,198.3,164.8,200.4,164.8z
			 M208.4,173.6h0.7v-8.5h3.4v-0.6H205v0.6h3.4V173.6z M217.1,173.9c2.2,0,3.6-1.4,3.9-3.4h-0.7c-0.4,1.8-1.5,2.8-3.2,2.8
			c-2.4,0-3.4-2-3.4-4.1h7.4v-0.2c0-2.5-1.3-4.7-4-4.7c-2.5,0-4.1,2-4.1,4.9C213,172,214.6,173.9,217.1,173.9z M217.1,164.9
			c2.2,0,3.3,1.8,3.3,3.7h-6.6C213.9,166.6,214.9,164.9,217.1,164.9z M223.4,170.5l2-1.9l3.9,4.9h0.9l-4.3-5.4l4-3.7h-1l-5.5,5.2
			v-5.2h-0.7v9.1h0.7V170.5z M237.6,172v-4.7c0-0.8,0-1.5-0.5-2.1c-0.6-0.6-1.5-1-2.7-1c-2.1,0-3.4,1.1-3.5,3h0.7
			c0.1-1.6,1.1-2.4,2.8-2.4c1.7,0,2.6,0.7,2.6,2.1c0,0.4,0,0.8-0.1,0.9c-0.2,0.4-0.5,0.4-2.9,0.6c-1.7,0.1-3.5,0.7-3.5,2.8
			c0,1.6,1.1,2.5,3,2.5c1.7,0,2.8-0.7,3.6-2.2v0.4c0,1.2,0.2,1.5,1,1.5c0.3,0,0.5,0,0.7-0.1v-0.6c-0.2,0.1-0.3,0.1-0.5,0.1
			C237.6,173,237.6,172.5,237.6,172z M236.9,170c0,1.8-1.4,3.2-3.4,3.2c-1.5,0-2.4-0.8-2.4-2c0-0.8,0.4-1.4,1.1-1.7
			c1.3-0.6,2.7-0.4,4.1-0.8c0.3-0.1,0.4-0.1,0.6-0.3V170z M177.7,291.9h0.7v-12.2h-0.6c-1,1.5-1.8,1.9-3.4,2.3v0.6
			c1.4-0.2,2.2-0.6,3.3-1.6V291.9z M188.4,291.9v-12.2h-0.6c-1,1.5-1.8,1.9-3.4,2.3v0.6c1.4-0.2,2.2-0.6,3.3-1.6v10.9H188.4z
			 M197.4,286.8h-3.8v0.7h3.8V286.8z M203.4,287l-1.1,0.7c-1.6,1.1-2.8,2.2-2.9,4.2h8.2v-0.7h-7.3c0.3-1.5,1.7-2.4,2.9-3.2
			c1.4-1,1.5-1,2.1-1.5c1.2-1,2.1-2,2.1-3.7c0-2-1.5-3.4-3.7-3.4c-2.5,0-3.9,1.6-4,4c0,0.1,0,0.2,0,0.4h0.7c0-2.1,0.9-3.7,3.2-3.7
			c1.9,0,3,1.1,3,2.8C206.6,284.9,204.9,286,203.4,287z M210.4,282.6c1.4-0.2,2.2-0.6,3.3-1.6v10.9h0.7v-12.2h-0.6
			c-1,1.5-1.8,1.9-3.4,2.3V282.6z M227.5,288.2h-2v-8.5h-0.7l-5.9,8.4v0.7h5.9v3.1h0.7v-3.1h2V288.2z M224.8,282.1v6.1h-5.3l4.5-6.3
			c0.2-0.3,0.4-0.6,0.9-1.3C224.8,281.2,224.8,281.4,224.8,282.1z M377,233.7h0.7v-12.2h-0.6c-1,1.5-1.8,1.9-3.4,2.3v0.6
			c1.4-0.2,2.2-0.6,3.3-1.6V233.7z M386.9,233.7h0.7v-12.2H387c-1,1.5-1.8,1.9-3.4,2.3v0.6c1.4-0.2,2.2-0.6,3.3-1.6V233.7z
			 M396.6,228.5h-3.8v0.7h3.8V228.5z M402.7,228.8l-1.1,0.7c-1.6,1.1-2.8,2.2-2.9,4.2h8.2V233h-7.3c0.3-1.5,1.7-2.4,2.9-3.2
			c1.4-1,1.5-1,2.1-1.5c1.2-1,2.1-2,2.1-3.7c0-2-1.5-3.4-3.7-3.4c-2.5,0-3.9,1.6-4,4c0,0.1,0,0.2,0,0.4h0.7c0-2.1,0.9-3.7,3.2-3.7
			c1.9,0,3,1.1,3,2.8C405.9,226.6,404.1,227.8,402.7,228.8z M412.9,233.7h0.7v-12.2H413c-1,1.5-1.8,1.9-3.4,2.3v0.6
			c1.4-0.2,2.2-0.6,3.3-1.6V233.7z M420.4,233.7h0.8c0.1-3.9,2.1-8.3,5.2-11.5v-0.7h-7.9v0.7h7.2C422.7,225,420.5,229.7,420.4,233.7
			z M381.6,377.2h0.7v-12.2h-0.6c-1,1.5-1.8,1.9-3.4,2.3v0.6c1.4-0.2,2.2-0.6,3.3-1.6V377.2z M391.5,377.2h0.7v-12.2h-0.6
			c-1,1.5-1.8,1.9-3.4,2.3v0.6c1.4-0.2,2.2-0.6,3.3-1.6V377.2z M401.2,372h-3.8v0.7h3.8V372z M403.5,368.7c0,0.1,0,0.2,0,0.4h0.7
			c0-2.1,0.9-3.7,3.2-3.7c1.9,0,3,1.1,3,2.8c0,2-1.7,3.1-3.2,4.1l-1.1,0.7c-1.6,1.1-2.8,2.2-2.9,4.2h8.2v-0.7h-7.3
			c0.3-1.5,1.7-2.4,2.9-3.2c1.4-1,1.5-1,2.1-1.5c1.2-1,2.1-2,2.1-3.7c0-2-1.5-3.4-3.7-3.4C405,364.7,403.6,366.3,403.5,368.7z
			 M417.5,377.2h0.7v-12.2h-0.6c-1,1.5-1.8,1.9-3.4,2.3v0.6c1.4-0.2,2.2-0.6,3.3-1.6V377.2z M430.7,365.7V365h-6.2l-1.3,6.3l0.7,0
			c0.7-1.1,1.7-1.7,3.1-1.7c2,0,3.5,1.5,3.5,3.6c0,2.1-1.5,3.6-3.5,3.6c-2.2,0-3.4-1.4-3.5-3.4h-0.7c0.1,2.4,1.7,4,4.2,4
			c2.4,0,4.2-1.8,4.2-4.2c0-2.4-1.8-4.2-4.1-4.2c-1.3,0-2.4,0.5-3.1,1.5l1-4.8H430.7z M177.5,438.2h0.7V426h-0.6
			c-1,1.5-1.8,1.9-3.4,2.3v0.6c1.4-0.2,2.2-0.6,3.3-1.6V438.2z M184.1,428.9c1.4-0.2,2.2-0.6,3.3-1.6v10.9h0.7V426h-0.6
			c-1,1.5-1.8,1.9-3.4,2.3V428.9z M197.1,433.1h-3.8v0.7h3.8V433.1z M203.2,433.3l-1.1,0.7c-1.6,1.1-2.8,2.2-2.9,4.2h8.2v-0.7H200
			c0.3-1.5,1.7-2.4,2.9-3.2c1.4-1,1.5-1,2.1-1.5c1.2-1,2.1-2,2.1-3.7c0-2-1.5-3.4-3.7-3.4c-2.5,0-3.9,1.6-4,4c0,0.1,0,0.2,0,0.4h0.7
			c0-2.1,0.9-3.7,3.2-3.7c1.9,0,3,1.1,3,2.8C206.4,431.2,204.7,432.3,203.2,433.3z M214.1,438.2V426h-0.6c-1,1.5-1.8,1.9-3.4,2.3
			v0.6c1.4-0.2,2.2-0.6,3.3-1.6v10.9H214.1z M224.4,431.7c1.4-0.2,2.5-1.2,2.5-2.7c0-1.9-1.5-3.2-3.8-3.2c-2.5,0-4,1.5-4.1,4.1h0.7
			c0.1-2.2,1.3-3.4,3.4-3.4c1.9,0,3.1,1,3.1,2.5c0,1.6-1.2,2.5-3.3,2.5h-0.5v0.6h0.4c1.9,0,3.7,0.6,3.7,2.8c0,1.8-1.4,3-3.5,3
			c-2.2,0-3.6-1.3-3.6-3.4v-0.2h-0.7v0.4c0,2.4,1.7,3.9,4.3,3.9c2.5,0,4.2-1.5,4.2-3.7C227.2,432.9,225.9,431.9,224.4,431.7z
			 M176.5,525.4h0.7v-12.2h-0.6c-1,1.5-1.8,1.9-3.4,2.3v0.6c1.4-0.2,2.2-0.6,3.3-1.6V525.4z M183.2,516c1.4-0.2,2.2-0.6,3.3-1.6
			v10.9h0.7v-12.2h-0.6c-1,1.5-1.8,1.9-3.4,2.3V516z M196.2,520.2h-3.8v0.7h3.8V520.2z M202.3,520.4l-1.1,0.7
			c-1.6,1.1-2.8,2.2-2.9,4.2h8.2v-0.7H199c0.3-1.5,1.7-2.4,2.9-3.2c1.4-1,1.5-1,2.1-1.5c1.2-1,2.1-2,2.1-3.7c0-2-1.5-3.4-3.7-3.4
			c-2.5,0-3.9,1.6-4,4c0,0.1,0,0.2,0,0.4h0.7c0-2.1,0.9-3.7,3.2-3.7c1.9,0,3,1.1,3,2.8C205.4,518.3,203.7,519.4,202.3,520.4z
			 M209.2,516c1.4-0.2,2.2-0.6,3.3-1.6v10.9h0.7v-12.2h-0.6c-1,1.5-1.8,1.9-3.4,2.3V516z M226.1,524.7h-7.3c0.3-1.5,1.7-2.4,2.9-3.2
			c1.4-1,1.5-1,2.1-1.5c1.2-1,2.1-2,2.1-3.7c0-2-1.5-3.4-3.7-3.4c-2.5,0-3.9,1.6-4,4c0,0.1,0,0.2,0,0.4h0.7c0-2.1,0.9-3.7,3.2-3.7
			c1.9,0,3,1.1,3,2.8c0,2-1.7,3.1-3.2,4.1l-1.1,0.7c-1.6,1.1-2.8,2.2-2.9,4.2h8.2V524.7z M381,554.7h0.7v-12.2h-0.6
			c-1,1.5-1.8,1.9-3.4,2.3v0.6c1.4-0.2,2.2-0.6,3.3-1.6V554.7z M390.9,554.7h0.7v-12.2H391c-1,1.5-1.8,1.9-3.4,2.3v0.6
			c1.4-0.2,2.2-0.6,3.3-1.6V554.7z M400.6,549.6h-3.8v0.7h3.8V549.6z M406.7,549.8l-1.1,0.7c-1.6,1.1-2.8,2.2-2.9,4.2h8.2v-0.7h-7.3
			c0.3-1.5,1.7-2.4,2.9-3.2c1.4-1,1.5-1,2.1-1.5c1.2-1,2.1-2,2.1-3.7c0-2-1.5-3.4-3.7-3.4c-2.5,0-3.9,1.6-4,4c0,0.1,0,0.2,0,0.4h0.7
			c0-2.1,0.9-3.7,3.2-3.7c1.9,0,3,1.1,3,2.8C409.9,547.6,408.2,548.8,406.7,549.8z M416.9,554.7h0.7v-12.2H417
			c-1,1.5-1.8,1.9-3.4,2.3v0.6c1.4-0.2,2.2-0.6,3.3-1.6V554.7z M427.5,554.7v-12.2h-0.6c-1,1.5-1.8,1.9-3.4,2.3v0.6
			c1.4-0.2,2.2-0.6,3.3-1.6v10.9H427.5z M382.9,683v-12.2h-0.6c-1,1.5-1.8,1.9-3.4,2.3v0.6c1.4-0.2,2.2-0.6,3.3-1.6V683H382.9z
			 M392.8,683v-12.2h-0.6c-1,1.5-1.8,1.9-3.4,2.3v0.6c1.4-0.2,2.2-0.6,3.3-1.6V683H392.8z M401.8,677.9h-3.8v0.7h3.8V677.9z
			 M407.5,679.2c1.4-1,1.5-1,2.1-1.5c1.2-1,2.1-2,2.1-3.7c0-2-1.5-3.4-3.7-3.4c-2.5,0-3.9,1.6-4,4c0,0.1,0,0.2,0,0.4h0.7
			c0-2.1,0.9-3.7,3.2-3.7c1.9,0,3,1.1,3,2.8c0,2-1.7,3.1-3.2,4.1l-1.1,0.7c-1.6,1.1-2.8,2.2-2.9,4.2h8.2v-0.7h-7.3
			C404.9,680.8,406.3,680,407.5,679.2z M422.2,676.9c0-2.9-0.9-6.3-4.4-6.3c-3.6,0-4.4,3.7-4.4,6.5c0,4,1.6,6.2,4.4,6.2
			C421.3,683.3,422.2,679.8,422.2,676.9z M417.8,682.7c-3,0-3.7-3.1-3.7-5.5c0-3.7,1.4-5.9,3.7-5.9c3.1,0,3.7,3.3,3.7,5.7
			C421.5,679.4,420.8,682.7,417.8,682.7z M431.9,676.6c0-2-0.3-3.3-1-4.3c-0.7-1.1-2-1.7-3.4-1.7c-2.4,0-4.1,1.8-4.1,4.2
			c0,2.4,1.7,4.1,4.1,4.1c2,0,3.1-1.2,3.7-2.7v0.7c0,3.7-1.3,5.8-3.7,5.8c-1.6,0-2.8-1-3.1-2.5h-0.7c0.2,1.9,1.7,3.2,3.8,3.2
			C431.2,683.3,431.9,679.5,431.9,676.6z M427.5,678.3c-2,0-3.4-1.5-3.4-3.5c0-2,1.5-3.5,3.4-3.5c2,0,3.5,1.5,3.5,3.5
			C430.9,676.8,429.5,678.3,427.5,678.3z M168,655.1v0.6c1.4-0.2,2.2-0.6,3.3-1.6V665h0.7v-12.2h-0.6
			C170.3,654.3,169.6,654.7,168,655.1z M177.9,655.1v0.6c1.4-0.2,2.2-0.6,3.3-1.6V665h0.7v-12.2h-0.6
			C180.2,654.3,179.5,654.7,177.9,655.1z M187.1,660.6h3.8v-0.7h-3.8V660.6z M201.1,664.4h-7.3c0.3-1.5,1.7-2.4,2.9-3.2
			c1.4-1,1.5-1,2.1-1.5c1.2-1,2.1-2,2.1-3.7c0-2-1.5-3.4-3.7-3.4c-2.5,0-3.9,1.6-4,4c0,0.1,0,0.2,0,0.4h0.7c0-2.1,0.9-3.7,3.2-3.7
			c1.9,0,3,1.1,3,2.8c0,2-1.7,3.1-3.2,4.1l-1.1,0.7c-1.6,1.1-2.8,2.2-2.9,4.2h8.2V664.4z M207.9,665v-12.2h-0.6
			c-1,1.5-1.8,1.9-3.4,2.3v0.6c1.4-0.2,2.2-0.6,3.3-1.6V665H207.9z M216.8,652.6c-3.6,0-4.4,3.7-4.4,6.5c0,4,1.6,6.2,4.4,6.2
			c3.6,0,4.5-3.5,4.5-6.4C221.3,656.1,220.3,652.6,216.8,652.6z M216.8,664.7c-3,0-3.7-3.1-3.7-5.5c0-3.7,1.4-5.9,3.7-5.9
			c3.1,0,3.7,3.3,3.7,5.7C220.5,661.4,219.9,664.7,216.8,664.7z M226.7,652.4l-5.1,12.6h0.8l1.6-4.1h6.1l1.6,4.1h0.9l-5-12.6H226.7z
			 M229.8,660.3h-5.6l2.4-5.9c0.2-0.4,0.3-0.9,0.5-1.3c0.2,0.4,0.3,0.9,0.5,1.3L229.8,660.3z M178,781.6v-12.2h-0.6
			c-1,1.5-1.8,1.9-3.4,2.3v0.6c1.4-0.2,2.2-0.6,3.3-1.6v10.9H178z M187.9,781.6v-12.2h-0.6c-1,1.5-1.8,1.9-3.4,2.3v0.6
			c1.4-0.2,2.2-0.6,3.3-1.6v10.9H187.9z M196.9,777.2v-0.7h-3.8v0.7H196.9z M207.1,781h-7.3c0.3-1.5,1.7-2.4,2.9-3.2
			c1.4-1,1.5-1,2.1-1.5c1.2-1,2.1-2,2.1-3.7c0-2-1.5-3.4-3.7-3.4c-2.5,0-3.9,1.6-4,4c0,0.1,0,0.2,0,0.4h0.7c0-2.1,0.9-3.7,3.2-3.7
			c1.9,0,3,1.1,3,2.8c0,2-1.7,3.1-3.2,4.1l-1.1,0.7c-1.6,1.1-2.8,2.2-2.9,4.2h8.2V781z M213.9,781.6v-12.2h-0.6
			c-1,1.5-1.8,1.9-3.4,2.3v0.6c1.4-0.2,2.2-0.6,3.3-1.6v10.9H213.9z M222.8,769.2c-3.6,0-4.4,3.7-4.4,6.5c0,4,1.6,6.2,4.4,6.2
			c3.6,0,4.5-3.5,4.5-6.4C227.3,772.7,226.4,769.2,222.8,769.2z M222.8,781.2c-3,0-3.7-3.1-3.7-5.5c0-3.7,1.4-5.9,3.7-5.9
			c3.1,0,3.7,3.3,3.7,5.7C226.5,778,225.9,781.2,222.8,781.2z M176.6,907.9v-12.2H176c-1,1.5-1.8,1.9-3.4,2.3v0.6
			c1.4-0.2,2.2-0.6,3.3-1.6v10.9H176.6z M186.5,907.9v-12.2h-0.6c-1,1.5-1.8,1.9-3.4,2.3v0.6c1.4-0.2,2.2-0.6,3.3-1.6v10.9H186.5z
			 M195.5,902.8h-3.8v0.7h3.8V902.8z M201.2,904.1c1.4-1,1.5-1,2.1-1.5c1.2-1,2.1-2,2.1-3.7c0-2-1.5-3.4-3.7-3.4c-2.5,0-3.9,1.6-4,4
			c0,0.1,0,0.2,0,0.4h0.7c0-2.1,0.9-3.7,3.2-3.7c1.9,0,3,1.1,3,2.8c0,2-1.7,3.1-3.2,4.1l-1.1,0.7c-1.6,1.1-2.8,2.2-2.9,4.2h8.2v-0.7
			h-7.3C198.6,905.8,200,904.9,201.2,904.1z M211.5,895.5c-3.6,0-4.4,3.7-4.4,6.5c0,4,1.6,6.2,4.4,6.2c3.6,0,4.5-3.5,4.5-6.4
			C216,899,215.1,895.5,211.5,895.5z M211.5,907.6c-3,0-3.7-3.1-3.7-5.5c0-3.7,1.4-5.9,3.7-5.9c3.1,0,3.7,3.3,3.7,5.7
			C215.2,904.3,214.6,907.6,211.5,907.6z M217.1,904.5c0,2.3,1.7,3.7,4.4,3.7c2.6,0,4.3-1.4,4.3-3.7c0-1.8-1.2-2.9-2.8-3.1
			c1.3-0.3,2.3-1.2,2.3-2.8c0-1.9-1.4-3.1-3.8-3.1c-2.3,0-3.8,1.2-3.8,3.1c0,1.4,0.8,2.4,2.3,2.7
			C218.3,901.6,217.1,902.7,217.1,904.5z M218.3,898.6c0-1.6,1.1-2.5,3.1-2.5c2,0,3.1,0.9,3.1,2.5c0,1.5-1.2,2.4-3.1,2.4
			C219.5,901,218.3,900.1,218.3,898.6z M221.4,901.6c2.3,0,3.6,1.1,3.6,2.9c0,1.9-1.3,3.1-3.5,3.1c-2.2,0-3.6-1.2-3.6-3.1
			C217.8,902.7,219.2,901.6,221.4,901.6z M381.3,891.8v-12.2h-0.6c-1,1.5-1.8,1.9-3.4,2.3v0.6c1.4-0.2,2.2-0.6,3.3-1.6v10.9H381.3z
			 M391.2,891.8v-12.2h-0.6c-1,1.5-1.8,1.9-3.4,2.3v0.6c1.4-0.2,2.2-0.6,3.3-1.6v10.9H391.2z M396.3,887.4h3.8v-0.7h-3.8V887.4z
			 M406.2,886.9l-1.1,0.7c-1.6,1.1-2.8,2.2-2.9,4.2h8.2v-0.7H403c0.3-1.5,1.7-2.4,2.9-3.2c1.4-1,1.5-1,2.1-1.5c1.2-1,2.1-2,2.1-3.7
			c0-2-1.5-3.4-3.7-3.4c-2.5,0-3.9,1.6-4,4c0,0.1,0,0.2,0,0.4h0.7c0-2.1,0.9-3.7,3.2-3.7c1.9,0,3,1.1,3,2.8
			C409.4,884.8,407.7,885.9,406.2,886.9z M416.2,892.1c3.6,0,4.5-3.5,4.5-6.4c0-2.9-0.9-6.3-4.4-6.3c-3.6,0-4.4,3.7-4.4,6.5
			C411.7,889.9,413.3,892.1,416.2,892.1z M416.2,880.1c3.1,0,3.7,3.3,3.7,5.7c0,2.4-0.7,5.7-3.7,5.7c-3,0-3.7-3.1-3.7-5.5
			C412.5,882.2,413.8,880.1,416.2,880.1z M424.8,891.8c0.1-3.9,2.1-8.3,5.2-11.5v-0.7h-7.9v0.7h7.2c-3.1,2.8-5.3,7.5-5.3,11.5H424.8
			z M379.3,1068.9v0.6c1.4-0.2,2.2-0.6,3.3-1.6v10.9h0.7v-12.2h-0.6C381.6,1068.2,380.9,1068.6,379.3,1068.9z M389.2,1068.9v0.6
			c1.4-0.2,2.2-0.6,3.3-1.6v10.9h0.7v-12.2h-0.6C391.5,1068.2,390.7,1068.6,389.2,1068.9z M402.2,1073.7h-3.8v0.7h3.8V1073.7z
			 M408.3,1073.9l-1.1,0.7c-1.6,1.1-2.8,2.2-2.9,4.2h8.2v-0.7H405c0.3-1.5,1.7-2.4,2.9-3.2c1.4-1,1.5-1,2.1-1.5c1.2-1,2.1-2,2.1-3.7
			c0-2-1.5-3.4-3.7-3.4c-2.5,0-3.9,1.6-4,4c0,0.1,0,0.2,0,0.4h0.7c0-2.1,0.9-3.7,3.2-3.7c1.9,0,3,1.1,3,2.8
			C411.4,1071.8,409.7,1072.9,408.3,1073.9z M418.2,1066.4c-3.6,0-4.4,3.7-4.4,6.5c0,4,1.6,6.2,4.4,6.2c3.6,0,4.5-3.5,4.5-6.4
			C422.7,1069.9,421.8,1066.4,418.2,1066.4z M418.2,1078.5c-3,0-3.7-3.1-3.7-5.5c0-3.7,1.4-5.9,3.7-5.9c3.1,0,3.7,3.3,3.7,5.7
			C421.9,1075.2,421.3,1078.5,418.2,1078.5z M428.1,1070.7c-1.3,0-2.4,0.5-3.1,1.5l1-4.8h5.7v-0.7h-6.2l-1.3,6.3l0.7,0
			c0.7-1.1,1.7-1.7,3.1-1.7c2,0,3.5,1.5,3.5,3.6s-1.5,3.6-3.5,3.6c-2.2,0-3.4-1.4-3.5-3.4h-0.7c0.1,2.4,1.7,4,4.2,4
			c2.4,0,4.2-1.8,4.2-4.2C432.2,1072.4,430.4,1070.7,428.1,1070.7z M175.8,1024.4h0.7v-12.2h-0.6c-1,1.5-1.8,1.9-3.4,2.3v0.6
			c1.4-0.2,2.2-0.6,3.3-1.6V1024.4z M185.7,1024.4h0.7v-12.2h-0.6c-1,1.5-1.8,1.9-3.4,2.3v0.6c1.4-0.2,2.2-0.6,3.3-1.6V1024.4z
			 M195.4,1019.3h-3.8v0.7h3.8V1019.3z M205.6,1023.8h-7.3c0.3-1.5,1.7-2.4,2.9-3.2c1.4-1,1.5-1,2.1-1.5c1.2-1,2.1-2,2.1-3.7
			c0-2-1.5-3.4-3.7-3.4c-2.5,0-3.9,1.6-4,4c0,0.1,0,0.2,0,0.4h0.7c0-2.1,0.9-3.7,3.2-3.7c1.9,0,3,1.1,3,2.8c0,2-1.7,3.1-3.2,4.1
			l-1.1,0.7c-1.6,1.1-2.8,2.2-2.9,4.2h8.2V1023.8z M211.5,1012c-3.6,0-4.4,3.7-4.4,6.5c0,4,1.6,6.2,4.4,6.2c3.6,0,4.5-3.5,4.5-6.4
			C215.9,1015.5,215,1012,211.5,1012z M211.5,1024c-3,0-3.7-3.1-3.7-5.5c0-3.7,1.4-5.9,3.7-5.9c3.1,0,3.7,3.3,3.7,5.7
			C215.2,1020.7,214.5,1024,211.5,1024z M221.5,1024.7c2.4,0,4.2-1.8,4.2-4.2c0-2.4-1.7-4.1-4.1-4.1c-1.8,0-3.2,1-3.7,2.6
			c0-2.5,0.5-6.4,3.8-6.4c1.6,0,2.9,1.1,3.1,2.6h0.7c-0.2-1.9-1.7-3.2-3.8-3.2c-2.9,0-4.5,2.4-4.5,6.8c0,1.9,0.3,3.2,0.9,4.1
			C218.8,1024,220,1024.7,221.5,1024.7z M221.5,1017c2,0,3.5,1.5,3.5,3.5c0,2-1.5,3.6-3.4,3.6s-3.4-1.5-3.4-3.6
			C218.1,1018.5,219.6,1017,221.5,1017z M376.9,1248.8v0.6c1.4-0.2,2.2-0.6,3.3-1.6v10.9h0.7v-12.2h-0.6
			C379.2,1248.1,378.5,1248.5,376.9,1248.8z M386.8,1248.8v0.6c1.4-0.2,2.2-0.6,3.3-1.6v10.9h0.7v-12.2h-0.6
			C389.1,1248.1,388.4,1248.5,386.8,1248.8z M396,1254.3h3.8v-0.7H396V1254.3z M405.5,1254.9c1.4-1,1.5-1,2.1-1.5
			c1.2-1,2.1-2,2.1-3.7c0-2-1.5-3.4-3.7-3.4c-2.5,0-3.9,1.6-4,4c0,0.1,0,0.2,0,0.4h0.7c0-2.1,0.9-3.7,3.2-3.7c1.9,0,3,1.1,3,2.8
			c0,2-1.7,3.1-3.2,4.1l-1.1,0.7c-1.6,1.1-2.8,2.2-2.9,4.2h8.2v-0.7h-7.3C403,1256.6,404.3,1255.7,405.5,1254.9z M415.8,1246.4
			c-3.6,0-4.4,3.7-4.4,6.5c0,4,1.6,6.2,4.4,6.2c3.6,0,4.5-3.5,4.5-6.4C420.3,1249.8,419.4,1246.4,415.8,1246.4z M415.8,1258.4
			c-3,0-3.7-3.1-3.7-5.5c0-3.7,1.4-5.9,3.7-5.9c3.1,0,3.7,3.3,3.7,5.7C419.5,1255.1,418.9,1258.4,415.8,1258.4z M425.3,1254.9
			c1.4-1,1.5-1,2.1-1.5c1.2-1,2.1-2,2.1-3.7c0-2-1.5-3.4-3.7-3.4c-2.5,0-3.9,1.6-4,4c0,0.1,0,0.2,0,0.4h0.7c0-2.1,0.9-3.7,3.2-3.7
			c1.9,0,3,1.1,3,2.8c0,2-1.7,3.1-3.2,4.1l-1.1,0.7c-1.6,1.1-2.8,2.2-2.9,4.2h8.2v-0.7h-7.3C422.7,1256.6,424.1,1255.7,425.3,1254.9
			z M176.3,1143.3h0.7V1131h-0.6c-1,1.5-1.8,1.9-3.4,2.3v0.6c1.4-0.2,2.2-0.6,3.3-1.6V1143.3z M186.2,1143.3h0.7V1131h-0.6
			c-1,1.5-1.8,1.9-3.4,2.3v0.6c1.4-0.2,2.2-0.6,3.3-1.6V1143.3z M196,1138.1h-3.8v0.7h3.8V1138.1z M202.1,1138.3l-1.1,0.7
			c-1.6,1.1-2.8,2.2-2.9,4.2h8.2v-0.7h-7.3c0.3-1.5,1.7-2.4,2.9-3.2c1.4-1,1.5-1,2.1-1.5c1.2-1,2.1-2,2.1-3.7c0-2-1.5-3.4-3.7-3.4
			c-2.5,0-3.9,1.6-4,4c0,0.1,0,0.2,0,0.4h0.7c0-2.1,0.9-3.7,3.2-3.7c1.9,0,3,1.1,3,2.8C205.2,1136.2,203.5,1137.3,202.1,1138.3z
			 M216.4,1137.2c0-2.9-0.9-6.3-4.4-6.3c-3.6,0-4.4,3.7-4.4,6.5c0,4,1.6,6.2,4.4,6.2C215.5,1143.5,216.4,1140.1,216.4,1137.2z
			 M208.3,1137.4c0-3.7,1.4-5.9,3.7-5.9c3.1,0,3.7,3.3,3.7,5.7c0,2.4-0.7,5.7-3.7,5.7C208.9,1142.9,208.3,1139.8,208.3,1137.4z
			 M224.1,1143.3v-3.1h2v-0.6h-2v-8.5h-0.7l-5.9,8.4v0.7h5.9v3.1H224.1z M218.1,1139.5l4.5-6.3c0.2-0.3,0.4-0.6,0.9-1.3
			c0,0.7,0,0.9,0,1.5v6.1H218.1z M175.7,1253.1v0.6c1.4-0.2,2.2-0.6,3.3-1.6v10.9h0.7v-12.2h-0.6
			C178,1252.4,177.3,1252.8,175.7,1253.1z M185.6,1253.1v0.6c1.4-0.2,2.2-0.6,3.3-1.6v10.9h0.7v-12.2h-0.6
			C187.9,1252.4,187.1,1252.8,185.6,1253.1z M194.8,1258.6h3.8v-0.7h-3.8V1258.6z M204.3,1259.2c1.4-1,1.5-1,2.1-1.5
			c1.2-1,2.1-2,2.1-3.7c0-2-1.5-3.4-3.7-3.4c-2.5,0-3.9,1.6-4,4c0,0.1,0,0.2,0,0.4h0.7c0-2.1,0.9-3.7,3.2-3.7c1.9,0,3,1.1,3,2.8
			c0,2-1.7,3.1-3.2,4.1l-1.1,0.7c-1.6,1.1-2.8,2.2-2.9,4.2h8.2v-0.7h-7.3C201.7,1260.9,203.1,1260,204.3,1259.2z M214.6,1250.6
			c-3.6,0-4.4,3.7-4.4,6.5c0,4,1.6,6.2,4.4,6.2c3.6,0,4.5-3.5,4.5-6.4C219.1,1254.1,218.1,1250.6,214.6,1250.6z M214.6,1262.7
			c-3,0-3.7-3.1-3.7-5.5c0-3.7,1.4-5.9,3.7-5.9c3.1,0,3.7,3.3,3.7,5.7C218.3,1259.4,217.6,1262.7,214.6,1262.7z M225.9,1256.5
			c1.4-0.2,2.5-1.2,2.5-2.7c0-1.9-1.5-3.2-3.8-3.2c-2.5,0-4,1.5-4.1,4.1h0.7c0.1-2.2,1.3-3.4,3.4-3.4c1.9,0,3.1,1,3.1,2.5
			c0,1.6-1.2,2.5-3.3,2.5h-0.5v0.6h0.4c1.9,0,3.7,0.6,3.7,2.8c0,1.8-1.4,3-3.5,3c-2.2,0-3.6-1.3-3.6-3.4v-0.2h-0.7v0.4
			c0,2.4,1.7,3.9,4.3,3.9c2.5,0,4.2-1.5,4.2-3.7C228.7,1257.7,227.4,1256.8,225.9,1256.5z M174.9,1367.2v0.6
			c1.4-0.2,2.2-0.6,3.3-1.6v10.9h0.7v-12.2h-0.6C177.2,1366.5,176.5,1366.9,174.9,1367.2z M184.8,1367.2v0.6
			c1.4-0.2,2.2-0.6,3.3-1.6v10.9h0.7v-12.2h-0.6C187.1,1366.5,186.3,1366.9,184.8,1367.2z M194,1372.7h3.8v-0.7H194V1372.7z
			 M203.5,1373.3c1.4-1,1.5-1,2.1-1.5c1.2-1,2.1-2,2.1-3.7c0-2-1.5-3.4-3.7-3.4c-2.5,0-3.9,1.6-4,4c0,0.1,0,0.2,0,0.4h0.7
			c0-2.1,0.9-3.7,3.2-3.7c1.9,0,3,1.1,3,2.8c0,2-1.7,3.1-3.2,4.1l-1.1,0.7c-1.6,1.1-2.8,2.2-2.9,4.2h8.2v-0.7h-7.3
			C200.9,1375,202.3,1374.1,203.5,1373.3z M213.8,1364.7c-3.6,0-4.4,3.7-4.4,6.5c0,4,1.6,6.2,4.4,6.2c3.6,0,4.5-3.5,4.5-6.4
			C218.2,1368.2,217.3,1364.7,213.8,1364.7z M213.8,1376.8c-3,0-3.7-3.1-3.7-5.5c0-3.7,1.4-5.9,3.7-5.9c3.1,0,3.7,3.3,3.7,5.7
			C217.5,1373.5,216.8,1376.8,213.8,1376.8z M220.7,1367.2v0.6c1.4-0.2,2.2-0.6,3.3-1.6v10.9h0.7v-12.2H224
			C223,1366.5,222.2,1366.9,220.7,1367.2z"/>
	</g>
</g>
</svg>
